<svg width="363" height="310" viewBox="0 0 363 310" fill="none" xmlns="http://www.w3.org/2000/svg">
<path opacity="0.4" d="M178.299 276.231C242.501 276.231 294.547 225.617 294.547 163.18C294.547 100.743 242.501 50.1285 178.299 50.1285C114.097 50.1285 62.0506 100.743 62.0506 163.18C62.0506 225.617 114.097 276.231 178.299 276.231Z" stroke="#3AD29F" stroke-width="5" stroke-miterlimit="10" stroke-dasharray="12 12"/>
<path opacity="0.4" d="M178.299 276.231C242.501 276.231 294.547 225.617 294.547 163.18C294.547 100.743 242.501 50.1285 178.299 50.1285C114.097 50.1285 62.0506 100.743 62.0506 163.18C62.0506 225.617 114.097 276.231 178.299 276.231Z" stroke="#3AD29F" stroke-width="5" stroke-miterlimit="10" stroke-dasharray="12 12"/>
<path opacity="0.4" d="M178.299 249.384C227.255 249.384 266.941 210.789 266.941 163.18C266.941 115.571 227.255 76.9756 178.299 76.9756C129.343 76.9756 89.6569 115.571 89.6569 163.18C89.6569 210.789 129.343 249.384 178.299 249.384Z" stroke="#3AD29F" stroke-width="5" stroke-miterlimit="10" stroke-dasharray="12 12"/>
<path d="M331.428 178.072C331.595 178.066 331.754 177.997 331.871 177.88C331.987 177.762 332.053 177.606 332.053 177.442C332.053 177.279 331.987 177.122 331.871 177.005C331.754 176.888 331.595 176.819 331.428 176.813C331.26 176.819 331.101 176.888 330.984 177.005C330.868 177.122 330.803 177.279 330.803 177.442C330.803 177.606 330.868 177.762 330.984 177.88C331.101 177.997 331.26 178.066 331.428 178.072Z" fill="#F5F5F5"/>
<g opacity="0.5">
<path opacity="0.5" d="M335.802 275.256C334.883 274.616 333.757 274.32 332.632 274.422C331.506 274.524 330.456 275.017 329.674 275.811C328.829 276.706 328.376 277.887 328.411 279.101C328.447 280.316 328.968 281.47 329.865 282.317L335.723 287.982C335.906 288.159 336.155 288.259 336.415 288.258C336.674 288.257 336.923 288.157 337.105 287.978L342.93 282.281C343.822 281.429 344.337 280.273 344.365 279.058C344.394 277.843 343.934 276.665 343.083 275.774C342.297 274.985 341.244 274.498 340.118 274.402C338.992 274.306 337.868 274.608 336.953 275.253C336.785 275.371 336.584 275.434 336.378 275.435C336.171 275.435 335.97 275.373 335.802 275.256Z" fill="#00BF6B"/>
</g>
<g opacity="0.5">
<path opacity="0.5" d="M26.0938 258.057C25.1747 257.418 24.0492 257.121 22.9237 257.223C21.7982 257.325 20.7482 257.818 19.9663 258.612C19.1208 259.507 18.6677 260.688 18.7033 261.903C18.7389 263.117 19.2604 264.271 20.1569 265.118L26.0146 270.783C26.1985 270.96 26.4475 271.06 26.7068 271.059C26.9662 271.059 27.2146 270.958 27.3975 270.779L33.2224 265.082C34.1141 264.231 34.6289 263.074 34.6575 261.859C34.6861 260.644 34.2261 259.466 33.3755 258.575C32.589 257.786 31.5362 257.299 30.4102 257.203C29.2841 257.107 28.1603 257.409 27.2449 258.054C27.0775 258.172 26.8764 258.235 26.6699 258.236C26.4633 258.237 26.2619 258.174 26.0938 258.057Z" fill="#00BF6B"/>
</g>
<g opacity="0.5">
<path opacity="0.5" d="M41.6224 29.4375C40.7032 28.7977 39.5777 28.5016 38.4522 28.6035C37.3267 28.7054 36.2768 29.1984 35.4949 29.9922C34.6494 30.8873 34.1962 32.0678 34.2318 33.2828C34.2674 34.4977 34.7889 35.6512 35.6854 36.4981L41.5431 42.1628C41.727 42.3407 41.976 42.4402 42.2354 42.4395C42.4947 42.4388 42.7431 42.3379 42.926 42.159L48.751 36.4624C49.6426 35.6107 50.1574 34.4544 50.186 33.2393C50.2146 32.0241 49.7547 30.8461 48.904 29.9557C48.1175 29.1661 47.0647 28.6788 45.9387 28.583C44.8126 28.4873 43.6888 28.7895 42.7734 29.4343C42.606 29.552 42.4049 29.6156 42.1984 29.6162C41.9919 29.6167 41.7904 29.5542 41.6224 29.4375Z" fill="#00BF6B"/>
</g>
<g opacity="0.5">
<path opacity="0.5" d="M281.452 10.9802C280.533 10.3404 279.407 10.0443 278.282 10.1462C277.156 10.2481 276.106 10.7411 275.324 11.5349C274.479 12.43 274.026 13.6105 274.061 14.8255C274.097 16.0404 274.618 17.1939 275.515 18.0408L281.373 23.7055C281.557 23.8834 281.806 23.9829 282.065 23.9822C282.324 23.9815 282.573 23.8806 282.756 23.7018L288.581 18.0052C289.472 17.1534 289.987 15.9971 290.016 14.782C290.044 13.5669 289.584 12.3888 288.734 11.4984C287.947 10.7089 286.894 10.2215 285.768 10.1258C284.642 10.03 283.518 10.3323 282.603 10.9771C282.436 11.0947 282.235 11.1583 282.028 11.1589C281.821 11.1595 281.62 11.097 281.452 10.9802Z" fill="#00BF6B"/>
</g>
<g opacity="0.5">
<path opacity="0.5" d="M203.749 0H202.454V7.13126H203.749V0Z" fill="#3AD29F"/>
<path opacity="0.5" d="M206.768 4.19486V2.9364L199.435 2.9364V4.19486H206.768Z" fill="#3AD29F"/>
</g>
<g opacity="0.5">
<path opacity="0.5" d="M15.6807 91.4479H14.3866V98.5791H15.6807V91.4479Z" fill="#3AD29F"/>
<path opacity="0.5" d="M18.7001 95.6427V94.3843H11.3672V95.6427H18.7001Z" fill="#3AD29F"/>
</g>
<g opacity="0.5">
<path opacity="0.5" d="M257.667 302.869H256.373V310H257.667V302.869Z" fill="#3AD29F"/>
<path opacity="0.5" d="M260.686 307.064V305.805H253.354V307.064H260.686Z" fill="#3AD29F"/>
</g>
<g opacity="0.5">
<path opacity="0.5" d="M19.9942 208.484H18.7001V215.616H19.9942V208.484Z" fill="#3AD29F"/>
<path opacity="0.5" d="M23.0136 212.679V211.421H15.6807V212.679H23.0136Z" fill="#3AD29F"/>
</g>
<g opacity="0.5">
<path opacity="0.5" d="M100.225 218.972H98.9309V226.103H100.225V218.972Z" fill="#3AD29F"/>
<path opacity="0.5" d="M103.244 223.166V221.908H95.9115V223.166H103.244Z" fill="#3AD29F"/>
</g>
<path opacity="0.5" d="M74.8164 281.428C74.4598 281.277 74.1727 281.003 74.0099 280.66C73.847 280.316 73.8197 279.927 73.9332 279.565C73.9516 279.509 73.9631 279.452 73.9677 279.394C73.9781 279.228 73.9333 279.064 73.8399 278.924C73.7466 278.785 73.6096 278.679 73.4494 278.622C73.2892 278.564 73.1142 278.559 72.9504 278.605C72.7865 278.652 72.6425 278.749 72.5397 278.882C72.5044 278.929 72.4748 278.98 72.4518 279.033C72.2965 279.38 72.0154 279.659 71.6622 279.818C71.309 279.976 70.9082 280.003 70.5361 279.892C70.4791 279.874 70.4201 279.863 70.3604 279.859C70.1899 279.849 70.0206 279.892 69.8776 279.983C69.7346 280.074 69.6255 280.207 69.5664 280.363C69.5073 280.519 69.5014 280.689 69.5495 280.848C69.5976 281.007 69.6972 281.147 69.8336 281.247C69.882 281.282 69.9344 281.311 69.9897 281.333C70.3463 281.484 70.6333 281.757 70.7962 282.101C70.959 282.444 70.9863 282.834 70.8728 283.196C70.8545 283.251 70.8429 283.309 70.8384 283.367C70.828 283.533 70.8728 283.697 70.9661 283.836C71.0595 283.975 71.1964 284.082 71.3566 284.139C71.5168 284.196 71.6918 284.202 71.8557 284.155C72.0195 284.109 72.1635 284.012 72.2663 283.879C72.3017 283.832 72.3312 283.781 72.3543 283.727C72.5096 283.381 72.7906 283.101 73.1438 282.943C73.4971 282.785 73.8979 282.758 74.2699 282.868C74.3269 282.886 74.3859 282.898 74.4457 282.902C74.6161 282.912 74.7854 282.869 74.9284 282.778C75.0714 282.687 75.1806 282.554 75.2397 282.398C75.2988 282.242 75.3047 282.072 75.2566 281.913C75.2084 281.753 75.1088 281.613 74.9725 281.513C74.9241 281.479 74.8717 281.45 74.8164 281.428Z" fill="#F55F44"/>
<path opacity="0.5" d="M181.791 267.165C181.434 267.014 181.147 266.741 180.984 266.397C180.821 266.054 180.794 265.664 180.908 265.302C180.926 265.247 180.937 265.19 180.942 265.131C180.952 264.966 180.908 264.801 180.814 264.662C180.721 264.523 180.584 264.417 180.424 264.359C180.264 264.302 180.089 264.296 179.925 264.343C179.761 264.39 179.617 264.487 179.514 264.619C179.479 264.666 179.449 264.717 179.426 264.771C179.271 265.118 178.99 265.397 178.637 265.555C178.283 265.714 177.883 265.74 177.51 265.63C177.453 265.612 177.394 265.601 177.335 265.596C177.164 265.586 176.995 265.63 176.852 265.721C176.709 265.811 176.6 265.944 176.541 266.1C176.482 266.256 176.476 266.426 176.524 266.586C176.572 266.745 176.672 266.885 176.808 266.985C176.856 267.019 176.909 267.048 176.964 267.07C177.321 267.222 177.608 267.495 177.771 267.838C177.933 268.182 177.961 268.572 177.847 268.933C177.829 268.989 177.817 269.046 177.813 269.104C177.802 269.27 177.847 269.435 177.94 269.574C178.034 269.713 178.171 269.819 178.331 269.876C178.491 269.934 178.666 269.94 178.83 269.893C178.994 269.846 179.138 269.749 179.241 269.617C179.276 269.57 179.306 269.519 179.329 269.465C179.484 269.118 179.765 268.839 180.118 268.681C180.471 268.522 180.872 268.496 181.244 268.606C181.301 268.624 181.36 268.635 181.42 268.639C181.59 268.65 181.76 268.606 181.903 268.515C182.046 268.424 182.155 268.291 182.214 268.135C182.273 267.98 182.279 267.81 182.231 267.65C182.183 267.491 182.083 267.351 181.947 267.251C181.898 267.216 181.846 267.188 181.791 267.165Z" fill="#3AD29F"/>
<path opacity="0.5" d="M223.2 70.846C222.844 70.6949 222.557 70.4216 222.394 70.0781C222.231 69.7346 222.204 69.3449 222.317 68.983C222.335 68.9276 222.347 68.8702 222.351 68.8121C222.362 68.6463 222.317 68.4817 222.224 68.3426C222.13 68.2036 221.993 68.0974 221.833 68.04C221.673 67.9825 221.498 67.9767 221.334 68.0235C221.17 68.0703 221.026 68.1672 220.924 68.2998C220.888 68.3469 220.859 68.3978 220.836 68.4516C220.68 68.7984 220.399 69.0775 220.046 69.2359C219.693 69.3943 219.292 69.4208 218.92 69.3105C218.863 69.2926 218.804 69.2814 218.744 69.277C218.574 69.2669 218.404 69.3104 218.261 69.4012C218.118 69.492 218.009 69.6251 217.95 69.781C217.891 69.9368 217.885 70.1069 217.933 70.2663C217.981 70.4256 218.081 70.5657 218.217 70.6656C218.266 70.7 218.318 70.7287 218.373 70.7512C218.73 70.9022 219.017 71.1755 219.18 71.519C219.343 71.8625 219.37 72.2523 219.257 72.6141C219.238 72.6696 219.227 72.727 219.222 72.7851C219.212 72.9508 219.257 73.1154 219.35 73.2545C219.443 73.3936 219.58 73.4997 219.74 73.5572C219.901 73.6147 220.076 73.6204 220.239 73.5736C220.403 73.5268 220.547 73.43 220.65 73.2973C220.685 73.2503 220.715 73.1993 220.738 73.1456C220.893 72.7988 221.174 72.5196 221.528 72.3612C221.881 72.2029 222.282 72.1763 222.654 72.2867C222.711 72.3045 222.77 72.3158 222.829 72.3202C223 72.3303 223.169 72.2867 223.312 72.1959C223.455 72.1052 223.564 71.972 223.623 71.8162C223.683 71.6604 223.688 71.4902 223.64 71.3309C223.592 71.1715 223.493 71.0315 223.356 70.9315C223.308 70.8971 223.255 70.8684 223.2 70.846Z" fill="#F55F44"/>
<path opacity="0.5" d="M334.057 73.3628C333.7 73.2118 333.413 72.9385 333.25 72.595C333.087 72.2515 333.06 71.8617 333.173 71.4999C333.192 71.4444 333.203 71.387 333.208 71.3289C333.218 71.1632 333.174 70.9985 333.08 70.8595C332.987 70.7204 332.85 70.6143 332.69 70.5568C332.529 70.4993 332.354 70.4936 332.191 70.5404C332.027 70.5872 331.883 70.684 331.78 70.8167C331.745 70.8637 331.715 70.9146 331.692 70.9684C331.537 71.3152 331.256 71.5944 330.902 71.7528C330.549 71.9111 330.148 71.9377 329.776 71.8273C329.719 71.8095 329.66 71.7982 329.601 71.7938C329.43 71.7837 329.261 71.8273 329.118 71.9181C328.975 72.0088 328.866 72.142 328.807 72.2978C328.748 72.4536 328.742 72.6238 328.79 72.7831C328.838 72.9425 328.937 73.0825 329.074 73.1825C329.122 73.2169 329.175 73.2456 329.23 73.268C329.587 73.4191 329.874 73.6923 330.036 74.0359C330.199 74.3794 330.227 74.7691 330.113 75.131C330.095 75.1864 330.083 75.2438 330.079 75.3019C330.068 75.4677 330.113 75.6323 330.206 75.7714C330.3 75.9104 330.437 76.0166 330.597 76.074C330.757 76.1315 330.932 76.1373 331.096 76.0905C331.26 76.0437 331.404 75.9468 331.507 75.8142C331.542 75.7671 331.571 75.7162 331.595 75.6624C331.75 75.3156 332.031 75.0364 332.384 74.8781C332.737 74.7197 333.138 74.6932 333.51 74.8035C333.567 74.8214 333.626 74.8326 333.686 74.837C333.856 74.8471 334.026 74.8036 334.169 74.7128C334.312 74.622 334.421 74.4889 334.48 74.333C334.539 74.1772 334.545 74.007 334.497 73.8477C334.449 73.6884 334.349 73.5483 334.213 73.4484C334.164 73.414 334.112 73.3853 334.057 73.3628Z" fill="#F55F44"/>
<path opacity="0.5" d="M174.458 188.721C174.101 188.57 173.814 188.297 173.651 187.954C173.488 187.61 173.461 187.22 173.575 186.859C173.593 186.803 173.605 186.746 173.609 186.688C173.619 186.522 173.575 186.357 173.481 186.218C173.388 186.079 173.251 185.973 173.091 185.915C172.931 185.858 172.756 185.852 172.592 185.899C172.428 185.946 172.284 186.043 172.181 186.175C172.146 186.222 172.116 186.273 172.093 186.327C171.938 186.674 171.657 186.953 171.304 187.111C170.95 187.27 170.55 187.296 170.178 187.186C170.121 187.168 170.062 187.157 170.002 187.152C169.831 187.142 169.662 187.186 169.519 187.277C169.376 187.367 169.267 187.501 169.208 187.656C169.149 187.812 169.143 187.982 169.191 188.142C169.239 188.301 169.339 188.441 169.475 188.541C169.523 188.575 169.576 188.604 169.631 188.627C169.988 188.778 170.275 189.051 170.438 189.394C170.6 189.738 170.628 190.128 170.514 190.49C170.496 190.545 170.484 190.602 170.48 190.661C170.469 190.826 170.514 190.991 170.608 191.13C170.701 191.269 170.838 191.375 170.998 191.433C171.158 191.49 171.333 191.496 171.497 191.449C171.661 191.402 171.805 191.305 171.908 191.173C171.943 191.126 171.973 191.075 171.996 191.021C172.151 190.674 172.432 190.395 172.785 190.237C173.138 190.078 173.539 190.052 173.911 190.162C173.968 190.18 174.027 190.191 174.087 190.196C174.258 190.206 174.427 190.162 174.57 190.071C174.713 189.981 174.822 189.847 174.881 189.692C174.94 189.536 174.946 189.366 174.898 189.206C174.85 189.047 174.75 188.907 174.614 188.807C174.565 188.773 174.513 188.744 174.458 188.721Z" fill="#F55F44"/>
<path opacity="0.5" d="M362.526 10.0205C362.169 9.8695 361.882 9.59621 361.719 9.25269C361.556 8.90917 361.529 8.51941 361.642 8.1576C361.661 8.10213 361.672 8.04475 361.677 7.98665C361.687 7.82088 361.643 7.65627 361.549 7.5172C361.456 7.37813 361.319 7.27199 361.159 7.21452C360.998 7.15704 360.823 7.15127 360.66 7.19808C360.496 7.24488 360.352 7.34176 360.249 7.47437C360.214 7.52142 360.184 7.57237 360.161 7.62614C360.006 7.97295 359.725 8.25211 359.371 8.41048C359.018 8.56886 358.617 8.59539 358.245 8.48503C358.188 8.46718 358.129 8.45593 358.07 8.45152C357.899 8.44143 357.73 8.48499 357.587 8.57577C357.444 8.66655 357.335 8.7997 357.276 8.95552C357.217 9.11133 357.211 9.28151 357.259 9.44085C357.307 9.60019 357.406 9.74023 357.543 9.8402C357.591 9.87458 357.644 9.90329 357.699 9.92574C358.056 10.0768 358.343 10.3501 358.505 10.6936C358.668 11.0371 358.696 11.4269 358.582 11.7887C358.564 11.8441 358.552 11.9015 358.548 11.9596C358.537 12.1254 358.582 12.29 358.675 12.4291C358.769 12.5681 358.906 12.6743 359.066 12.7318C359.226 12.7892 359.401 12.795 359.565 12.7482C359.729 12.7014 359.873 12.6045 359.976 12.4719C360.011 12.4249 360.04 12.3739 360.064 12.3201C360.219 11.9733 360.5 11.6942 360.853 11.5358C361.206 11.3774 361.607 11.3509 361.979 11.4612C362.036 11.4791 362.095 11.4904 362.155 11.4948C362.325 11.5049 362.495 11.4613 362.638 11.3705C362.781 11.2797 362.89 11.1466 362.949 10.9908C363.008 10.8349 363.014 10.6648 362.966 10.5054C362.918 10.3461 362.818 10.2061 362.682 10.1061C362.633 10.0717 362.581 10.043 362.526 10.0205Z" fill="#F55F44"/>
<path d="M305.409 124.807L299.489 92.1715L177.575 113.086L200.816 241.214C201.925 247.332 205.489 252.771 210.722 256.335C215.955 259.898 222.43 261.293 228.721 260.214L303.193 247.438C306.308 246.904 309.285 245.778 311.953 244.125C314.62 242.472 316.927 240.324 318.741 237.804C320.555 235.284 321.841 232.441 322.526 229.438C323.21 226.434 323.28 223.329 322.73 220.3L319.946 204.95C330.874 203.075 340.589 197.055 346.953 188.215C353.317 179.375 355.81 168.438 353.882 157.81C351.954 147.182 345.764 137.735 336.674 131.545C327.583 125.356 316.337 122.932 305.409 124.807ZM318.222 195.448L307.132 134.308C311.261 133.6 315.492 133.689 319.585 134.571C323.677 135.453 327.551 137.11 330.985 139.448C334.419 141.786 337.346 144.759 339.599 148.197C341.852 151.635 343.386 155.471 344.114 159.486C344.842 163.5 344.75 167.615 343.843 171.595C342.936 175.575 341.232 179.343 338.827 182.682C336.423 186.022 333.366 188.868 329.831 191.058C326.295 193.249 322.351 194.741 318.222 195.448V195.448Z" fill="#DBE8FC"/>
<path d="M284.446 98.5858L190.568 114.69L200.909 171.699L294.787 155.595L284.446 98.5858Z" fill="white"/>
<path opacity="0.03" d="M305.502 89.362C302.737 80.1393 271.666 80.8374 236.103 90.9213C200.54 101.005 173.952 116.656 176.717 125.879C178.404 131.504 190.623 133.436 207.965 131.802C207.355 134.289 207.667 136.906 208.845 139.192C210.023 141.478 211.992 143.287 214.406 144.3C216.819 145.314 219.524 145.468 222.042 144.734C224.561 144.001 226.734 142.427 228.177 140.29C232.341 148.524 239.183 153.464 245.041 151.803C251.452 149.985 254.49 140.884 252.496 130.664C255.725 133.12 259.37 134.151 262.75 133.192C266.871 132.024 269.69 128.157 270.73 123.095C273.327 124.446 276.076 124.884 278.67 124.148C281.993 123.206 284.471 120.511 285.851 116.848C288.594 124.108 294.913 128.602 300.491 127.02C306.418 125.34 309.261 117.436 306.842 109.366C305.557 105.081 303.047 101.611 300.088 99.5501C304.353 95.7693 306.368 92.2503 305.502 89.362Z" fill="black"/>
<path d="M304.251 85.1872C301.485 75.9645 270.414 76.6626 234.851 86.7465C199.288 96.8304 172.701 112.481 175.466 121.704C177.152 127.329 189.371 129.261 206.713 127.627C206.104 130.114 206.415 132.731 207.593 135.017C208.771 137.303 210.74 139.112 213.154 140.126C215.568 141.139 218.272 141.293 220.791 140.56C223.31 139.826 225.482 138.253 226.926 136.115C231.089 144.349 237.931 149.289 243.789 147.628C250.2 145.81 253.238 136.709 251.244 126.49C254.474 128.945 258.118 129.976 261.498 129.017C265.619 127.849 268.438 123.982 269.478 118.92C272.076 120.271 274.825 120.709 277.418 119.974C280.741 119.031 283.219 116.336 284.6 112.673C287.342 119.933 293.661 124.427 299.239 122.846C305.166 121.165 308.01 113.261 305.59 105.191C304.305 100.906 301.795 97.4361 298.836 95.3753C303.102 91.5945 305.117 88.0755 304.251 85.1872Z" fill="#FAFAFA"/>
<path d="M195.888 144.021C195.888 144.021 216.578 134.934 238.367 143.975C260.155 153.016 289.767 127.916 289.767 127.916L294.784 155.575L229.244 175.784L210.079 173.96L195.888 144.021Z" fill="#00BF6B"/>
<path opacity="0.05" d="M195.888 144.021C195.888 144.021 216.578 134.934 238.367 143.975C260.155 153.016 289.767 127.916 289.767 127.916L294.784 155.575L229.244 175.784L210.079 173.96L195.888 144.021Z" fill="black"/>
<path d="M308.125 229.128L214.247 245.232L195.888 144.021C227.345 160.434 258.638 155.066 289.767 127.916L308.125 229.128Z" fill="#00BF6B"/>
<path d="M212.931 166.364C211.066 166.893 211.908 169.713 213.776 169.183C215.641 168.654 214.799 165.834 212.931 166.364Z" fill="#FAFAFA"/>
<path d="M255.255 223.424C253.39 223.953 254.232 226.772 256.1 226.243C257.966 225.714 257.124 222.894 255.255 223.424Z" fill="#FAFAFA"/>
<path d="M234.193 201.479C232.327 202.008 233.169 204.828 235.038 204.298C236.903 203.769 236.061 200.95 234.193 201.479Z" fill="#FAFAFA"/>
<path d="M249.911 177.059C248.046 177.588 248.888 180.407 250.756 179.878C252.622 179.349 251.78 176.529 249.911 177.059Z" fill="#FAFAFA"/>
<path d="M287.493 162.092C285.628 162.621 286.47 165.441 288.338 164.911C290.204 164.382 289.362 161.563 287.493 162.092Z" fill="#FAFAFA"/>
<path d="M0.643156 116.281C-1.28455 126.908 1.20788 137.846 7.57215 146.686C13.9364 155.526 23.6512 161.546 34.5793 163.421L31.795 178.771C30.6852 184.889 32.1201 191.186 35.784 196.275C39.4479 201.364 45.0406 204.83 51.3319 205.909L125.804 218.685C128.919 219.219 132.112 219.152 135.2 218.486C138.289 217.82 141.212 216.57 143.803 214.805C146.394 213.041 148.603 210.798 150.303 208.203C152.002 205.609 153.16 202.715 153.71 199.685L176.951 71.5567L55.0359 50.6425L49.1162 83.278C38.1881 81.4033 26.9417 83.8272 17.8513 90.0164C8.76082 96.2056 2.57087 105.653 0.643156 116.281ZM10.4133 117.957C11.1415 113.942 12.6756 110.107 14.9281 106.669C17.1806 103.231 20.1073 100.258 23.5412 97.9201C26.975 95.5821 30.8488 93.9248 34.9412 93.0428C39.0337 92.1608 43.2648 92.0713 47.3928 92.7794L36.3028 153.919C27.9658 152.489 20.5546 147.897 15.6994 141.153C10.8441 134.408 8.9427 126.065 10.4133 117.957V117.957Z" fill="#DBE8FC"/>
<path d="M59.7373 114.064L153.616 130.169L163.957 73.1603L70.0782 57.0554L59.7373 114.064Z" fill="white"/>
<path opacity="0.03" d="M49.023 47.8329C51.788 38.6102 82.859 39.3084 118.422 49.3923C153.985 59.4761 180.573 75.1272 177.808 84.3498C176.122 89.9747 163.903 91.9071 146.56 90.2727C147.17 92.76 146.858 95.3767 145.68 97.6627C144.502 99.9488 142.533 101.758 140.12 102.771C137.706 103.785 135.002 103.939 132.483 103.205C129.964 102.472 127.792 100.898 126.348 98.7612C122.184 106.995 115.342 111.935 109.485 110.274C103.074 108.456 100.036 99.3551 102.029 89.1355C98.8 91.5912 95.1554 92.6215 91.7754 91.6631C87.6542 90.4946 84.8357 86.6278 83.7956 81.5659C81.1978 82.9167 78.449 83.3547 75.8557 82.6194C72.5325 81.6771 70.0545 78.9815 68.6739 75.319C65.9315 82.5789 59.6122 87.0729 54.0347 85.4914C48.1075 83.8108 45.2639 75.9065 47.6833 67.8366C48.968 63.5517 51.4783 60.0819 54.4377 58.0211C50.1718 54.2402 48.157 50.7212 49.023 47.8329Z" fill="black"/>
<path d="M50.2746 43.6581C53.0397 34.4354 84.1107 35.1336 119.674 45.2175C155.237 55.3013 181.825 70.9523 179.06 80.175C177.373 85.7999 165.154 87.7323 147.812 86.0979C148.422 88.5852 148.11 91.2019 146.932 93.4879C145.754 95.774 143.785 97.5829 141.371 98.5966C138.957 99.6104 136.253 99.764 133.734 99.0306C131.216 98.2971 129.043 96.7235 127.6 94.5864C123.436 102.82 116.594 107.76 110.736 106.099C104.325 104.281 101.287 95.1803 103.281 84.9606C100.052 87.4163 96.407 88.4467 93.027 87.4883C88.9058 86.3197 86.0873 82.453 85.0472 77.3911C82.4494 78.7418 79.7006 79.1799 77.1073 78.4446C73.7841 77.5023 71.3061 74.8067 69.9255 71.1441C67.1832 78.4041 60.8638 82.8981 55.2863 81.3166C49.3591 79.636 46.5155 71.7316 48.935 63.6618C50.2196 59.3769 52.7299 55.9071 55.6893 53.8462C51.4234 50.0654 49.4086 46.5464 50.2746 43.6581Z" fill="#FAFAFA"/>
<path d="M158.637 102.492C158.637 102.492 137.947 93.4051 116.159 102.446C94.3703 111.487 64.7585 86.3873 64.7585 86.3873L59.7416 114.046L125.281 134.255L144.446 132.431L158.637 102.492Z" fill="#00BF6B"/>
<path opacity="0.05" d="M158.637 102.492C158.637 102.492 137.947 93.4051 116.159 102.446C94.3703 111.487 64.7585 86.3873 64.7585 86.3873L59.7416 114.046L125.281 134.255L144.446 132.431L158.637 102.492Z" fill="black"/>
<path d="M46.4001 187.599L140.279 203.703L158.637 102.492C127.18 118.905 95.8873 113.537 64.7585 86.3873L46.4001 187.599Z" fill="#00BF6B"/>
<path d="M141.594 124.835C143.46 125.364 142.618 128.184 140.749 127.654C138.884 127.125 139.726 124.305 141.594 124.835Z" fill="#FAFAFA"/>
<path d="M99.2699 181.895C101.135 182.423 100.293 185.243 98.4247 184.714C96.5596 184.185 97.4016 181.365 99.2699 181.895Z" fill="#FAFAFA"/>
<path d="M120.333 159.95C122.198 160.479 121.356 163.299 119.488 162.769C117.622 162.24 118.464 159.42 120.333 159.95Z" fill="#FAFAFA"/>
<path d="M104.614 135.53C106.479 136.058 105.637 138.878 103.769 138.349C101.904 137.82 102.746 135 104.614 135.53Z" fill="#FAFAFA"/>
<path d="M67.0319 120.563C68.8971 121.092 68.055 123.912 66.1867 123.382C64.3215 122.853 65.1636 120.034 67.0319 120.563Z" fill="#FAFAFA"/>
</svg>
