<svg width="1324" height="203" viewBox="0 0 1324 203" fill="none" xmlns="http://www.w3.org/2000/svg">
<path d="M742.59 202.74H559.87C559.29 202.74 558.74 202.47 558.38 202C558.03 201.53 557.91 200.93 558.07 200.37L574.85 140.71C574.96 140.33 575.18 140 575.49 139.75L622.63 102.46C623.44 101.82 624.61 101.96 625.25 102.77C625.89 103.58 625.75 104.75 624.95 105.39L578.28 142.3L562.33 199.01H740.05L722.33 142.29L678 105.35C677.21 104.69 677.1 103.52 677.76 102.72C678.42 101.93 679.59 101.82 680.39 102.48L725.14 139.77C725.42 140 725.62 140.3 725.73 140.65L744.37 200.31C744.55 200.88 744.44 201.49 744.09 201.97C743.74 202.45 743.18 202.74 742.59 202.74Z" fill="#219653"/>
<path d="M612.49 202.74C611.76 202.74 611.06 202.31 610.77 201.59L592.64 157.77C592.25 156.82 592.7 155.73 593.65 155.33C594.6 154.94 595.69 155.39 596.09 156.34L614.21 200.16C614.6 201.11 614.15 202.2 613.2 202.6C612.97 202.69 612.72 202.74 612.49 202.74Z" fill="#219653"/>
<path d="M689.45 202.74C689.21 202.74 688.97 202.69 688.74 202.6C687.79 202.21 687.34 201.12 687.73 200.16L705.85 156.34C706.24 155.39 707.33 154.94 708.29 155.33C709.24 155.72 709.69 156.81 709.3 157.77L691.18 201.59C690.88 202.3 690.18 202.74 689.45 202.74Z" fill="#219653"/>
<path d="M648.43 202.74C647.4 202.74 646.57 201.91 646.57 200.88V173.84C646.57 173.39 646.73 172.96 647.03 172.62L683.39 130.67C684.07 129.89 685.24 129.81 686.02 130.48C686.8 131.15 686.88 132.33 686.21 133.11L650.31 174.54V200.87C650.3 201.9 649.46 202.74 648.43 202.74Z" fill="#219653"/>
<path d="M648.43 202.74C647.4 202.74 646.57 201.91 646.57 200.88V174.54L608.81 131.25C608.13 130.47 608.21 129.3 608.99 128.62C609.77 127.94 610.94 128.02 611.62 128.8L649.84 172.62C650.14 172.96 650.3 173.39 650.3 173.85V200.87C650.3 201.9 649.46 202.74 648.43 202.74Z" fill="#219653"/>
<path d="M611.14 61.97C610.71 61.97 610.28 61.82 609.93 61.52C609.15 60.85 609.06 59.67 609.73 58.89C610.28 58.25 623.36 43.11 635.33 44.12C639.83 44.5 643.52 47.05 646.31 51.69C646.84 52.57 646.55 53.72 645.67 54.25C644.79 54.78 643.64 54.49 643.11 53.61C640.95 50 638.3 48.11 635.02 47.84C624.94 46.98 612.68 61.17 612.56 61.32C612.19 61.75 611.67 61.97 611.14 61.97Z" fill="#219653"/>
<path d="M691.32 61.9699C690.79 61.9699 690.27 61.75 689.9 61.32C689.78 61.18 677.46 46.9799 667.44 47.8299C664.16 48.1099 661.52 49.9999 659.35 53.5999C658.82 54.4799 657.67 54.7699 656.79 54.2399C655.91 53.7099 655.62 52.56 656.15 51.68C658.94 47.04 662.63 44.49 667.13 44.11C679.05 43.11 692.17 58.2399 692.73 58.8799C693.4 59.6599 693.31 60.84 692.53 61.51C692.18 61.82 691.75 61.9699 691.32 61.9699Z" fill="#219653"/>
<path d="M668.01 66.63C672.13 66.63 675.47 64.9601 675.47 62.9C675.47 60.84 672.13 59.17 668.01 59.17C663.89 59.17 660.55 60.84 660.55 62.9C660.55 64.9601 663.89 66.63 668.01 66.63Z" fill="#219653"/>
<path d="M634.45 66.63C638.57 66.63 641.91 64.9601 641.91 62.9C641.91 60.84 638.57 59.17 634.45 59.17C630.33 59.17 626.99 60.84 626.99 62.9C626.99 64.9601 630.33 66.63 634.45 66.63Z" fill="#219653"/>
<path d="M650.81 141.52C647.2 141.52 643.6 141.14 640.03 140.39C620.27 136.24 595.33 128.73 588.68 116.5C586.7 112.85 586.45 109.02 587.96 105.1C591.37 96.22 600 89.83 613.59 86.1C614.58 85.83 615.61 86.41 615.88 87.4C616.15 88.39 615.57 89.42 614.58 89.69C602.19 93.09 594.41 98.72 591.44 106.43C590.33 109.32 590.5 112.02 591.96 114.7C596.55 123.14 614.35 131.16 640.8 136.72C647.77 138.18 654.86 138.11 661.87 136.5C677.5 132.9 704.72 124.91 711.82 111.73C712.68 109.07 712.49 106.59 711.23 104.16C708.46 98.81 700.54 93.97 688.92 90.52C687.93 90.23 687.37 89.19 687.66 88.2C687.95 87.21 688.99 86.65 689.98 86.94C698.89 89.58 710.38 94.42 714.54 102.43C716.29 105.8 716.54 109.38 715.3 113.05C715.27 113.14 715.23 113.23 715.18 113.32C707.5 127.9 679 136.37 662.7 140.12C658.76 141.06 654.78 141.52 650.81 141.52Z" fill="#219653"/>
<path d="M653.17 117.12C652.38 117.12 651.82 117.08 651.52 117.06C648.72 117.29 621.68 118.5 609.57 81.53C604.58 78.19 586.06 65.55 584.2 60.79C583.89 59.99 583.67 59.27 583.46 58.52C582.46 55.11 581.33 51.23 565.96 34.33C563.3 30.8 564.26 28.77 565.06 27.86C569.36 22.99 586.79 30.33 601.71 38.85C603.22 39.44 604.45 39.5 605.36 39.04C606.72 38.35 607.45 36.52 607.83 35.1C609.16 30.05 610.97 25.87 613.36 22.3L614.39 20.76C620.69 11.22 627.23 1.37997 651.41 0.469971C651.45 0.469971 651.49 0.469971 651.52 0.469971C675.81 1.36997 682.35 11.22 688.68 20.75L689.71 22.29C692.1 25.85 693.91 30.04 695.24 35.08C695.61 36.5 696.34 38.34 697.71 39.02C698.62 39.48 699.85 39.42 701.36 38.83C716.28 30.32 733.71 22.97 738.01 27.84C738.81 28.75 739.77 30.77 737.22 34.17C721.73 51.23 720.59 55.1 719.6 58.51C719.38 59.25 719.17 59.98 718.86 60.78C717 65.54 698.47 78.18 693.49 81.52C682.64 114.6 659.86 117.12 653.17 117.12ZM651.52 113.32C651.59 113.32 651.65 113.32 651.71 113.33C652.8 113.45 678.63 115.74 690.12 79.76C690.25 79.36 690.51 79.01 690.86 78.77C702.12 71.28 714.36 61.99 715.37 59.41C715.64 58.72 715.82 58.09 716.01 57.45C717.12 53.65 718.38 49.34 734.33 31.8C735.14 30.7 735.12 30.17 735.12 30.16C733.99 29.26 724.13 30.1 703.07 42.13C703 42.17 702.92 42.21 702.84 42.24C700.24 43.28 697.95 43.31 696.01 42.34C693.92 41.29 692.44 39.16 691.61 36.02C690.39 31.38 688.75 27.57 686.59 24.35L685.55 22.79C679.48 13.65 673.75 5.00997 651.47 4.17997C629.25 5.00997 623.52 13.65 617.45 22.79L616.41 24.35C614.25 27.56 612.61 31.38 611.39 36.02C610.56 39.16 609.08 41.29 606.99 42.34C605.06 43.31 602.76 43.28 600.16 42.24C600.08 42.21 600 42.17 599.93 42.13C579.04 30.19 569.17 29.27 567.83 30.29C567.89 30.32 567.98 30.86 568.79 31.93C584.66 49.36 585.92 53.67 587.03 57.47C587.22 58.11 587.4 58.74 587.67 59.43C588.68 62 600.92 71.3 612.18 78.79C612.53 79.02 612.79 79.37 612.92 79.78C624.41 115.76 650.23 113.47 651.33 113.35C651.39 113.33 651.46 113.32 651.52 113.32ZM702.16 40.53H702.18H702.16Z" fill="#219653"/>
<path d="M671.74 40.53C671.62 40.53 671.5 40.52 671.37 40.49C670.36 40.29 669.71 39.31 669.91 38.3C671.81 28.78 680.2 14.5 680.55 13.9C681.07 13.01 682.22 12.72 683.1 13.24C683.99 13.76 684.28 14.91 683.76 15.79C683.68 15.93 675.34 30.13 673.56 39.03C673.39 39.91 672.61 40.53 671.74 40.53Z" fill="#219653"/>
<path d="M631.82 40.53C630.95 40.53 630.17 39.92 629.99 39.03C628.21 30.13 619.88 15.93 619.79 15.79C619.27 14.9 619.56 13.76 620.45 13.24C621.34 12.71 622.48 13.01 623 13.9C623.36 14.5 631.74 28.78 633.64 38.3C633.84 39.31 633.19 40.29 632.18 40.49C632.06 40.51 631.94 40.53 631.82 40.53Z" fill="#219653"/>
<path d="M651.51 44.72C650.22 44.72 649.18 43.68 649.18 42.39V2.33C649.18 1.04 650.22 0 651.51 0C652.8 0 653.84 1.04 653.84 2.33V42.39C653.84 43.68 652.8 44.72 651.51 44.72Z" fill="#219653"/>
<path d="M107 39.8L70 90.2V90.4L33.2 39.8H9.4L56.8 104.6L58.2 106.4V106.6L60 109L60.6 109.8V173H79.6V109.6L80.2 109L82 106.6V106.4L83.4 104.6L130.8 39.8H107ZM205.492 59.2C231.492 59.2 252.692 80.6 252.692 106.6C252.692 132.8 231.492 154 205.492 154C179.292 154 158.092 132.8 158.092 106.6C158.092 80.6 179.292 59.2 205.492 59.2ZM138.892 106.6C138.892 143.4 168.692 173 205.492 173C242.092 173 271.892 143.4 271.892 106.6C271.892 69.8 242.092 40.2 205.492 40.2C168.692 40.2 138.892 69.8 138.892 106.6ZM409.845 97.6C405.245 65.4 377.845 40.6 344.645 40.2H290.845V59.4H345.845C355.845 60 365.045 63.4 372.445 69C381.645 76 388.045 86 390.445 97.6C391.045 100.6 391.445 103.8 391.445 107C391.445 110.2 391.045 113.6 390.245 116.8C386.245 136 370.445 151 350.645 154H310.045V69H290.845V173H352.045C381.845 169.4 405.445 146.2 409.845 116.8C410.245 113.6 410.445 110.2 410.445 107C410.445 103.8 410.245 100.6 409.845 97.6ZM412.042 173H437.442L479.642 97L467.042 74L412.042 173ZM498.642 62.6L485.842 39.8L473.242 62.6L485.842 85.4L534.442 173H559.642L498.642 62.6ZM798.314 154C775.514 154 756.514 137.8 751.914 116.2C751.314 113 750.914 109.8 750.914 106.4C750.914 103.2 751.314 100 751.914 97C756.114 75.4 775.514 59 798.314 59C818.114 59 834.914 70.8 842.114 87.8H862.514C854.514 60 828.714 39.8 798.314 39.8C764.714 39.8 736.914 64.6 732.314 97C731.914 100.2 731.714 103.2 731.714 106.4C731.714 109.8 731.914 113 732.514 116.2C737.114 148.4 764.914 173 798.314 173C828.114 173 853.114 153.8 861.914 127H841.114C833.514 143 817.314 154 798.314 154ZM948.119 59.2C974.119 59.2 995.319 80.6 995.319 106.6C995.319 132.8 974.119 154 948.119 154C921.919 154 900.719 132.8 900.719 106.6C900.719 80.6 921.919 59.2 948.119 59.2ZM881.519 106.6C881.519 143.4 911.319 173 948.119 173C984.719 173 1014.52 143.4 1014.52 106.6C1014.52 69.8 984.719 40.2 948.119 40.2C911.319 40.2 881.519 69.8 881.519 106.6ZM1033.47 173V40H1052.67V173H1033.47ZM1052.07 40.6H1034.07V172.4H1052.07V40.6ZM1033.47 40V173H1052.67V40H1033.47ZM1071.75 173H1090.95V99.8L1071.75 80.6V173ZM1158.15 40.2V126.2L1071.75 40V67L1090.95 86.2L1158.15 153.4L1177.15 172.4V40.2H1158.15ZM1275.76 97H1237.76C1236.76 97 1235.56 97 1234.56 97C1233.76 97 1233.16 97 1232.56 97C1222.96 96 1215.56 88 1215.56 78.2C1215.56 67.8 1223.96 59.4 1234.36 59.4H1276.56C1286.36 59.8 1294.16 67.4 1294.76 77.2H1313.96C1313.76 70.8 1311.96 64.6 1308.96 59.4C1308.96 59.4 1308.96 59.4 1308.76 59.4C1302.36 48.2 1290.56 40.6 1276.76 40.2C1276.36 40.2 1276.16 40.2 1275.76 40.2C1275.56 40.2 1275.16 40.2 1274.76 40.2H1234.36C1220.36 40.2 1207.96 48 1201.36 59.4C1198.16 65 1196.36 71.4 1196.36 78.2C1196.36 85 1198.16 91.6 1201.36 97C1202.96 99.8 1204.96 102.4 1207.16 104.6C1213.96 111.8 1223.76 116.2 1234.36 116.2H1275.76C1286.16 116.2 1294.76 124.6 1294.76 135C1294.76 145.4 1286.16 154 1275.76 154H1234.56C1224.36 154 1216.16 146 1215.56 136H1196.36C1196.56 142.6 1198.36 148.6 1201.36 154C1207.96 165.4 1220.36 173 1234.56 173H1275.76C1289.96 173 1302.36 165.4 1308.96 154C1311.96 148.4 1313.96 142 1313.96 135C1313.96 128.2 1311.96 121.8 1308.96 116.2C1302.36 104.8 1289.96 97 1275.76 97Z" fill="#219653"/>
</svg>
