<?xml version="1.0" encoding="UTF-8" standalone="no"?>
<svg
   xmlns:dc="http://purl.org/dc/elements/1.1/"
   xmlns:cc="http://creativecommons.org/ns#"
   xmlns:rdf="http://www.w3.org/1999/02/22-rdf-syntax-ns#"
   xmlns:svg="http://www.w3.org/2000/svg"
   xmlns="http://www.w3.org/2000/svg"
   xmlns:sodipodi="http://sodipodi.sourceforge.net/DTD/sodipodi-0.dtd"
   xmlns:inkscape="http://www.inkscape.org/namespaces/inkscape"
   version="1.1"
   id="Camada_1"
   x="0px"
   y="0px"
   viewBox="0 0 187 203"
   style="enable-background:new 0 0 187 203;"
   xml:space="preserve"
   sodipodi:docname="logo-white.svg"
   inkscape:version="1.0.1 (3bc2e813f5, 2020-09-07)"><metadata
   id="metadata82"><rdf:RDF><cc:Work
       rdf:about=""><dc:format>image/svg+xml</dc:format><dc:type
         rdf:resource="http://purl.org/dc/dcmitype/StillImage" /><dc:title></dc:title></cc:Work></rdf:RDF></metadata><defs
   id="defs80" /><sodipodi:namedview
   pagecolor="#ffffff"
   bordercolor="#666666"
   borderopacity="1"
   objecttolerance="10"
   gridtolerance="10"
   guidetolerance="10"
   inkscape:pageopacity="0"
   inkscape:pageshadow="2"
   inkscape:window-width="1600"
   inkscape:window-height="837"
   id="namedview78"
   showgrid="false"
   inkscape:zoom="3.1871921"
   inkscape:cx="93.5"
   inkscape:cy="101.5"
   inkscape:window-x="1358"
   inkscape:window-y="-8"
   inkscape:window-maximized="1"
   inkscape:current-layer="Camada_1" />
<g
   id="g75">
	<path
   d="M184.86,202.87H2.14c-0.58,0-1.13-0.27-1.49-0.74c-0.35-0.47-0.47-1.07-0.31-1.63l16.78-59.66   c0.11-0.38,0.33-0.71,0.64-0.96l47.14-37.29c0.81-0.64,1.98-0.5,2.62,0.31c0.64,0.81,0.5,1.98-0.3,2.62l-46.67,36.91L4.6,199.14   h177.72l-17.72-56.72l-44.33-36.94c-0.79-0.66-0.9-1.83-0.24-2.63c0.66-0.79,1.83-0.9,2.63-0.24l44.75,37.29   c0.28,0.23,0.48,0.53,0.59,0.88l18.64,59.66c0.18,0.57,0.07,1.18-0.28,1.66C186.01,202.58,185.45,202.87,184.86,202.87z"
   id="path47"
   style="fill:#ffffff" />
	<path
   d="M54.76,202.87c-0.73,0-1.43-0.43-1.72-1.15L34.91,157.9c-0.39-0.95,0.06-2.04,1.01-2.44c0.95-0.39,2.04,0.06,2.44,1.01   l18.12,43.82c0.39,0.95-0.06,2.04-1.01,2.44C55.24,202.82,54.99,202.87,54.76,202.87z"
   id="path49"
   style="fill:#ffffff" />
	<path
   d="M131.72,202.87c-0.24,0-0.48-0.05-0.71-0.14c-0.95-0.39-1.4-1.48-1.01-2.44l18.12-43.82c0.39-0.95,1.48-1.4,2.44-1.01   c0.95,0.39,1.4,1.48,1.01,2.44l-18.12,43.82C133.15,202.43,132.45,202.87,131.72,202.87z"
   id="path51"
   style="fill:#ffffff" />
	<path
   d="M90.7,202.87c-1.03,0-1.86-0.83-1.86-1.86v-27.04c0-0.45,0.16-0.88,0.46-1.22l36.36-41.95c0.68-0.78,1.85-0.86,2.63-0.19   c0.78,0.67,0.86,1.85,0.19,2.63l-35.9,41.43V201C92.57,202.03,91.73,202.87,90.7,202.87z"
   id="path53"
   style="fill:#ffffff" />
	<path
   d="M90.7,202.87c-1.03,0-1.86-0.83-1.86-1.86v-26.34l-37.76-43.29c-0.68-0.78-0.6-1.95,0.18-2.63   c0.78-0.68,1.95-0.6,2.63,0.18l38.22,43.82c0.3,0.34,0.46,0.77,0.46,1.23V201C92.57,202.03,91.73,202.87,90.7,202.87z"
   id="path55"
   style="fill:#ffffff" />
	<path
   d="M53.41,62.1c-0.43,0-0.86-0.15-1.21-0.45c-0.78-0.67-0.87-1.85-0.2-2.63c0.55-0.64,13.63-15.78,25.6-14.77   c4.5,0.38,8.19,2.93,10.98,7.57c0.53,0.88,0.24,2.03-0.64,2.56c-0.88,0.53-2.03,0.24-2.56-0.64c-2.16-3.61-4.81-5.5-8.09-5.77   C67.21,47.11,54.95,61.3,54.83,61.45C54.46,61.88,53.94,62.1,53.41,62.1z"
   id="path57"
   style="fill:#ffffff" />
	<path
   d="M133.59,62.1c-0.53,0-1.05-0.22-1.42-0.65c-0.12-0.14-12.44-14.34-22.46-13.49c-3.28,0.28-5.92,2.17-8.09,5.77   c-0.53,0.88-1.68,1.17-2.56,0.64c-0.88-0.53-1.17-1.68-0.64-2.56c2.79-4.64,6.48-7.19,10.98-7.57c11.92-1,25.04,14.13,25.6,14.77   c0.67,0.78,0.58,1.96-0.2,2.63C134.45,61.95,134.02,62.1,133.59,62.1z"
   id="path59"
   style="fill:#ffffff" />
	<ellipse
   cx="110.28"
   cy="63.03"
   rx="7.46"
   ry="3.73"
   id="ellipse61"
   style="fill:#ffffff" />
	<ellipse
   cx="76.72"
   cy="63.03"
   rx="7.46"
   ry="3.73"
   id="ellipse63"
   style="fill:#ffffff" />
	<path
   d="M93.08,141.65c-3.61,0-7.21-0.38-10.78-1.13c-19.76-4.15-44.7-11.66-51.35-23.89c-1.98-3.65-2.23-7.48-0.72-11.4   c3.41-8.88,12.04-15.27,25.63-19c0.99-0.27,2.02,0.31,2.29,1.3c0.27,0.99-0.31,2.02-1.3,2.29c-12.39,3.4-20.17,9.03-23.14,16.74   c-1.11,2.89-0.94,5.59,0.52,8.27c4.59,8.44,22.39,16.46,48.84,22.02c6.97,1.46,14.06,1.39,21.07-0.22   c15.63-3.6,42.85-11.59,49.95-24.77c0.86-2.66,0.67-5.14-0.59-7.57c-2.77-5.35-10.69-10.19-22.31-13.64   c-0.99-0.29-1.55-1.33-1.26-2.32c0.29-0.99,1.33-1.55,2.32-1.26c8.91,2.64,20.4,7.48,24.56,15.49c1.75,3.37,2,6.95,0.76,10.62   c-0.03,0.09-0.07,0.18-0.12,0.27c-7.68,14.58-36.18,23.05-52.48,26.8C101.03,141.19,97.05,141.65,93.08,141.65z"
   id="path65"
   style="fill:#ffffff" />
	<path
   d="M95.44,117.25c-0.79,0-1.35-0.04-1.65-0.06c-2.8,0.23-29.84,1.44-41.95-35.53c-4.99-3.34-23.51-15.98-25.37-20.74   c-0.31-0.8-0.53-1.52-0.74-2.27c-1-3.41-2.13-7.29-17.5-24.19c-2.66-3.53-1.7-5.56-0.9-6.47c4.3-4.87,21.73,2.47,36.65,10.99   c1.51,0.59,2.74,0.65,3.65,0.19c1.36-0.69,2.09-2.52,2.47-3.94c1.33-5.05,3.14-9.23,5.53-12.8l1.03-1.54   C62.96,11.35,69.5,1.51,93.68,0.6c0.04,0,0.08,0,0.11,0c24.29,0.9,30.83,10.75,37.16,20.28l1.03,1.54   c2.39,3.56,4.2,7.75,5.53,12.79c0.37,1.42,1.1,3.26,2.47,3.94c0.91,0.46,2.14,0.4,3.65-0.19c14.92-8.51,32.35-15.86,36.65-10.99   c0.8,0.91,1.76,2.93-0.79,6.33C164,51.36,162.86,55.23,161.87,58.64c-0.22,0.74-0.43,1.47-0.74,2.27   c-1.86,4.76-20.39,17.4-25.37,20.74C124.91,114.73,102.13,117.25,95.44,117.25z M93.79,113.45c0.07,0,0.13,0,0.19,0.01   c1.09,0.12,26.92,2.41,38.41-33.57c0.13-0.4,0.39-0.75,0.74-0.99c11.26-7.49,23.5-16.78,24.51-19.36c0.27-0.69,0.45-1.32,0.64-1.96   c1.11-3.8,2.37-8.11,18.32-25.65c0.81-1.1,0.79-1.63,0.79-1.64c-1.13-0.9-10.99-0.06-32.05,11.97c-0.07,0.04-0.15,0.08-0.23,0.11   c-2.6,1.04-4.89,1.07-6.83,0.1c-2.09-1.05-3.57-3.18-4.4-6.32c-1.22-4.64-2.86-8.45-5.02-11.67l-1.04-1.56   c-6.07-9.14-11.8-17.78-34.08-18.61c-22.22,0.83-27.95,9.47-34.02,18.61l-1.04,1.56c-2.16,3.21-3.8,7.03-5.02,11.67   c-0.83,3.14-2.31,5.27-4.4,6.32c-1.93,0.97-4.23,0.94-6.83-0.1c-0.08-0.03-0.16-0.07-0.23-0.11   c-20.89-11.94-30.76-12.86-32.1-11.84c0.06,0.03,0.15,0.57,0.96,1.64C26.93,49.49,28.19,53.8,29.3,57.6   c0.19,0.64,0.37,1.27,0.64,1.96c1.01,2.57,13.25,11.87,24.51,19.36c0.35,0.23,0.61,0.58,0.74,0.99   c11.49,35.98,37.31,33.69,38.41,33.57C93.66,113.46,93.73,113.45,93.79,113.45z M144.43,40.66h0.02H144.43z"
   id="path67"
   style="fill:#ffffff" />
	<path
   d="M114.01,40.66c-0.12,0-0.24-0.01-0.37-0.04c-1.01-0.2-1.66-1.18-1.46-2.19c1.9-9.52,10.29-23.8,10.64-24.4   c0.52-0.89,1.67-1.18,2.55-0.66c0.89,0.52,1.18,1.67,0.66,2.55c-0.08,0.14-8.42,14.34-10.2,23.24   C115.66,40.04,114.88,40.66,114.01,40.66z"
   id="path69"
   style="fill:#ffffff" />
	<path
   d="M74.09,40.66c-0.87,0-1.65-0.61-1.83-1.5c-1.78-8.9-10.11-23.1-10.2-23.24c-0.52-0.89-0.23-2.03,0.66-2.55   c0.89-0.53,2.03-0.23,2.55,0.66c0.36,0.6,8.74,14.88,10.64,24.4c0.2,1.01-0.45,1.99-1.46,2.19C74.33,40.64,74.21,40.66,74.09,40.66   z"
   id="path71"
   style="fill:#ffffff" />
	<path
   d="M93.78,44.85c-1.29,0-2.33-1.04-2.33-2.33V2.46c0-1.29,1.04-2.33,2.33-2.33c1.29,0,2.33,1.04,2.33,2.33v40.06   C96.11,43.81,95.07,44.85,93.78,44.85z"
   id="path73"
   style="fill:#ffffff" />
</g>
</svg>
