<svg width="477" height="352" viewBox="0 0 477 352" fill="none" xmlns="http://www.w3.org/2000/svg">
<g clip-path="url(#clip0)">
<path opacity="0.1" d="M474.012 242.477C469.226 256.001 459.213 268.217 448.464 279.786C439.015 289.958 428.907 299.787 418.141 309.274C415.158 311.907 412.127 314.508 409.048 317.076L406.909 318.848C405.013 320.425 403.084 321.987 401.123 323.534L400.888 323.722C398.985 325.243 397.066 326.749 395.131 328.24C388.798 333.128 382.104 337.982 374.704 342.001C372.183 343.374 369.582 344.653 366.888 345.798C365.432 346.42 363.944 347.003 362.426 347.546C359.938 348.435 357.383 349.21 354.715 349.847C354.27 349.956 353.82 350.06 353.37 350.158C350.639 350.761 347.874 351.2 345.08 351.501C334.839 352.602 324.262 351.798 314.005 349.911C308.879 348.968 303.832 347.754 298.949 346.371C298.348 346.203 297.752 346.03 297.151 345.877C280.523 340.989 264.912 334.353 248.167 329.686C242.396 328.077 236.513 326.711 230.518 325.588C227.593 325.042 224.652 324.548 221.694 324.107C214.731 323.09 207.68 322.408 200.599 322.063C191.052 321.569 181.194 321.781 172.109 323.742C170.899 324.002 169.704 324.295 168.525 324.62C167.029 325.032 165.561 325.501 164.121 326.028C160.239 327.501 156.461 329.329 152.822 331.494C152.103 331.908 151.393 332.328 150.683 332.753C148.456 334.086 146.258 335.449 144.027 336.772C140.011 339.242 135.831 341.326 131.53 343.004C129.173 343.878 126.777 344.597 124.352 345.156C117.936 346.667 111.107 347.265 104.25 347.304C100.943 347.304 97.6313 347.22 94.3579 347.018H94.257C93.1393 346.949 92.0173 346.87 90.8954 346.771C85.7856 346.361 80.6927 345.729 75.6754 344.865C58.4847 341.902 42.1806 336.303 29.0658 327.761C11.2532 316.167 -0.0588192 298.88 1.63882 281.608C2.85743 269.165 10.4254 257.611 17.6068 246.298C30.9652 225.234 43.479 203.691 50.0637 180.982C55.4045 162.55 56.9971 143.061 69.2882 126.494C73.2256 121.191 78.2597 116.352 84.1216 112.111C88.5032 108.959 93.0959 106.231 97.854 103.954C103.232 101.366 108.764 99.2448 114.406 97.6088C119.296 96.1834 124.251 95.0887 129.248 94.3302C131.962 93.9154 134.711 93.5945 137.475 93.3772C139.605 93.2028 141.743 93.0925 143.892 93.0464H144.224C145.538 93.0168 146.852 93.0168 148.166 93.0464C157.746 93.2207 167.3 94.2756 176.74 96.2016C182.648 97.362 188.506 98.784 194.242 100.349C197.665 101.281 201.057 102.257 204.419 103.277C205.444 103.588 206.47 103.904 207.482 104.225C231.401 111.755 252.445 122.154 275.489 130.687C275.607 130.731 275.72 130.775 275.838 130.81C280.567 132.519 285.37 133.937 290.226 135.056C293.793 135.896 297.441 136.622 301.151 137.259C306.832 138.246 312.635 139.026 318.48 139.698L319.77 139.846C328.347 140.834 336.999 141.569 345.403 142.429C348.387 142.735 351.345 143.051 354.261 143.416C356.11 143.633 357.942 143.864 359.758 144.107C361.06 144.285 362.367 144.463 363.674 144.65C364.981 144.838 366.363 145.036 367.708 145.238C368.582 145.366 369.452 145.5 370.326 145.643C375.62 146.468 380.902 147.391 386.126 148.448C389.302 149.089 392.462 149.781 395.585 150.526C397.845 151.066 400.086 151.636 402.308 152.235C403.955 152.673 405.588 153.133 407.207 153.617C420.364 157.503 432.676 162.599 443.287 169.477C470.84 187.298 483.169 216.613 474.012 242.477Z" fill="#00BF6B"/>
<path opacity="0.1" d="M104.628 44.6369C109.648 44.6369 113.717 39.8552 113.717 33.9566C113.717 28.0581 109.648 23.2764 104.628 23.2764C99.608 23.2764 95.5387 28.0581 95.5387 33.9566C95.5387 39.8552 99.608 44.6369 104.628 44.6369Z" fill="#00BF6B"/>
<path opacity="0.1" d="M290.406 21.3606C295.426 21.3606 299.495 16.5788 299.495 10.6803C299.495 4.78173 295.426 0 290.406 0C285.386 0 281.317 4.78173 281.317 10.6803C281.317 16.5788 285.386 21.3606 290.406 21.3606Z" fill="#00BF6B"/>
<path opacity="0.1" d="M400.564 45.2789C405.584 45.2789 409.653 40.4972 409.653 34.5986C409.653 28.7001 405.584 23.9183 400.564 23.9183C395.544 23.9183 391.475 28.7001 391.475 34.5986C391.475 40.4972 395.544 45.2789 400.564 45.2789Z" fill="#00BF6B"/>
<path opacity="0.1" d="M15.2326 77.6949C23.6453 77.6949 30.4651 69.6812 30.4651 59.7957C30.4651 49.9102 23.6453 41.8965 15.2326 41.8965C6.81985 41.8965 0 49.9102 0 59.7957C0 69.6812 6.81985 77.6949 15.2326 77.6949Z" fill="#00BF6B"/>
<path opacity="0.1" d="M29.8348 166.08C38.2475 166.08 45.0674 158.066 45.0674 148.181C45.0674 138.295 38.2475 130.282 29.8348 130.282C21.4221 130.282 14.6022 138.295 14.6022 148.181C14.6022 158.066 21.4221 166.08 29.8348 166.08Z" fill="#00BF6B"/>
<path opacity="0.1" d="M438.664 133.545C447.077 133.545 453.897 125.532 453.897 115.646C453.897 105.761 447.077 97.7471 438.664 97.7471C430.252 97.7471 423.432 105.761 423.432 115.646C423.432 125.532 430.252 133.545 438.664 133.545Z" fill="#00BF6B"/>
<path d="M148.901 118.184C148.976 119.687 148.902 121.195 148.678 122.678C147.838 127.265 144.283 130.415 140.841 132.805C137.4 135.195 133.618 137.456 131.572 141.49C129.105 146.364 129.891 152.916 132.786 157.469C135.681 162.021 140.27 164.732 144.993 165.863C153.607 167.951 163.041 165.018 169.5 158.007C175.958 150.995 179.198 140.039 177.614 129.862C174.109 130.44 170.987 126.805 169.853 122.865C168.718 118.925 168.953 114.654 168.512 110.521C168.48 109.822 168.301 109.144 167.991 108.546C167.499 107.746 166.63 107.42 165.819 107.158C161.768 105.85 154.952 102.986 150.754 104.082C146.972 105.099 148.838 114.451 148.901 118.184Z" fill="#BE6F72"/>
<path opacity="0.1" d="M148.901 118.184C148.976 119.687 148.902 121.195 148.678 122.678C147.838 127.265 144.283 130.415 140.841 132.805C137.4 135.195 133.618 137.456 131.572 141.49C129.105 146.364 129.891 152.916 132.786 157.469C135.681 162.021 140.27 164.732 144.993 165.863C153.607 167.951 163.041 165.018 169.5 158.007C175.958 150.995 179.198 140.039 177.614 129.862C174.109 130.44 170.987 126.805 169.853 122.865C168.718 118.925 168.953 114.654 168.512 110.521C168.48 109.822 168.301 109.144 167.991 108.546C167.499 107.746 166.63 107.42 165.819 107.158C161.768 105.85 154.952 102.986 150.754 104.082C146.972 105.099 148.838 114.451 148.901 118.184Z" fill="black"/>
<path d="M144.006 336.782C139.99 339.252 135.81 341.336 131.509 343.013C129.152 343.888 126.756 344.607 124.331 345.166C124.16 341.369 124.336 337.562 124.857 333.809C125.184 331.652 125.668 329.514 125.794 327.326C125.972 324.169 125.397 321.016 124.134 318.221C128.815 317.471 133.261 316.246 137.963 316.606L138.261 316.631C138.82 316.648 139.374 316.769 139.9 316.992C140.624 317.403 141.238 318.038 141.678 318.828C141.92 319.216 142.143 319.62 142.346 320.038C143.674 322.734 144.178 325.845 144.283 329.049C144.332 331.631 144.24 334.214 144.006 336.782Z" fill="#BE6F72"/>
<path d="M168.508 324.625C167.012 325.037 165.544 325.506 164.104 326.033C160.222 327.506 156.444 329.334 152.805 331.499C152.568 330.154 152.453 328.783 152.46 327.41C154.605 325.672 157.025 324.459 159.577 323.842C162.129 323.225 164.76 323.218 167.314 323.82C167.656 323.869 167.981 324.022 168.256 324.265C168.355 324.369 168.441 324.49 168.508 324.625Z" fill="#BE6F72"/>
<path d="M175.731 299.7C175.446 302.929 175.025 306.168 174.05 309.205C172.996 312.464 171.281 315.624 171.5 319.105C171.596 320.616 172.033 322.255 172.096 323.751C170.886 324.011 169.691 324.304 168.512 324.63C167.016 325.042 165.548 325.511 164.108 326.037C160.227 327.511 156.449 329.339 152.809 331.504C152.09 331.918 151.38 332.338 150.67 332.763C150.376 332.718 150.086 332.664 149.792 332.6C147.691 332.15 145.48 331.044 144.291 329.069C144.019 328.615 143.805 328.116 143.657 327.588C142.972 325.183 143.686 322.186 142.262 320.28L142.194 320.349L142.144 320.389C141.364 321.219 140.507 321.945 139.589 322.551C137.5 323.94 135.187 324.798 132.798 325.069C130.409 325.339 127.998 325.016 125.722 324.122C124.821 323.761 123.95 323.301 123.121 322.749C121.197 321.46 119.339 319.293 119.491 316.705C119.575 315.263 120.276 313.881 120.087 312.454C119.949 311.432 119.377 310.582 118.948 309.679C116.137 303.754 119.491 296.135 117.726 289.696C117.684 289.543 117.637 289.39 117.591 289.242C117.461 288.822 117.314 288.417 117.171 288.012C116.81 287.069 116.406 286.141 116.087 285.173C115.821 284.359 115.61 283.522 115.457 282.67C115.06 280.193 114.919 277.67 115.036 275.154C115.036 268.523 116.045 261.734 117.482 255.344C117.738 254.209 118.024 252.604 118.402 250.856C118.771 249.013 119.268 247.21 119.89 245.464C120.73 243.192 121.873 241.38 123.436 240.951C125.789 240.304 129.386 241.672 131.773 242.007L141.207 243.331L160.07 245.982C163.327 246.441 166.747 246.97 169.432 249.123C169.609 249.266 169.781 249.414 169.953 249.572C170.663 250.229 171.298 250.989 171.844 251.833C172.038 252.125 172.223 252.431 172.399 252.742C173.011 253.843 173.532 255.01 173.954 256.228C176.294 262.835 176.349 270.207 176.366 277.362C176.366 284.827 176.387 292.288 175.731 299.7Z" fill="#3F3D56"/>
<path opacity="0.1" d="M139.568 322.581C139.001 320.013 137.803 316.295 137.627 315.283C137.035 311.887 136.605 308.455 136.341 305.003C135.875 298.85 135.034 290.19 136.883 284.338C138.618 285.425 140.144 288.501 140.946 290.599C143.854 298.208 140.581 307.551 143.312 315.248C143.516 315.71 143.643 316.212 143.686 316.73C143.639 317.387 143.438 318.015 143.106 318.547L142.186 320.344L139.568 322.581Z" fill="black"/>
<path d="M200.087 87.6741C203.179 81.7488 207.415 75.9223 207.15 68.9947C207.054 66.5259 206.365 64.1113 205.839 61.6918C204.334 54.6894 204.235 47.3717 205.549 40.3165C210.746 39.3355 216.064 40.7353 220.408 44.2271C221.782 45.3431 223.085 46.7306 223.69 48.5625C224.249 50.2512 224.156 52.1324 224.055 53.9396C223.824 58.0922 223.509 62.5214 221.332 65.7901C220.656 66.8123 219.824 67.6764 219.164 68.7083C218.202 70.1897 217.639 71.9969 217.088 73.7596L209.945 96.5966C206.339 108.106 202.431 120.145 194.489 128.109C194.296 128.302 188.607 118.806 188.136 117.853C186.232 113.948 187.064 112.299 189.367 109.03C193.91 102.566 196.376 94.7696 200.087 87.6741Z" fill="#BE6F72"/>
<path d="M118.222 282.324C118.197 284.029 118.075 285.729 117.856 287.415C117.78 288.037 117.692 288.654 117.587 289.271C116.154 298.06 112.587 306.42 110.09 314.982C106.8 326.284 105.355 336.091 104.208 347.314C100.901 347.314 97.5893 347.23 94.3158 347.028H94.215C93.0972 346.959 91.9753 346.88 90.8533 346.781C91.866 336.313 90.0129 325.331 91.824 314.854C92.5552 310.637 93.8032 306.543 94.5554 302.346C94.7872 301.111 94.9626 299.861 95.0806 298.603C95.1857 297.409 95.2403 296.169 95.6983 295.093C95.7402 294.989 95.7879 294.888 95.8412 294.792C96.2436 294.047 96.7426 293.38 97.3203 292.817C102.44 287.541 108.703 284.032 115.415 282.679C116.368 282.526 117.297 282.398 118.222 282.324Z" fill="#FBBEBE"/>
<path opacity="0.1" d="M118.222 282.324C118.197 284.029 118.075 285.729 117.856 287.415C117.78 288.037 117.692 288.654 117.587 289.271C116.154 298.06 112.587 306.42 110.09 314.982C106.8 326.284 105.355 336.091 104.208 347.314C100.901 347.314 97.5893 347.23 94.3158 347.028H94.215C93.0972 346.959 91.9753 346.88 90.8533 346.781C91.866 336.313 90.0129 325.331 91.824 314.854C92.5552 310.637 93.8032 306.543 94.5554 302.346C94.7872 301.111 94.9626 299.861 95.0806 298.603C95.1857 297.409 95.2403 296.169 95.6983 295.093C95.7402 294.989 95.7879 294.888 95.8412 294.792C96.2436 294.047 96.7426 293.38 97.3203 292.817C102.44 287.541 108.703 284.032 115.415 282.679C116.368 282.526 117.297 282.398 118.222 282.324Z" fill="black"/>
<path d="M96.917 304.825C96.849 307.569 96.6569 310.307 96.3413 313.027C95.2193 324.141 95.0092 335.74 94.2403 347.023C93.1225 346.954 92.0005 346.875 90.8786 346.776C85.7688 346.366 80.6759 345.734 75.6586 344.87C76.0452 342.329 76.4346 339.787 76.8268 337.246C77.3058 334.13 77.7849 330.985 77.6462 327.825C77.5159 324.838 76.8352 321.929 76.2931 319.001C75.1376 312.73 74.4904 305.966 72.5869 300.05C71.5941 296.732 70.0096 293.702 67.9394 291.162C75.8141 287.528 83.3821 287.321 91.8409 287.706C92.4414 287.667 93.0382 287.839 93.5553 288.2C93.9562 288.608 94.2541 289.137 94.4167 289.73C95.6878 293.323 96.4856 297.123 96.7825 300.998C96.8836 302.27 96.9285 303.548 96.917 304.825Z" fill="#FBBEBE"/>
<path d="M160.347 115.636C169.398 115.636 176.736 107.015 176.736 96.3793C176.736 85.7439 169.398 77.1222 160.347 77.1222C151.297 77.1222 143.959 85.7439 143.959 96.3793C143.959 107.015 151.297 115.636 160.347 115.636Z" fill="#BE6F72"/>
<path d="M163.755 141.387C165.856 137.175 167.697 131.916 171.739 130.746C174.021 130.079 176.395 130.988 178.618 131.882C179.262 132.061 179.847 132.459 180.299 133.027C180.627 133.639 180.803 134.348 180.807 135.071C181.511 143.776 181.487 152.542 180.736 161.241C180.202 167.399 179.303 173.526 179.143 179.713C178.921 188.29 180.122 196.867 179.727 205.434C179.429 211.927 178.219 218.306 177.017 224.651L171.975 251.216C171.884 252.038 171.604 252.815 171.164 253.463C170.738 253.921 170.23 254.259 169.676 254.45C162.377 257.482 154.618 258.682 146.901 257.972C139.183 257.262 131.677 254.657 124.869 250.327C123.05 249.152 121.234 247.794 120.049 245.79C118.369 242.946 118.213 239.183 118.759 235.776C119.306 232.369 120.486 229.155 121.281 225.812C122.508 220.627 122.798 215.215 123.075 209.843C123.445 202.772 123.815 195.657 123.172 188.611C122.73 183.757 121.81 178.977 121.117 174.163C120.096 166.907 119.503 159.577 119.343 152.225C119.238 147.835 119.411 142.962 121.995 139.797C123.256 138.256 124.936 137.328 126.647 136.577C129.517 135.333 132.723 134.602 135.622 135.738C138.522 136.874 140.858 140.448 140.173 143.949C139.858 145.574 138.963 146.996 138.745 148.645C138.455 150.828 139.438 153.025 140.846 154.501C148.418 162.54 159.978 149.01 163.755 141.387Z" fill="#E3E8F4"/>
<path d="M164.356 121.71C166.656 120.714 169.155 120.543 171.538 121.216C173.055 121.641 174.693 122.391 176.093 121.596C176.601 121.31 177.021 120.841 177.534 120.574C178.921 119.858 180.719 120.737 181.946 119.695C182.719 119.039 182.972 117.844 183.232 116.757C184.494 111.572 187.08 106.967 190.64 103.564C190.199 107.351 189.88 111.662 192.01 114.555C192.981 115.869 194.342 116.693 195.721 117.335C197.7 118.258 199.872 118.871 201.961 118.367C204.049 117.863 206.003 116.007 206.335 113.533C206.264 117.251 203.251 119.848 202.406 123.438C202.087 124.781 202.116 126.208 201.894 127.581C201.326 131.087 199.196 133.901 197.334 136.725C191.389 145.81 187.591 156.578 186.325 167.942C186.239 169.29 185.998 170.619 185.61 171.892C185.199 172.868 184.733 173.812 184.215 174.716C181.135 180.829 182.085 188.542 183.131 195.524C184.766 206.461 186.396 217.176 189.044 227.836C189.497 229.658 190.01 231.559 191.166 232.888C190.8 237.198 187.098 239.163 183.77 241.025C180.484 242.866 177.453 245.278 174.777 248.18C173.819 249.217 172.874 250.382 172.525 251.858C172.197 253.246 172.433 254.771 172.012 256.119C171.592 257.467 169.911 258.435 169.172 257.3C168.247 253.236 169.827 248.984 169.756 244.778C169.706 241.938 168.916 239.178 168.802 236.339C168.693 233.125 169.5 229.969 170.357 226.918C172.744 218.42 175.626 210.001 176.454 201.108C177.282 192.216 175.736 182.503 170.365 176.158C163.991 168.593 160.453 158.338 153.62 151.39C152.536 150.289 151.309 148.922 151.49 147.253C151.614 146.518 151.89 145.83 152.292 145.248C154.637 141.357 157.755 138.182 160.276 134.459C162.797 130.736 164.814 126.45 164.356 121.71Z" fill="#3F3D56"/>
<path d="M141.921 129.674C141.501 130.168 141.211 130.85 140.724 131.274C140.154 131.687 139.505 131.923 138.837 131.96C136.364 132.402 133.87 132.664 131.37 132.746C129.269 132.746 127.088 132.528 125.067 133.205C122.247 134.143 119.995 136.76 118.583 139.772C117.171 142.784 116.503 146.191 115.961 149.583C114.766 157.057 114.126 164.639 114.049 172.242C117.512 168.997 120.599 165.232 123.23 161.044C125.247 157.829 127.075 154.274 129.954 152.126C131.277 151.139 132.765 150.487 134.097 149.524C136.875 147.514 138.799 144.265 140.648 141.13C142.01 138.804 145.947 134.261 146.258 131.477C146.523 128.815 143.392 127.517 141.921 129.674Z" fill="#3F3D56"/>
<path d="M156.561 83.1956C157.08 83.5619 157.577 83.9694 158.049 84.4153C160.902 86.7557 164.722 86.3212 168.172 85.7879C169.231 85.6299 170.319 85.4522 171.227 84.8004C172.685 83.7437 173.37 81.5711 173.227 79.5615C173.084 77.5518 172.223 75.7002 171.172 74.13C169.78 72.0521 168.044 70.3278 166.069 69.0615C164.093 67.7951 161.92 67.0132 159.679 66.7629C158.519 66.5843 157.34 66.7315 156.238 67.1925C154.881 67.8492 153.859 69.2021 152.607 70.1058C148.914 72.7721 143.224 71.5871 140.841 75.8434C139.097 78.9838 140.341 83.25 139.518 86.8594C138.904 89.5554 137.135 92.0095 137.475 94.7598C137.665 96.2411 138.455 97.5348 139.085 98.8581C140.532 101.9 141.202 105.369 141.014 108.847C142.631 110.19 144.888 108.101 145.338 105.84C145.787 103.579 145.27 101.169 145.653 98.8877C146.329 94.8832 149.338 91.9453 150.695 88.2716C151.67 85.6398 153.259 81.1959 156.561 83.1956Z" fill="#3F3D56"/>
<path d="M116.826 127.028C116.7 127.926 116.621 128.919 117.045 129.679C117.885 131.161 119.81 130.627 121.323 130.85C123.68 131.19 125.42 133.812 125.878 136.567C126.336 139.323 125.789 142.127 125.193 144.833C123.843 150.966 122.235 157.011 120.369 162.969C115.351 162.273 110.069 160.007 107.405 154.975C104.985 150.398 105.233 144.567 103.695 139.491C102.615 135.916 100.678 132.805 98.7617 129.753C101.842 130.208 104.044 126.07 104.224 122.426C104.405 118.782 103.43 115.083 104.094 111.523C104.25 110.679 116.389 113.34 117.57 114.303C120.982 117.083 117.364 123.166 116.826 127.028Z" fill="#FBBEBE"/>
<path opacity="0.1" d="M116.826 127.028C116.7 127.926 116.621 128.919 117.045 129.679C117.885 131.161 119.81 130.627 121.323 130.85C123.68 131.19 125.42 133.812 125.878 136.567C126.336 139.323 125.789 142.127 125.193 144.833C123.843 150.966 122.235 157.011 120.369 162.969C115.351 162.273 110.069 160.007 107.405 154.975C104.985 150.398 105.233 144.567 103.695 139.491C102.615 135.916 100.678 132.805 98.7617 129.753C101.842 130.208 104.044 126.07 104.224 122.426C104.405 118.782 103.43 115.083 104.094 111.523C104.25 110.679 116.389 113.34 117.57 114.303C120.982 117.083 117.364 123.166 116.826 127.028Z" fill="black"/>
<path d="M114.125 121.068C123.175 121.068 130.513 112.446 130.513 101.811C130.513 91.1754 123.175 82.5537 114.125 82.5537C105.074 82.5537 97.7364 91.1754 97.7364 101.811C97.7364 112.446 105.074 121.068 114.125 121.068Z" fill="#FBBEBE"/>
<path d="M109.078 124.263C109.674 123.166 108.658 121.636 109.124 120.456C109.401 119.745 110.103 119.438 110.645 118.974C111.325 118.324 111.867 117.498 112.229 116.56C114.781 110.799 115.553 104.176 114.414 97.8211C114.028 95.6881 113.683 92.8538 115.343 91.8959C115.803 91.6546 116.307 91.5527 116.81 91.5996C119.802 91.7132 122.693 94.0685 125.596 93.234C126.587 92.9173 127.472 92.2526 128.133 91.3287C128.794 90.4049 129.199 89.2659 129.294 88.0642C129.483 84.8744 127.449 82.1389 125.449 79.991C121.848 76.1001 116.36 75.236 111.469 75.1422L102.371 74.9644C99.4592 74.9052 96.1942 75.0138 94.1688 77.4679C91.2525 80.9983 92.7191 86.7755 92.2989 91.6687C91.9416 95.5742 90.279 99.153 87.6766 101.618C85.7898 103.386 83.1929 105.075 83.2266 107.899C83.2266 108.887 83.5879 109.785 83.8191 110.718C84.7477 114.412 83.8611 118.495 82.0794 121.73C80.2977 124.964 77.6924 127.452 74.9905 129.63C73.545 130.79 72.049 131.906 70.906 133.481C69.653 135.301 68.9089 137.531 68.7756 139.866C68.5958 141.65 68.908 143.455 69.6664 145.016C71.4439 148.354 75.709 148.843 78.6295 146.907C81.5499 144.971 83.3316 141.308 84.5124 137.624C85.2183 135.437 85.9369 132.933 87.7438 131.951C90.0297 130.701 92.7023 132.676 94.1898 135.071C95.6773 137.466 96.5934 140.389 98.4969 142.335C101.48 145.386 106.557 144.892 109.078 141.308C110.88 138.735 111.28 135.175 111.179 131.842C111.129 129.128 110.398 126.491 109.078 124.263Z" fill="#3F3D56"/>
<path d="M114.961 149.361C113.091 149.83 111.137 148.793 109.746 147.243C108.355 145.692 107.418 143.693 106.443 141.757C103.972 136.875 101.138 132.258 97.9759 127.961C95.2193 124.223 91.3828 120.426 87.29 121.581C85.9196 122.046 84.6481 122.845 83.5585 123.927C79.9498 127.284 77.1251 131.663 75.3488 136.653C73.5725 141.642 72.9027 147.08 73.4021 152.457C73.7215 155.602 74.4484 158.678 74.751 161.839C74.9548 164.443 75.0137 167.061 74.9275 169.675C74.814 177.634 74.5829 186.053 70.9313 192.759C65.2711 203.128 62.2414 215.512 58.0855 226.829C55.8416 232.947 54.4969 239.46 53.1775 245.938C52.3959 249.783 51.6157 253.626 50.8369 257.467L45.7524 282.6C45.2271 285.193 44.7018 287.908 45.2565 290.501C46.0969 294.372 49.1939 297.078 52.4589 298.179C55.7239 299.28 59.1822 299.092 62.5733 299.127C69.0613 299.201 75.5998 300.149 81.6886 302.796C83.4283 303.551 85.1637 304.455 87.0169 304.632C88.87 304.81 90.7147 304.242 92.4502 303.452C97.1859 301.3 101.245 297.527 105.607 294.481C108.331 292.551 111.201 290.92 114.179 289.607C115.675 288.95 117.28 288.328 118.31 286.891C119.087 285.81 119.436 284.398 119.692 283.015C121.113 275.233 120.159 267.17 119.692 259.23C119.226 251.29 115.188 242.901 118.528 235.978C119.201 234.581 120.003 233.238 120.348 231.688C120.802 229.663 120.419 227.486 120.802 225.441C121.083 223.93 121.76 222.573 122.222 221.126C123.029 218.578 123.138 215.803 123.13 213.082C123.111 207.109 122.576 201.153 121.533 195.306C120.209 187.9 124.588 180.577 127.096 173.581C127.996 171.077 129.269 168.712 129.643 166.031C129.979 163.611 129.546 161.147 129.223 158.723C128.74 154.965 128.543 151.165 128.634 147.366C128.714 143.959 129.021 140.488 128.328 137.175C127.634 133.862 125.655 130.647 122.81 129.966C122.491 129.856 122.156 129.83 121.827 129.891C121.499 129.951 121.186 130.097 120.911 130.316C120.583 130.695 120.351 131.174 120.243 131.699C119.318 135.027 119.499 138.612 118.982 142.068C118.465 145.524 117.86 148.63 114.961 149.361Z" fill="#F86D70"/>
<path d="M75.3056 170.569C75.4779 169.201 74.9358 167.384 73.7592 167.433C72.6751 167.482 72.1919 169.077 72.1961 170.356C72.2003 171.635 72.3473 173.102 71.5783 174C70.8976 174.795 69.7715 174.771 68.9815 175.417C68.7027 175.651 68.4758 175.96 68.32 176.319C68.1642 176.677 68.0841 177.074 68.0864 177.476C68.0864 178.163 68.3511 178.82 68.368 179.506C68.3848 180.192 67.994 180.987 67.4141 180.943C67.1162 181.53 66.9922 182.217 67.0614 182.896C67.1306 183.574 67.389 184.207 67.7965 184.695C68.099 185.041 68.494 185.337 68.5949 185.821C68.6268 186.161 68.604 186.504 68.5276 186.833C68.3511 188.191 69.1495 189.712 70.3135 189.86C69.6622 190.408 69.7925 191.692 70.3892 192.329C70.9859 192.966 71.8431 193.09 72.6457 193.09C74.4673 193.078 76.2686 192.64 77.9445 191.801C78.5184 191.578 79.0259 191.167 79.4068 190.616C79.5836 190.331 79.6684 189.983 79.6461 189.631C79.6237 189.28 79.4957 188.95 79.285 188.7C80.1002 188.858 81.0793 188.947 81.6129 188.206C82.3567 187.169 81.5583 185.634 80.7725 184.631C81.0984 184.574 81.4029 184.406 81.6481 184.147C81.8933 183.889 82.0684 183.551 82.1517 183.177C82.235 182.802 82.2227 182.407 82.1165 182.041C82.0102 181.674 81.8147 181.352 81.5541 181.116C81.2852 180.883 80.9196 180.681 80.8818 180.291C80.8439 179.901 81.1255 179.649 81.2431 179.303C81.5121 178.528 80.8986 177.738 80.3061 177.269C78.9026 176.173 76.8352 176.193 75.5871 175.087C74.3391 173.981 75.1249 172.05 75.3056 170.569Z" fill="#BE6F72"/>
<path d="M161.995 95.6436C160.977 95.7641 159.953 95.7922 158.931 95.7276C158.757 95.7052 158.583 95.7641 158.445 95.8916C158.307 96.019 158.218 96.2048 158.196 96.409L156.242 113.632C156.092 114.882 155.656 116.061 154.981 117.044C154.425 117.826 154.012 118.734 153.767 119.711C153.522 120.689 153.45 121.716 153.557 122.727V151.983C153.557 151.983 153.431 155.884 155.981 155.884C159.034 156.335 162.123 156.335 165.176 155.884C165.176 155.884 167.218 155.43 167.218 151.83V123.023C167.374 122.018 167.342 120.985 167.124 119.996C166.906 119.007 166.508 118.086 165.957 117.296C165.305 116.309 164.884 115.14 164.734 113.903L162.705 96.3201C162.682 96.1224 162.595 95.9425 162.464 95.8168C162.332 95.6912 162.164 95.6293 161.995 95.6436Z" fill="#3F3D56"/>
<path opacity="0.1" d="M161.995 95.6436C160.977 95.7641 159.953 95.7922 158.931 95.7276C158.757 95.7052 158.583 95.7641 158.445 95.8916C158.307 96.019 158.218 96.2048 158.196 96.409L156.242 113.632C156.092 114.882 155.656 116.061 154.981 117.044C154.425 117.826 154.012 118.734 153.767 119.711C153.522 120.689 153.45 121.716 153.557 122.727V151.983C153.557 151.983 153.431 155.884 155.981 155.884C159.034 156.335 162.123 156.335 165.176 155.884C165.176 155.884 167.218 155.43 167.218 151.83V123.023C167.374 122.018 167.342 120.985 167.124 119.996C166.906 119.007 166.508 118.086 165.957 117.296C165.305 116.309 164.884 115.14 164.734 113.903L162.705 96.3201C162.682 96.1224 162.595 95.9425 162.464 95.8168C162.332 95.6912 162.164 95.6293 161.995 95.6436Z" fill="black"/>
<path d="M162.007 123.25H158.91C156.346 123.25 154.267 125.693 154.267 128.707V142.399C154.267 145.412 156.346 147.855 158.91 147.855H162.007C164.572 147.855 166.651 145.412 166.651 142.399V128.707C166.651 125.693 164.572 123.25 162.007 123.25Z" fill="#00BF6B"/>
<path d="M203.625 21.2224C202.727 21.8024 201.791 22.2977 200.826 22.7037C200.659 22.7623 200.518 22.895 200.432 23.0738C200.347 23.2525 200.324 23.4633 200.368 23.6616L204.209 40.4498C204.484 41.6684 204.472 42.9516 204.175 44.163C203.916 45.1362 203.831 46.1617 203.925 47.1753C204.019 48.189 204.29 49.1689 204.722 50.0537L214.311 77.0531C214.311 77.0531 215.47 80.707 217.828 79.5516C220.795 78.5842 223.647 77.1807 226.316 75.3743C226.316 75.3743 228.052 74.0312 226.875 70.7131L217.433 44.1284C217.247 43.1303 216.879 42.1914 216.355 41.3764C215.83 40.5615 215.161 39.8899 214.395 39.408C213.471 38.7935 212.699 37.9069 212.155 36.8354L204.52 21.5285C204.433 21.3514 204.292 21.2206 204.125 21.1636C203.958 21.1065 203.779 21.1276 203.625 21.2224Z" fill="#3F3D56"/>
<path d="M212.691 46.6992L209.833 48.1006C207.467 49.261 206.349 52.4562 207.336 55.2371L211.823 67.8734C212.811 70.6544 215.53 71.968 217.897 70.8076L220.755 69.4062C223.122 68.2457 224.24 65.0506 223.252 62.2696L218.765 49.6334C217.777 46.8524 215.058 45.5387 212.691 46.6992Z" fill="#00BF6B"/>
<path d="M85.7016 124.771C81.1843 126.959 79.3984 133.763 80.4574 139.362C81.5163 144.962 84.7057 149.628 87.8152 154.067L96.5304 166.559C98.9382 170.016 101.573 173.655 105.245 174.859C110.616 176.622 115.986 172.603 120.629 168.969C134.489 158.116 149.305 149.051 164.818 141.93C166.335 141.238 167.89 140.537 169.138 139.303C171.727 136.745 172.454 132.03 171.012 128.44C169.571 124.85 166.214 122.515 162.831 122.485C159.448 122.455 156.158 124.559 154.124 127.739C153.153 129.255 152.443 130.988 151.506 132.528C149.136 136.4 145.438 138.794 141.82 140.957C133.097 146.187 124.117 150.804 114.927 154.783C113.246 155.504 111.351 156.19 109.767 155.237C108.796 154.649 108.141 153.538 107.552 152.452C104.872 147.494 102.739 142.154 101.207 136.562C100.06 132.365 99.1314 127.793 96.3749 124.811C92.4669 120.584 85.3906 121.596 82.4618 126.786C82.4618 126.786 79.0287 132.686 81.1297 135.155C83.2308 137.624 85.7016 124.771 85.7016 124.771Z" fill="#FBBEBE"/>
<path d="M321.371 104.339C321.985 106.26 322.002 108.363 321.914 110.412C321.804 112.911 321.271 115.844 319.296 116.797C318.01 117.404 316.421 116.945 315.278 117.863C313.892 118.969 313.959 121.349 314.173 123.295C314.766 128.642 315.434 134.187 317.913 138.71C319.245 141.135 321.048 143.154 322.876 145.085C326.519 148.946 330.515 152.719 335.301 154.007C336.081 154.266 336.901 154.306 337.697 154.126C338.481 153.841 339.193 153.332 339.768 152.645C342.542 149.652 343.97 145.381 345.819 141.51C347.126 138.74 348.685 136.079 349.42 133.027C350.026 130.361 349.986 127.549 349.304 124.908C348.623 122.267 347.327 119.902 345.563 118.081C344.743 117.256 343.836 116.565 343.042 115.711C340.966 113.498 339.756 110.323 339.26 107.084C338.764 103.845 338.84 100.512 339.079 97.2089C334.877 96.8287 330.704 97.4261 326.603 98.389C324.779 98.8186 322.212 99.0161 320.56 100.038C318.703 101.199 320.863 102.685 321.371 104.339Z" fill="#FBBEBE"/>
<path opacity="0.1" d="M321.371 104.339C321.985 106.26 322.002 108.363 321.914 110.412C321.804 112.911 321.271 115.844 319.296 116.797C318.01 117.404 316.421 116.945 315.278 117.863C313.892 118.969 313.959 121.349 314.173 123.295C314.766 128.642 315.434 134.187 317.913 138.71C319.245 141.135 321.048 143.154 322.876 145.085C326.519 148.946 330.515 152.719 335.301 154.007C336.081 154.266 336.901 154.306 337.697 154.126C338.481 153.841 339.193 153.332 339.768 152.645C342.542 149.652 343.97 145.381 345.819 141.51C347.126 138.74 348.685 136.079 349.42 133.027C350.026 130.361 349.986 127.549 349.304 124.908C348.623 122.267 347.327 119.902 345.563 118.081C344.743 117.256 343.836 116.565 343.042 115.711C340.966 113.498 339.756 110.323 339.26 107.084C338.764 103.845 338.84 100.512 339.079 97.2089C334.877 96.8287 330.704 97.4261 326.603 98.389C324.779 98.8186 322.212 99.0161 320.56 100.038C318.703 101.199 320.863 102.685 321.371 104.339Z" fill="black"/>
<path d="M297.924 118.871C291.1 116.12 287.839 105.376 280.695 104.171C279.569 103.978 278.414 104.052 277.308 103.746C273.195 102.601 271.426 97.0113 270.236 92.2464C266.228 76.3617 260.992 60.8178 253.554 46.7354C250.415 40.8102 245.452 35.9416 243.187 29.4534C242.666 27.9721 242.402 26.2834 241.465 25.1132C240.528 23.9429 238.523 23.775 238.015 25.2662C237.873 25.7945 237.841 26.355 237.922 26.9006L238.414 33.0481L229.867 32.1445C229.076 31.986 228.265 32.0538 227.501 32.342C226.676 32.8269 226.019 33.6307 225.64 34.6183C222.749 41.0027 225.829 49.3672 230.93 53.4063C236.889 58.1218 245.398 58.8378 249.356 65.874C251.709 70.0612 251.756 75.4483 253.306 80.1243C254.046 82.3611 255.126 84.4152 255.987 86.5828C257.63 90.7157 258.47 95.209 259.744 99.5147C261.567 105.672 264.269 111.41 266.963 117.113C269.039 121.517 271.165 126.001 274.359 129.368C276.46 131.58 278.93 133.22 281.401 134.8C287.478 138.7 294.642 142.453 301.08 139.461C301.449 132.716 300.008 125.196 297.924 118.871Z" fill="#FBBEBE"/>
<path d="M318.644 331.429C318.127 337.873 314.799 343.71 314.022 349.911C308.895 348.968 303.849 347.754 298.966 346.371C298.365 346.203 297.768 346.03 297.167 345.877C299.932 336.989 297.525 327.035 298.256 317.569C298.327 316.661 298.428 315.752 298.563 314.854C304.895 312.316 310.614 308.928 317.253 309.916C317.384 311.496 317.518 313.081 317.648 314.661C317.915 317.818 318.178 320.971 318.438 324.122C318.705 326.544 318.774 328.991 318.644 331.429Z" fill="#FBBEBE"/>
<path d="M362.439 347.546C359.951 348.435 357.396 349.21 354.728 349.847C354.282 349.956 353.833 350.06 353.383 350.158C350.652 350.761 347.887 351.2 345.092 351.501C344.807 344.638 340.89 338.327 340.319 331.281C340.202 329.53 340.217 327.771 340.365 326.023C340.415 325.331 340.474 324.64 340.529 323.949L341.714 309.743C342.657 309.604 343.608 309.549 344.559 309.58C350.021 309.733 354.992 312.513 360.405 314.681C360.808 317.678 360.949 320.716 360.825 323.746C360.619 331.459 359.564 339.266 362.001 346.341C362.14 346.741 362.291 347.141 362.439 347.546Z" fill="#FBBEBE"/>
<path d="M291.507 239.242C292.243 245.977 289.314 252.426 288.045 259.047C287.204 263.427 287.091 267.935 286.977 272.429L286.313 299.344C286.246 302.035 286.187 304.776 286.885 307.358C288.288 312.533 292.612 316.029 297.113 317.273C301.613 318.517 306.32 317.885 310.904 317.174C313.152 316.824 315.497 316.414 317.358 314.888C319.918 312.79 321.035 309.052 322.002 305.566L324.729 295.725C327.868 304.03 326.54 313.111 328.423 321.924C328.543 322.739 328.832 323.507 329.263 324.161C330.057 325.198 331.364 325.361 332.553 325.46C340.789 326.141 349.139 326.818 357.241 324.966C359.468 324.472 361.791 323.672 363.329 321.707C365.119 319.421 365.43 316.058 365.409 312.953C365.296 302.282 362.014 291.987 361.283 281.351C360.968 276.794 361.123 272.211 360.985 267.639C360.875 264.2 360.602 260.771 360.165 257.369C360.026 255.81 359.663 254.29 359.089 252.875C357.829 250.11 355.211 248.609 352.732 247.444C333.469 238.25 312.282 238.339 291.507 239.242Z" fill="#F86D70"/>
<path d="M327.17 106.749C337.15 106.749 345.239 97.2426 345.239 85.5164C345.239 73.7902 337.15 64.2842 327.17 64.2842C317.191 64.2842 309.101 73.7902 309.101 85.5164C309.101 97.2426 317.191 106.749 327.17 106.749Z" fill="#FBBEBE"/>
<path d="M342.92 122.915C341.579 126.371 339.47 129.827 336.331 130.706C333.444 131.521 330.385 129.887 328.259 127.452C326.132 125.018 324.741 121.858 323.267 118.831C322.191 116.619 320.993 114.387 319.174 112.995C316.686 111.099 313.476 111.148 310.543 111.706C307.61 112.264 304.698 113.261 301.718 113.034C298.008 112.743 294.226 110.565 290.726 112.017C291.86 117.982 291.453 124.539 291.322 130.652C291.344 131.596 291.231 132.537 290.986 133.437C290.681 134.276 290.268 135.055 289.763 135.748L286.402 140.839C290.007 144.009 293.125 148.146 294.386 153.227C295.096 156.121 294.877 159.192 294.852 162.204C294.772 171.047 296.407 179.856 295.89 188.68C295.285 199.015 291.772 208.781 289.961 218.919C288.41 227.621 288.117 236.568 289.095 245.385C307.929 253.043 327.334 256.964 347.244 258.248C350.761 258.475 354.56 258.509 357.446 256.134C359.846 254.159 361.19 250.777 361.648 247.37C362.106 243.963 361.791 240.496 361.472 237.07C360.606 227.803 359.742 218.537 358.879 209.27C358.388 203.997 357.896 198.694 358.215 193.405C358.455 189.455 359.144 185.579 359.829 181.713L364.031 157.982C364.632 154.61 365.237 151.213 366.426 148.067C367.401 145.5 368.75 143.13 369.826 140.631C371.108 137.635 371.992 134.427 372.448 131.116C372.63 130.155 372.619 129.158 372.414 128.203C371.965 126.583 370.59 125.611 369.309 124.816C361.494 119.989 353.118 116.537 344.449 114.57C343.861 117.478 343.974 120.204 342.92 122.915Z" fill="#E3E8F4"/>
<path d="M341.176 108.694C343.277 103.964 347.206 100.645 349.488 96.0237C350.749 93.4035 351.454 90.4648 351.543 87.4564C351.632 84.448 351.103 81.4587 350 78.7417C349.198 76.816 348.109 75.0483 347.479 73.0337C346.777 70.7426 346.71 68.2194 345.899 65.9777C344.786 62.9065 342.374 60.6944 339.747 59.4204C337.121 58.1465 334.285 57.6873 331.457 57.2429L321.909 55.7319C320.527 55.5147 319.094 55.2974 317.749 55.7319C316.405 56.1665 315.152 57.4552 315.043 59.0945C314.913 61.0351 316.363 62.8423 316.026 64.7482C315.905 65.4198 315.568 66.1012 315.762 66.7529C315.934 67.1883 316.232 67.5381 316.602 67.7405C318.867 69.2218 321.573 69.3551 324.027 70.3229C326.481 71.2907 328.944 73.7201 328.696 76.7419C328.561 78.3664 327.67 80.0552 328.276 81.5118C328.855 82.8598 330.377 83.1067 331.591 83.5264C335.52 84.8645 338.277 89.8713 337.705 94.6362C337.529 96.1175 337.075 97.5347 336.982 99.0209C336.676 104.225 337.373 105.712 340.991 108.738L341.176 108.694Z" fill="#3F3D56"/>
<path d="M365.72 131.2C365.74 132.186 365.587 133.165 365.271 134.079C363.96 137.362 359.947 137.155 357.287 139.016C353.975 141.337 353.244 146.517 352.942 151.03C352.597 156.14 352.362 161.325 353.253 166.337C354.144 171.349 356.287 176.237 359.867 179.175C364.224 182.735 370.149 182.858 375.125 180.691C380.1 178.523 384.256 174.331 387.861 169.749C391.282 165.404 394.345 160.56 396.181 155.044C396.505 154.057 396.791 153.01 396.53 152.022C396.139 150.541 394.765 149.87 393.647 149.06C391.038 147.208 389.298 143.979 388.395 140.567C387.491 137.155 387.34 133.526 387.311 129.946C387.277 126.228 387.269 122.164 385.252 119.295C383.235 116.426 379.738 115.622 376.553 115.651C373.948 115.651 366.737 115.942 364.96 118.614C363.502 120.836 365.825 128.02 365.72 131.2Z" fill="#BE6F72"/>
<path opacity="0.1" d="M365.72 131.2C365.74 132.186 365.587 133.165 365.271 134.079C363.96 137.362 359.947 137.155 357.287 139.016C353.975 141.337 353.244 146.517 352.942 151.03C352.597 156.14 352.362 161.325 353.253 166.337C354.144 171.349 356.287 176.237 359.867 179.175C364.224 182.735 370.149 182.858 375.125 180.691C380.1 178.523 384.256 174.331 387.861 169.749C391.282 165.404 394.345 160.56 396.181 155.044C396.505 154.057 396.791 153.01 396.53 152.022C396.139 150.541 394.765 149.87 393.647 149.06C391.038 147.208 389.298 143.979 388.395 140.567C387.491 137.155 387.34 133.526 387.311 129.946C387.277 126.228 387.269 122.164 385.252 119.295C383.235 116.426 379.738 115.622 376.553 115.651C373.948 115.651 366.737 115.942 364.96 118.614C363.502 120.836 365.825 128.02 365.72 131.2Z" fill="black"/>
<path d="M343.315 263.62C343.445 264.372 343.747 265.069 344.189 265.634C344.604 266.019 345.088 266.288 345.605 266.419C359.396 271.174 374.129 269.278 388.407 267.338C386.453 260.346 384.487 253.275 383.945 245.943C383.495 239.894 383.999 233.598 382.176 227.925C381.638 226.246 350.29 233.974 347.197 234.601C345.613 234.922 343.79 234.813 342.668 236.289C341.315 238.077 341.201 242.333 341.058 244.56C340.655 250.994 341.785 257.472 343.315 263.62Z" fill="#BE6F72"/>
<path d="M374.717 342.001C372.196 343.374 369.595 344.653 366.901 345.798C365.444 346.42 363.957 347.003 362.439 347.546C359.951 348.435 357.396 349.21 354.728 349.847C353.207 345.314 351.684 340.78 350.16 336.244C349.038 332.906 347.916 329.553 346.979 326.141C346.327 323.811 345.791 321.439 345.374 319.036C343.998 310.868 344.356 302.428 346.416 294.461C352.24 295.75 357.934 296.589 363.67 297.567C366.733 298.06 369.805 298.643 372.914 299.329C373.158 301.709 373.379 304.089 373.578 306.469C373.881 310.143 374.129 313.817 374.322 317.49C374.751 325.654 374.882 333.824 374.717 342.001Z" fill="#BE6F72"/>
<path opacity="0.1" d="M374.717 342.001C372.196 343.374 369.595 344.653 366.901 345.798C365.444 346.42 363.957 347.003 362.439 347.546C359.951 348.435 357.396 349.21 354.728 349.847C353.207 345.314 351.684 340.78 350.16 336.244C349.038 332.906 347.916 329.553 346.979 326.141C346.327 323.811 345.791 321.439 345.374 319.036C343.998 310.868 344.356 302.428 346.416 294.461C352.24 295.75 357.934 296.589 363.67 297.567C366.733 298.06 369.805 298.643 372.914 299.329C373.158 301.709 373.379 304.089 373.578 306.469C373.881 310.143 374.129 313.817 374.322 317.49C374.751 325.654 374.882 333.824 374.717 342.001Z" fill="black"/>
<path d="M407.031 320.606C407.065 323.45 406.376 326.354 405.737 329.143C405.691 329.341 405.649 329.533 405.607 329.731C404.087 329.175 402.776 328.02 401.896 326.462C401.441 325.617 401.105 324.692 400.9 323.722C398.998 325.243 397.079 326.749 395.143 328.24C388.811 333.128 382.117 337.982 374.717 342.001C372.196 343.374 369.595 344.653 366.901 345.798C366.341 343.494 365.809 341.175 365.304 338.841C364.753 336.438 364.321 334 364.01 331.538C363.394 325.947 363.872 320.265 365.405 314.923L365.594 314.281C366.308 311.905 367.231 309.623 368.347 307.472C369.393 305.497 371.465 305.827 373.578 306.484C374.536 306.775 375.507 307.126 376.389 307.343C381.882 308.696 387.584 307.299 393.198 307.669C395.873 307.826 398.495 308.61 400.909 309.975C403.611 311.57 405.787 314.009 406.64 317.382C406.761 317.867 406.854 318.362 406.918 318.863C406.988 319.44 407.026 320.023 407.031 320.606Z" fill="#BE6F72"/>
<path d="M305.937 93.1994C297.26 83.324 287.398 74.9545 277.308 67.1283C274.683 65.1936 272.157 63.0782 269.745 60.7932C267.223 58.3243 265.026 55.4259 262.349 53.2039C259.672 50.9819 256.361 49.4562 253.146 50.1869C249.932 50.9177 247.074 54.5321 247.545 58.3144C247.965 61.6425 250.512 63.9237 252.865 65.8346C257.319 69.4539 261.794 73.0832 266.639 75.9223C268.322 76.8188 269.955 77.8414 271.526 78.9837C274.543 81.3736 276.741 84.909 279.023 88.2321C287.635 100.802 298.184 111.355 310.118 119.34C310.261 119.438 315.232 106.832 315.022 105.198C314.56 101.44 308.223 95.8065 305.937 93.1994Z" fill="#BE6F72"/>
<path d="M380.154 252.767C373.456 253.26 367.031 255.917 360.48 257.611C353.929 259.304 346.811 259.961 340.73 256.623L344.428 286.294C344.634 287.943 344.848 289.632 344.542 291.256C344.26 292.807 343.529 294.268 343.592 295.853C343.689 298.362 345.693 300.124 347.58 301.285C353.061 304.685 359.202 306.348 365.397 306.109C364.939 308.281 364.367 310.429 363.905 312.602C366.994 316.498 372.044 316.76 376.452 317.994C379.814 318.927 382.966 320.547 386.26 321.687C390.244 323.069 394.381 323.746 398.534 323.697C401.337 323.662 404.308 323.203 406.485 321.149C409.161 318.616 409.993 314.31 410.573 310.331C410.897 308.109 411.195 305.857 410.994 303.615C410.775 301.038 409.926 298.599 409.086 296.209L403.329 279.791C402.283 276.828 401.228 273.821 399.967 270.962C395.849 261.714 389.017 252.12 380.154 252.767Z" fill="#3F3D56"/>
<path d="M385.281 150.25C385.779 148.714 386.697 147.416 387.891 146.56C389.086 145.705 390.488 145.34 391.878 145.524C393.559 145.801 395.059 146.882 396.501 147.939L404.527 153.825C405.857 154.755 407.133 155.787 408.346 156.916C413.88 162.308 416.015 171.171 416.624 179.59C417.234 188.009 416.624 196.571 418.049 204.851C414.662 208.149 410.905 210.939 407.518 214.233C405.745 215.956 403.951 217.689 402.606 219.906C401.539 221.649 400.778 223.644 399.665 225.338C397.841 228.014 395.196 229.742 392.299 230.147C394.135 231.401 395.164 233.835 395.66 236.26C396.156 238.684 396.29 241.198 396.841 243.622C397.597 246.916 399.165 249.923 399.682 253.28C400.043 255.596 399.883 257.971 400.014 260.321C400.669 272.483 408.792 283.114 408.266 295.28C404.433 293.643 400.805 291.402 397.484 288.619C395.988 287.36 394.542 285.998 393.126 284.64L382.424 274.443C377.217 269.506 371.96 264.459 367.821 258.257C365.224 254.367 363.107 250.061 360.501 246.18C357.896 242.299 354.69 238.773 350.71 237.144C350.126 238.176 349.088 238.892 348.504 239.924C348.401 240.086 348.319 240.266 348.261 240.457C348.19 240.917 348.238 241.392 348.399 241.82C348.869 243.817 349.151 245.868 349.24 247.938L349.504 251.651C349.603 252.635 349.603 253.629 349.504 254.613C349.105 257.788 346.601 260.252 343.899 260.746C343.508 260.845 343.103 260.83 342.718 260.702C341.966 260.405 341.55 259.472 341.323 258.583C340.26 254.367 341.89 249.918 342.021 245.528C342.039 244.414 342.007 243.3 341.924 242.19L341.672 237.81C339.23 237.213 337.827 234.132 337.18 231.302C335.432 223.664 333.671 215.759 334.684 207.937C334.953 205.844 335.423 203.72 335.104 201.627C334.684 198.827 332.969 196.556 332.066 193.919C329.124 185.322 335.373 175.99 334.793 166.762C334.549 162.885 332.457 159.518 331.196 155.923C330.543 153.828 329.698 151.823 328.675 149.944C327.389 147.786 325.653 146.058 323.968 144.32C318.764 138.954 313.828 133.24 309.185 127.205C306.801 126.915 304.564 125.711 302.819 123.779C301.71 122.544 300.798 120.915 300.769 119.122C300.739 117.33 301.865 115.449 303.391 115.355C304.282 115.301 305.114 115.819 305.983 116.046C308.706 116.747 311.446 114.392 312.661 111.434C313.875 108.477 313.875 105.075 313.854 101.796C315.185 101.518 316.554 101.648 317.829 102.173C319.105 102.698 320.244 103.601 321.136 104.793C323.014 107.193 324.237 110.185 325.716 112.94C326.318 114.165 327.091 115.261 328.002 116.184C330.024 118.071 332.936 118.426 334.7 120.628C335.596 121.754 336.091 123.245 336.911 124.45C339.214 127.842 343.428 128.257 346.576 130.489C349.723 132.721 351.912 136.799 355.4 138.123C356.661 138.617 358.035 138.681 359.283 139.229C362.165 140.488 363.926 144.088 364.325 147.667C364.724 151.247 364.044 154.867 363.355 158.392L361.737 166.643C361.38 168.47 361.106 170.667 362.254 171.971C362.796 172.498 363.432 172.874 364.115 173.072C367.057 174.198 370.334 175.304 373.099 173.709C374.406 172.948 375.431 171.665 376.368 170.351C380.47 164.673 383.197 157.237 385.281 150.25Z" fill="#00BF6B"/>
<path d="M418.448 318.157C417.868 322.675 415.75 327.119 412.284 329.188C410.205 330.392 407.807 330.587 405.606 329.731C404.087 329.175 402.776 328.02 401.896 326.462C401.441 325.617 401.105 324.692 400.9 323.722C400.9 323.672 400.879 323.618 400.871 323.569C400.555 321.822 400.424 320.036 400.48 318.251C400.479 315.48 400.619 312.711 400.9 309.96C401.135 307.644 401.522 305.352 402.06 303.107C402.842 299.902 403.968 296.816 405.001 293.725C405.539 292.096 406.056 290.461 406.481 288.787C406.737 287.8 406.955 286.783 407.132 285.756L407.195 285.385C407.229 285.178 407.258 284.971 407.287 284.763C407.708 281.949 407.829 279.035 408.909 276.493C411.431 270.523 416.339 272.049 417.087 277.554C417.143 277.981 417.175 278.411 417.183 278.843C417.297 285.81 414.944 292.619 416.019 299.611C416.323 301.316 416.704 303.001 417.162 304.657C417.54 306.183 417.881 307.729 418.141 309.294C418.669 312.207 418.773 315.203 418.448 318.157Z" fill="#BE6F72"/>
<path d="M420.759 240.684C420.873 243.538 420.759 246.427 421.247 249.226C422.386 255.843 426.709 261.699 426.23 268.424C426.113 270.063 425.596 271.826 424.377 272.636C423.159 273.446 421.142 273.382 420.742 275.011C420.629 275.465 420.688 275.959 420.562 276.408C420.297 277.366 419.301 277.776 418.461 277.751C417.62 277.727 416.78 277.401 415.91 277.485C412.864 277.786 411.746 282.576 409.031 284.22C407.203 285.326 404.829 284.714 403.321 283.079C401.812 281.445 401.152 278.897 401.27 276.482C401.358 274.66 401.85 272.903 402.11 271.105C402.585 267.901 402.337 264.617 402.089 261.378C401.724 256.633 401.346 251.828 400.018 247.33C399.392 245.207 398.56 243.178 398.018 241.025C397.244 237.978 397.068 234.774 396.988 231.599C396.824 224.918 397.215 217.773 400.61 212.401C403.161 208.372 406.817 205.098 409.704 201.37C411.511 199.034 412.032 198.304 414.028 200.284C415.671 201.908 417.389 204.15 417.574 206.352C418.078 211.996 417.574 217.546 418.473 223.293C419.373 229.041 420.524 234.783 420.759 240.684Z" fill="#00BF6B"/>
<path d="M377.175 131.931C389.011 131.931 398.606 120.656 398.606 106.749C398.606 92.8407 389.011 81.5662 377.175 81.5662C365.339 81.5662 355.745 92.8407 355.745 106.749C355.745 120.656 365.339 131.931 377.175 131.931Z" fill="#BE6F72"/>
<path d="M396.799 154.921C397.27 154.146 397.828 153.311 398.627 153.148C399.23 153.095 399.833 153.244 400.366 153.578L406.01 156.348C407.535 153.389 408.434 150.043 408.632 146.591C408.75 144.473 408.607 142.325 408.951 140.241C409.464 137.15 411.023 134.38 411.384 131.259C411.67 128.741 411.153 126.208 410.842 123.695C409.884 115.933 410.914 108.013 410.363 100.196C409.813 92.3798 407.144 84.0054 401.211 80.4157C399.53 79.4281 397.719 78.8356 395.971 78.0555C392.076 76.3124 388.584 73.5226 384.735 71.6364C380.886 69.7502 376.364 68.8861 372.633 71.0538C368.901 73.2214 366.729 79.3195 369.153 83.2993C369.952 84.6078 371.12 85.5361 372.238 86.4792C374.511 88.3901 376.831 90.7503 377.356 93.9796C378.297 99.7913 373.154 104.349 371.704 110.032C371.169 112.252 371.121 114.594 371.565 116.841C372.191 120.209 373.721 123.389 373.666 126.835C373.624 130.613 371.7 134.034 371.338 137.792C371.208 139.17 371.288 140.567 371.141 141.94C370.882 143.75 370.426 145.514 369.784 147.188C366.422 157.064 363.014 167.043 358.018 175.921C363.367 176.028 368.655 174.576 373.41 171.694C372.727 175.5 371.418 179.113 369.557 182.33C373.832 181.749 377.945 180.062 381.6 177.392C380.713 181.124 379.428 184.71 377.776 188.063C377.919 187.776 380.562 187.075 381.049 186.749C382.051 186.08 382.857 185.069 383.361 183.851C384.789 180.849 385.68 177.23 387.004 174.109C389.834 167.42 393.109 161.004 396.799 154.921Z" fill="#3F3D56"/>
<path d="M234.271 3.8021C233.253 3.92258 232.229 3.95065 231.207 3.88604C231.033 3.86368 230.858 3.92257 230.721 4.05001C230.583 4.17746 230.494 4.36327 230.472 4.56744L228.518 21.7902C228.368 23.0404 227.932 24.2195 227.257 25.2022C226.701 25.9842 226.288 26.8922 226.042 27.8699C225.797 28.8476 225.726 29.874 225.833 30.8855V60.1415C225.833 60.1415 225.707 64.0422 228.257 64.0422C231.31 64.493 234.399 64.493 237.451 64.0422C237.451 64.0422 239.494 63.588 239.494 59.9884V31.1817C239.649 30.1767 239.617 29.1439 239.4 28.1549C239.182 27.1658 238.784 26.2443 238.233 25.454C237.581 24.4677 237.159 23.2984 237.01 22.0618L234.981 4.47856C234.958 4.28088 234.871 4.10092 234.739 3.97527C234.608 3.84962 234.44 3.7877 234.271 3.8021Z" fill="#3F3D56"/>
<path d="M234.283 31.4088H231.186C228.622 31.4088 226.543 33.8516 226.543 36.865V50.5573C226.543 53.5706 228.622 56.0135 231.186 56.0135H234.283C236.848 56.0135 238.927 53.5706 238.927 50.5573V36.865C238.927 33.8516 236.848 31.4088 234.283 31.4088Z" fill="#00BF6B"/>
<path d="M263.265 28.9845C262.247 29.105 261.223 29.133 260.202 29.0684C260.028 29.0461 259.853 29.1049 259.715 29.2324C259.578 29.3598 259.488 29.5456 259.466 29.7498L257.512 46.9726C257.362 48.2228 256.926 49.4018 256.252 50.3845C255.695 51.1666 255.282 52.0746 255.037 53.0523C254.792 54.03 254.72 55.0564 254.827 56.0679V85.3238C254.827 85.3238 254.701 89.2246 257.252 89.2246C260.304 89.6754 263.393 89.6754 266.446 89.2246C266.446 89.2246 268.488 88.7703 268.488 85.1707V56.3641C268.644 55.3591 268.612 54.3263 268.394 53.3372C268.177 52.3482 267.778 51.4266 267.228 50.6364C266.575 49.6501 266.154 48.4807 266.005 47.2442L263.975 29.6609C263.952 29.4633 263.866 29.2833 263.734 29.1576C263.602 29.032 263.434 28.9701 263.265 28.9845Z" fill="#3F3D56"/>
<path d="M263.278 56.5912H260.181C257.616 56.5912 255.537 59.034 255.537 62.0474V75.7397C255.537 78.753 257.616 81.1958 260.181 81.1958H263.278C265.842 81.1958 267.921 78.753 267.921 75.7397V62.0474C267.921 59.034 265.842 56.5912 263.278 56.5912Z" fill="#00BF6B"/>
<g opacity="0.2">
<path opacity="0.2" d="M230.674 324.028C230.66 324.56 230.608 325.091 230.518 325.613C227.594 325.066 224.652 324.573 221.694 324.131C221.694 323.993 221.694 323.85 221.694 323.707C221.721 322.226 222.084 320.781 222.744 319.52C223.61 317.91 224.925 316.903 226.375 316.957C227.825 317.011 229.081 318.112 229.858 319.776C230.446 321.083 230.728 322.551 230.674 324.028Z" fill="#3F3D56"/>
<path opacity="0.2" d="M230.909 315.596C231.012 311.777 229.083 308.607 226.601 308.515C224.119 308.423 222.024 311.444 221.921 315.262C221.819 319.081 223.748 322.251 226.229 322.343C228.711 322.436 230.807 319.415 230.909 315.596Z" fill="#3F3D56"/>
<path opacity="0.2" d="M231.139 307.142C231.241 303.324 229.313 300.153 226.831 300.061C224.349 299.969 222.253 302.99 222.151 306.809C222.048 310.627 223.977 313.798 226.459 313.89C228.941 313.982 231.036 310.961 231.139 307.142Z" fill="#3F3D56"/>
<path opacity="0.2" d="M231.364 298.689C231.466 294.87 229.538 291.7 227.056 291.608C224.574 291.515 222.478 294.536 222.376 298.355C222.273 302.174 224.202 305.344 226.684 305.436C229.166 305.528 231.261 302.507 231.364 298.689Z" fill="#3F3D56"/>
<path opacity="0.2" d="M231.593 290.235C231.696 286.417 229.767 283.246 227.285 283.154C224.803 283.062 222.708 286.083 222.605 289.901C222.502 293.72 224.431 296.891 226.913 296.983C229.395 297.075 231.49 294.054 231.593 290.235Z" fill="#3F3D56"/>
<path opacity="0.2" d="M211.806 231.574C211.214 230.632 210.681 229.642 210.209 228.611L222.085 226.77L209.302 226.409C208.161 223.23 207.584 219.81 207.607 216.36C207.629 212.91 208.25 209.501 209.432 206.342L226.291 217.427L210.848 203.187C212.406 200.226 214.467 197.675 216.901 195.692C219.336 193.709 222.093 192.337 224.999 191.663C227.905 190.988 230.898 191.024 233.792 191.77C236.685 192.515 239.417 193.954 241.816 195.996C244.215 198.038 246.23 200.639 247.736 203.637C249.241 206.635 250.204 209.966 250.564 213.421C250.925 216.876 250.675 220.381 249.831 223.718C248.987 227.055 247.566 230.151 245.658 232.813C246.579 234.278 247.361 235.856 247.99 237.519L232.405 246.308L248.932 240.467C249.972 244.502 250.14 248.779 249.42 252.91C248.699 257.04 247.113 260.895 244.805 264.123C247.205 267.949 248.64 272.49 248.946 277.229C249.252 281.968 248.417 286.712 246.537 290.919C244.656 295.126 241.806 298.627 238.313 301.02C234.819 303.414 230.822 304.604 226.78 304.454C222.738 304.304 218.813 302.821 215.455 300.174C212.096 297.526 209.44 293.822 207.789 289.483C206.137 285.145 205.559 280.349 206.118 275.642C206.678 270.936 208.353 266.509 210.953 262.869C208.087 258.298 206.611 252.726 206.763 247.051C206.916 241.375 208.687 235.924 211.794 231.574H211.806Z" fill="#00BF6B"/>
<path opacity="0.1" d="M249.848 248.649C249.701 254.328 247.924 259.781 244.805 264.123C247.205 267.949 248.64 272.49 248.946 277.229C249.252 281.968 248.417 286.712 246.537 290.919C244.656 295.126 241.806 298.627 238.313 301.021C234.819 303.414 230.822 304.604 226.78 304.454C222.738 304.305 218.813 302.821 215.455 300.174C212.096 297.526 209.44 293.822 207.789 289.483C206.137 285.145 205.559 280.349 206.118 275.642C206.678 270.936 208.353 266.509 210.953 262.869C208.192 258.46 249.923 245.809 249.848 248.649Z" fill="black"/>
</g>
</g>
<defs>
<clipPath id="clip0">
<rect width="477" height="352" fill="white"/>
</clipPath>
</defs>
</svg>
