<svg width="961" height="707" viewBox="0 0 961 707" fill="none" xmlns="http://www.w3.org/2000/svg">
<g clip-path="url(#clip0)">
<path opacity="0.1" d="M10.3437 338.962C25.5185 397.454 57.6153 448.017 108.338 472.527C213.784 523.464 451.592 497.194 629.077 467.038C720.885 451.441 801.582 408.398 860.202 347.823L10.3437 338.962Z" fill="#F50057"/>
<path opacity="0.1" d="M941.064 63.6327H843.681C839.06 63.6327 835.268 60.2171 835.268 56.0435C835.268 51.8698 839.06 48.4455 843.681 48.4455H860.525C855.895 48.4455 852.112 45.0299 852.112 40.8476C852.112 36.6652 855.895 33.2584 860.525 33.2584H848.504C843.874 33.2584 840.082 29.8428 840.082 25.6604C840.082 21.4781 843.874 18.0712 848.504 18.0712H899.331C888.053 13.3399 874.87 9.97663 859.677 8.20784C721.078 -7.85064 671.596 2.77079 654.141 13.6885C632.384 27.4662 608.216 37.0263 582.906 41.867C497.396 57.7861 337.48 76.9378 192.537 35.7678C120.498 15.2656 66.9543 49.8658 34.8662 107.704H957.977C956.772 90.8964 953.163 75.3694 946.541 61.7855C944.973 62.9932 943.045 63.6433 941.064 63.6327V63.6327Z" fill="#F50057"/>
<path opacity="0.1" d="M2.08793 216.872C-1.65251 250.89 -0.381022 285.271 5.86197 318.922L860.857 347.144C884.393 322.798 904.389 295.281 920.263 265.396L2.08793 216.872ZM340.249 289.671H323.414C328.044 289.671 331.836 293.096 331.836 297.269C331.836 301.443 328.044 304.858 323.414 304.858H226.032C221.41 304.858 217.619 301.443 217.619 297.269C217.619 293.096 221.41 289.671 226.032 289.671H242.875C238.245 289.671 234.462 286.256 234.462 282.082C234.462 277.908 238.245 274.484 242.875 274.484H230.845C226.215 274.484 222.424 271.068 222.424 266.895C222.424 262.721 226.215 259.297 230.845 259.297H328.228C332.858 259.297 336.641 262.712 336.641 266.895C336.641 271.077 332.858 274.484 328.228 274.484H340.249C344.879 274.484 348.662 277.9 348.662 282.082C348.662 286.264 344.879 289.671 340.249 289.671Z" fill="#F50057"/>
<path opacity="0.1" d="M958.012 108.227L24.5662 128.703C13.2091 155.043 5.67854 184.825 2.21027 215.687H941.658C947.772 197.631 952.308 179.081 955.217 160.245C958.021 142.113 959.139 124.573 958.012 108.227ZM191.733 175.362H174.899C179.529 175.362 183.321 178.787 183.321 182.96C183.321 187.134 179.529 190.558 174.899 190.558H77.5163C72.8949 190.558 69.1034 187.134 69.1034 182.96C69.1034 178.787 72.8949 175.362 77.5163 175.362H94.3597C89.7296 175.362 85.9468 171.947 85.9468 167.773C85.9468 163.6 89.7296 160.175 94.3597 160.175H82.33C77.6998 160.175 73.9083 156.76 73.9083 152.586C73.9083 148.412 77.6998 144.988 82.33 144.988H179.712C184.343 144.988 188.125 148.404 188.125 152.586C188.125 156.768 184.343 160.175 179.712 160.175H191.733C196.364 160.175 200.146 163.6 200.146 167.773C200.146 171.947 196.364 175.362 191.733 175.362Z" fill="#F50057"/>
<path opacity="0.1" d="M476.193 680.573C691.855 680.573 866.684 664.532 866.684 644.744C866.684 624.956 691.855 608.915 476.193 608.915C260.531 608.915 85.7021 624.956 85.7021 644.744C85.7021 664.532 260.531 680.573 476.193 680.573Z" fill="#F50057"/>
<path d="M874.18 348.808C874.175 348.747 874.175 348.686 874.18 348.625C874.18 348.529 874.18 348.442 874.18 348.355C874.004 347.357 873.627 346.405 873.07 345.558C871.071 342.366 868.286 339.739 864.98 337.925C859.214 334.771 851.291 333.42 848.984 327.4C848.277 325.535 848.259 323.505 847.91 321.553C847.298 318.512 845.896 315.685 843.842 313.356C841.789 311.026 839.158 309.277 836.212 308.283C833.469 307.368 830.507 307.115 827.843 305.982C821.885 303.456 818.74 297.226 816.075 291.466C812.627 284.031 809.179 276.593 805.731 269.152C803.111 270.467 799.721 269.849 797.266 268.202C794.901 266.445 793.017 264.123 791.788 261.449C788.233 254.566 786.704 246.767 782.528 240.215C778.352 233.663 770.009 228.487 762.636 231.336C761.196 232.054 759.707 232.668 758.18 233.175C751.864 234.647 744.875 227.45 739.467 230.944C738.569 231.519 737.837 232.318 737.344 233.262C737.34 233.204 737.34 233.146 737.344 233.088C736.641 234.505 736.248 236.055 736.191 237.636V237.636C736.191 237.958 736.191 238.272 736.191 238.577C736.191 238.629 736.191 238.681 736.191 238.734C736.191 239.988 736.27 241.261 736.287 242.533C736.307 243.601 736.225 244.669 736.043 245.722V245.635C735.941 246.227 735.789 246.81 735.588 247.377C734.182 251.141 730.286 253.607 728.46 257.145V256.97C728.254 257.355 728.076 257.754 727.927 258.164C727.602 259.091 727.434 260.066 727.429 261.048C727.272 267.696 734.339 273.953 735.16 281.089C735.746 286.142 736.908 287.763 741.215 290.621L742.158 291.248C741.782 291.248 741.398 291.301 740.97 291.309C740.803 291.312 740.636 291.33 740.472 291.362C739.712 291.153 738.915 291.115 738.138 291.251C737.362 291.386 736.625 291.692 735.982 292.146C732.679 294.76 724.869 292.747 721.401 292.146C717.933 291.545 706.051 293.165 704.392 299.735C702.732 306.305 699.884 319.863 699.884 319.863C699.884 319.863 699.884 328.463 698.826 330.066C698.786 330.178 698.786 330.302 698.826 330.414C698.826 332.828 698.914 347.335 696.573 351.073C695.996 351.945 696.04 353.87 696.468 356.24C694.004 359.403 691.689 363.098 692.1 365.52C692.851 370.478 702.933 386.066 717.382 377.718C717.382 377.718 725.603 362.723 715.259 354.75L715.705 353.008C718.832 356.842 721.148 359.595 721.148 359.595C721.148 359.595 721.27 359.917 721.462 360.466H721.148C722.498 364.13 723.315 367.968 723.576 371.863C723.537 373.291 723.277 374.705 722.807 376.054H723.078C723 376.35 722.912 376.647 722.807 376.926C722.3 378.397 721.351 379.677 720.09 380.594C712.866 385.7 704.592 422.165 704.592 422.165C704.592 422.165 688.203 481.11 684.927 484.464C682.219 487.218 699.237 494.972 712.009 494.049C713.792 493.943 715.554 493.609 717.251 493.055C717.33 493.927 717.417 494.798 717.504 495.591C717.775 498.205 718.055 500.627 718.23 501.385C718.684 503.285 719.584 522.68 719.584 522.68C719.584 522.68 717.74 535.28 718.186 544.045C718.186 544.646 718.265 545.221 718.317 545.788L716.727 546.032C714.316 551.434 724.249 596.508 725.603 600.298C726.5 603.284 727.005 606.374 727.106 609.49C727.106 609.49 726.232 612.697 726.957 614.448C727.409 615.518 727.703 616.648 727.831 617.803C727.831 617.803 727.237 620.713 728.136 622.612C729.036 624.512 727.988 627.84 727.988 627.84C727.988 627.84 727.691 640.971 724.983 648.116C724.245 650.039 724.031 652.122 724.36 654.154C724.69 656.186 725.553 658.095 726.861 659.687C727.049 659.935 727.254 660.171 727.473 660.393C727.473 660.393 742.411 660.515 745.041 660.393H745.382C746.439 660.245 749.147 648.43 746.736 642.74C744.325 637.05 746.439 630.045 746.439 630.045V619.693C746.439 619.693 749.147 617.201 746.439 611.852C743.731 606.502 744.176 604.881 744.176 604.881C744.176 604.881 747.19 596.272 744.028 593.501C740.865 590.731 744.63 580.223 744.63 580.223L745.696 545.195C745.138 545.014 744.569 544.869 743.993 544.76C743.932 544.185 743.87 543.592 743.809 542.965C743.189 536.622 742.656 527.995 744.036 525.538C745.417 523.081 746.081 501.629 746.299 486.721L760.067 487.244C760.356 494.214 760.661 500.575 760.854 501.385C761.308 503.285 762.216 522.68 762.216 522.68C762.216 522.68 760.364 535.28 760.81 544.045C760.81 544.646 760.889 545.221 760.941 545.788L759.351 546.032C756.94 551.434 766.873 596.508 768.227 600.298C769.125 603.284 769.633 606.374 769.738 609.49C769.738 609.49 768.865 612.697 769.581 614.448C770.033 615.518 770.327 616.648 770.455 617.803C770.455 617.803 769.861 620.713 770.76 622.612C771.66 624.512 770.612 627.84 770.612 627.84C770.612 627.84 770.315 640.971 767.607 648.116C766.881 650.042 766.678 652.124 767.018 654.153C767.359 656.182 768.231 658.085 769.546 659.67C769.734 659.918 769.939 660.154 770.158 660.376C770.158 660.376 785.096 660.497 787.726 660.376H788.067C789.124 660.227 791.832 648.412 789.421 642.723C787.01 637.033 789.124 630.027 789.124 630.027V619.693C789.124 619.693 791.832 617.201 789.124 611.852C786.416 606.502 786.861 604.881 786.861 604.881C786.861 604.881 789.875 596.272 786.713 593.501C783.55 590.731 787.316 580.223 787.316 580.223L788.399 545.195C787.827 545.011 787.243 544.866 786.652 544.76C786.59 544.185 786.529 543.592 786.468 542.965C785.848 536.622 785.315 527.995 786.695 525.538C787.805 523.526 788.442 510.56 788.731 497.9C788.731 497.029 788.731 496.157 788.801 495.286C795.127 495.023 801.426 494.319 807.653 493.177C807.653 493.177 800.289 467.203 802.543 462.977C803.512 461.156 802.115 451.458 800.201 441.011C802.87 443.165 806.187 444.362 809.619 444.409C812.913 450.727 822.933 465.26 828.577 467.5C835.199 470.113 830.228 446.936 827.074 443.582C825.582 441.75 824.325 439.739 823.335 437.596C823.422 437.491 823.518 437.404 823.606 437.308C823.693 437.212 823.763 412.65 822.252 413.094C820.74 413.538 818.941 409.443 818.941 409.443L814.275 368.604L812.319 351.509C813.952 352.711 815.892 353.478 817.56 354.672C822.103 357.992 823.588 363.821 825.58 368.979C827.222 373.222 829.529 377.431 833.312 380.097C837.094 382.763 842.642 383.469 846.416 380.768C849.91 378.232 850.941 373.658 851.71 369.484C858.053 371.706 865.749 365.764 864.928 359.272C864.727 357.669 864.133 355.918 864.972 354.515C866.649 351.744 871.961 353.356 873.708 350.62C874.002 350.147 874.153 349.6 874.145 349.043C874.171 348.921 874.18 348.869 874.18 348.808ZM789.342 371.271C789.246 372.83 791.395 385.36 793.143 395.276C791.71 389.098 788.836 382.502 783.175 377.98C783.175 377.98 783.175 377.666 783.105 377.108H783.175C783.175 377.108 782.939 374.616 782.904 371.07C782.914 367.927 783.147 364.788 783.603 361.677V361.599H783.489C783.489 361.338 783.559 361.067 783.603 360.806C783.95 358.181 784.664 355.618 785.726 353.191C786.195 352.24 786.735 351.325 787.342 350.455C788.276 358.88 789.43 369.694 789.342 371.271V371.271ZM794.042 400.303C794.811 404.581 795.362 407.587 795.362 407.587L800 439.356V439.504C797.502 426.094 794.313 411.961 794.313 411.961C794.638 408.077 794.547 404.169 794.042 400.303V400.303Z" fill="url(#paint0_linear)"/>
<path d="M737.187 282.831C736.314 274.78 727.577 267.836 730.198 260.177C731.622 256.003 736.078 253.45 737.58 249.303C738.576 246.567 738.131 243.561 738.139 240.651C738.148 237.74 738.83 234.49 741.258 232.878C746.5 229.393 753.244 236.564 759.36 235.1C760.838 234.596 762.278 233.984 763.667 233.27C770.804 230.439 778.876 235.597 782.886 242.114C786.896 248.632 788.399 256.404 791.841 263.253C793.016 265.897 794.836 268.207 797.135 269.971C799.511 271.609 802.761 272.227 805.33 270.92L815.333 293.139C817.953 298.864 820.959 305.067 826.69 307.586C829.258 308.71 832.124 308.962 834.779 309.877C837.666 310.893 840.234 312.646 842.227 314.963C844.22 317.28 845.568 320.078 846.136 323.078C846.477 325.029 846.486 327.051 847.176 328.907C849.404 334.902 857.065 336.243 862.648 339.363C865.877 341.179 868.585 343.792 870.51 346.952C871.384 348.459 872.135 350.437 871.201 351.918C869.514 354.637 864.386 353.034 862.761 355.796C861.94 357.19 862.517 358.933 862.761 360.536C863.556 366.992 856.104 372.909 849.972 370.696C849.229 374.852 848.224 379.409 844.852 381.927C841.227 384.628 835.854 383.913 832.193 381.265C828.533 378.616 826.314 374.425 824.724 370.199C822.793 365.058 821.352 359.255 816.957 355.953C815.367 354.768 813.463 354.001 811.908 352.807C808.413 350.141 806.666 345.741 805.417 341.48C803.801 336.165 802.516 330.702 800.175 325.683C797.834 320.664 794.13 315.994 789.054 313.702C784.293 311.568 778.806 311.707 773.888 309.973C765.423 306.993 759.159 299.892 750.737 296.546C748.045 295.417 745.494 293.979 743.137 292.259C738.899 289.48 737.746 287.868 737.187 282.831Z" fill="#3F3D56"/>
<g opacity="0.1">
<path opacity="0.1" d="M737.973 247.595C738.154 247.254 738.311 246.902 738.445 246.541C739.432 243.805 738.996 240.799 739.004 237.889C739.004 236.918 739.095 235.949 739.275 234.996C738.469 236.717 738.077 238.603 738.131 240.502C738.122 242.846 738.402 245.303 737.973 247.595Z" fill="black"/>
<path opacity="0.1" d="M845.673 379.191C842.048 381.883 836.675 381.178 833.015 378.52C829.354 375.863 827.126 371.689 825.58 367.446C823.649 362.305 822.217 356.502 817.814 353.199C816.232 352.014 814.319 351.239 812.773 350.054C809.278 347.388 807.531 342.988 806.273 338.77C804.657 333.455 803.381 327.992 801.031 322.973C798.681 317.954 794.995 313.284 789.91 310.993C785.158 308.858 779.671 308.997 774.753 307.263C766.279 304.283 760.015 297.182 751.602 293.836C748.908 292.704 746.355 291.266 743.993 289.549C739.852 286.7 738.751 285.088 738.139 280.061C737.266 272.515 729.578 265.936 730.775 258.826C730.58 259.211 730.408 259.607 730.259 260.011C727.639 267.679 736.375 274.624 737.248 282.666C737.816 287.693 738.996 289.305 743.102 292.155C745.464 293.871 748.017 295.309 750.711 296.441C759.124 299.787 765.388 306.897 773.862 309.869C778.78 311.611 784.267 311.463 789.019 313.598C794.104 315.889 797.755 320.568 800.14 325.578C802.525 330.589 803.801 336.034 805.382 341.376C806.666 345.593 808.352 349.993 811.882 352.659C813.463 353.844 815.376 354.62 816.923 355.805C821.291 359.107 822.758 364.91 824.689 370.051C826.279 374.277 828.507 378.459 832.167 381.108C835.828 383.757 841.2 384.471 844.826 381.779C847.141 380.036 848.32 377.379 849.098 374.529C848.407 376.367 847.222 377.98 845.673 379.191V379.191Z" fill="black"/>
<path opacity="0.1" d="M863.626 353.06C863.292 353.685 863.146 354.393 863.207 355.099C865.181 353.156 869.637 354.297 871.192 351.797C871.553 351.178 871.695 350.457 871.594 349.749C869.567 351.666 865.112 350.524 863.626 353.06Z" fill="black"/>
<path opacity="0.1" d="M850.793 367.96C850.627 368.831 850.461 369.763 850.251 370.669C855.598 372.334 861.774 368.055 862.648 362.653C860.525 366.809 855.283 369.589 850.793 367.96Z" fill="black"/>
</g>
<path d="M748.474 287.022C748.474 287.022 751.383 292.878 742.796 293C734.208 293.122 748.326 331.024 748.326 331.024L762.601 349.148L780.361 339.563L781.384 313.127L782.694 297.156C782.694 297.156 766.095 291.78 769.153 284.67C772.211 277.56 748.474 287.022 748.474 287.022Z" fill="#FBBEBE"/>
<path d="M800.027 441.56C800.027 441.56 810.51 451.851 822.741 438.197L813.349 428.255H801.468L800.027 441.56Z" fill="#575A89"/>
<path opacity="0.1" d="M801.162 428.255L799.721 441.56C799.721 441.56 810.204 451.851 822.435 438.197" fill="black"/>
<path d="M818.801 430.068C818.801 430.068 823.02 441.107 826.078 444.444C829.136 447.781 833.941 470.872 827.537 468.258C821.133 465.644 808.903 446.187 808.169 442.85C807.435 439.513 807.155 430.068 807.155 430.068H818.801Z" fill="#FBBEBE"/>
<path d="M727.219 486.703L783.707 488.882L777.155 465.06L748.702 464.485L727.219 486.703Z" fill="#575A89"/>
<path opacity="0.1" d="M735.073 486.703L791.57 488.882L785.018 465.06L756.555 464.485L735.073 486.703Z" fill="black"/>
<path d="M745.705 526.026C744.368 528.51 744.884 537.101 745.487 543.453C745.871 547.496 746.29 550.606 746.29 550.606C746.29 550.606 725.175 557.141 721.977 551.478C721.165 550.04 720.763 547.522 720.623 544.568C720.186 535.855 721.977 523.299 721.977 523.299C721.977 523.299 721.104 503.99 720.667 502.1C720.492 501.342 720.221 498.937 719.959 496.332C719.575 492.463 719.208 488.159 719.208 488.159L748.038 472.91C748.038 472.91 748.038 475.768 747.985 480.169C747.828 493.988 747.365 522.977 745.705 526.026Z" fill="#FBBEBE"/>
<path opacity="0.1" d="M746.29 550.606C746.29 550.606 725.175 557.141 721.977 551.478C721.165 550.04 720.763 547.522 720.623 544.568C724.991 543.906 738.288 542.076 745.487 543.453C745.871 547.496 746.29 550.606 746.29 550.606Z" fill="black"/>
<path d="M747.015 660.393H746.683C744.141 660.489 729.691 660.393 729.691 660.393C729.48 660.172 729.282 659.94 729.097 659.696C727.821 658.101 726.977 656.205 726.648 654.191C726.319 652.176 726.516 650.111 727.219 648.194C729.84 641.076 730.128 628.006 730.128 628.006C730.128 628.006 731.15 624.669 730.277 622.778C729.403 620.887 729.98 617.986 729.98 617.986C729.846 616.838 729.552 615.715 729.106 614.649C728.381 612.906 729.255 609.708 729.255 609.708C729.155 606.61 728.665 603.536 727.796 600.559C726.485 596.786 716.875 551.913 719.208 546.537C719.208 546.537 739.59 543.052 747.312 545.666L746.29 580.519C746.29 580.519 742.647 590.975 745.705 593.737C748.763 596.499 745.853 605.064 745.853 605.064C745.853 605.064 745.417 606.659 748.038 612.035C750.658 617.411 748.038 619.876 748.038 619.876V630.184C748.038 630.184 746.002 637.155 748.326 642.818C750.65 648.482 748.038 660.21 747.015 660.393Z" fill="#3F3D56"/>
<path d="M787.018 526.026C785.682 528.51 786.197 537.101 786.8 543.453C787.184 547.496 787.604 550.606 787.604 550.606C787.604 550.606 766.488 557.141 763.291 551.478C762.479 550.04 762.077 547.522 761.937 544.568C761.5 535.855 763.291 523.299 763.291 523.299C763.291 523.299 762.417 503.991 761.981 502.1C761.745 501.08 761.334 491.356 761.011 482.634C760.74 475.193 760.522 468.467 760.522 468.467L789.351 472.91C789.351 472.91 789.351 485.553 788.993 498.545C788.678 511.144 788.093 524.057 787.018 526.026Z" fill="#FBBEBE"/>
<path opacity="0.1" d="M787.604 550.606C787.604 550.606 766.488 557.141 763.291 551.478C762.478 550.04 762.077 547.522 761.937 544.568C766.305 543.906 779.601 542.076 786.8 543.453C787.185 547.496 787.604 550.606 787.604 550.606Z" fill="black"/>
<path d="M788.329 660.393H787.997C785.455 660.489 771.005 660.393 771.005 660.393C770.794 660.173 770.595 659.94 770.411 659.696C769.134 658.101 768.29 656.205 767.962 654.191C767.633 652.176 767.829 650.111 768.533 648.195C771.154 641.041 771.416 627.971 771.416 627.971C771.416 627.971 772.438 624.634 771.564 622.743C770.691 620.852 771.267 617.951 771.267 617.951C771.133 616.803 770.839 615.68 770.394 614.614C769.668 612.871 770.542 609.673 770.542 609.673C770.442 606.575 769.952 603.501 769.083 600.524C767.773 596.752 758.163 551.878 760.495 546.502C760.495 546.502 780.877 543.017 788.6 545.631L787.578 580.484C787.578 580.484 783.935 590.94 786.992 593.702C790.05 596.464 787.141 605.029 787.141 605.029C787.141 605.029 786.704 606.624 789.325 612C791.946 617.376 789.325 619.842 789.325 619.842V630.149C789.325 630.149 787.289 637.12 789.613 642.784C791.937 648.447 789.351 660.21 788.329 660.393Z" fill="#3F3D56"/>
<path opacity="0.1" d="M759.831 293.871C771.17 293.871 780.361 284.704 780.361 273.395C780.361 262.086 771.17 252.919 759.831 252.919C748.493 252.919 739.301 262.086 739.301 273.395C739.301 284.704 748.493 293.871 759.831 293.871Z" fill="black"/>
<path d="M759.831 293C771.17 293 780.361 283.832 780.361 272.524C780.361 261.215 771.17 252.047 759.831 252.047C748.493 252.047 739.301 261.215 739.301 272.524C739.301 283.832 748.493 293 759.831 293Z" fill="#FBBEBE"/>
<path opacity="0.1" d="M719.208 488.159L748.038 472.91C748.038 472.91 748.038 475.768 747.985 480.169C743.774 482.678 737.423 486.451 731.316 490.014C727.997 491.958 724.755 493.84 721.977 495.417C721.332 495.766 720.657 496.058 719.959 496.288C719.575 492.463 719.208 488.159 719.208 488.159Z" fill="black"/>
<path opacity="0.1" d="M789.351 472.876C789.351 472.876 789.351 485.518 788.993 498.51H788.888C786.734 498.586 784.577 498.519 782.432 498.31C778.667 497.909 775.653 496.915 774.569 494.946C772.377 491.112 766.235 486.233 761.046 482.6C760.775 475.158 760.557 468.432 760.557 468.432L789.351 472.876Z" fill="black"/>
<path d="M783.987 362.139C783.256 367.811 783.116 373.543 783.568 379.243C796.812 390.135 794.339 413.077 794.339 413.077C794.339 413.077 804.535 459.553 802.35 463.762C800.166 467.97 807.295 493.822 807.295 493.822C801.219 494.971 795.067 495.675 788.888 495.931C786.734 496.007 784.577 495.94 782.432 495.73C778.667 495.33 775.653 494.336 774.569 492.367C770.498 485.257 752.877 474.653 752.877 474.653C752.877 474.653 741.712 481.327 731.316 487.401C727.997 489.344 724.755 491.226 721.977 492.803C719.723 493.995 717.232 494.677 714.683 494.798C702.321 495.713 685.853 487.993 688.474 485.257C691.68 481.911 707.554 423.245 707.554 423.245C707.554 423.245 715.556 386.937 722.545 381.857C723.77 380.934 724.685 379.661 725.166 378.206C727.56 371.576 723.559 360.946 723.559 360.946C723.559 360.946 700.993 333.211 702.006 331.608C703.02 330.005 703.029 321.448 703.029 321.448C703.029 321.448 705.798 307.943 707.397 301.408C708.995 294.873 720.501 293.27 723.847 293.854C727.193 294.437 734.758 296.468 737.956 293.854C741.153 291.24 746.552 294.873 746.552 294.873L759.814 298.515L771.739 291.545C771.739 291.545 783.69 292.155 784.712 293.749C785.734 295.344 801.459 298.402 801.459 298.402C809.462 303.769 809.173 329.334 809.173 329.334C809.173 329.334 789.954 346.028 786.022 354.602C785.004 357.011 784.32 359.546 783.987 362.139V362.139Z" fill="#575A89"/>
<path d="M804.823 325.796L809.191 329.282L813.708 369.798L818.215 410.463C818.215 410.463 819.963 414.532 821.422 414.096C822.881 413.66 822.732 438.197 822.732 438.197C822.732 438.197 806.011 427.941 800.018 441.56L795.353 408.72C795.353 408.72 789.377 375.174 789.526 372.56C789.674 369.946 786.468 341.628 786.468 341.628L804.823 325.796Z" fill="#575A89"/>
<path d="M705.23 327.687L702.024 331.608C702.024 331.608 702.321 348.451 699.84 352.52C697.359 356.589 706.689 380.402 710.184 378.947C713.678 377.492 721.541 340.321 721.541 339.886C721.541 339.45 705.23 327.687 705.23 327.687Z" fill="#575A89"/>
<path d="M704.942 351.648C704.942 351.648 694.747 361.956 695.472 366.897C696.197 371.837 705.955 387.355 719.933 379.017C719.933 379.017 732.898 354.698 704.942 351.648Z" fill="#575A89"/>
<path opacity="0.1" d="M746.683 660.419C744.141 660.515 729.691 660.419 729.691 660.419C729.48 660.199 729.282 659.966 729.097 659.722C732.793 658.467 740.778 656.585 746.683 660.419Z" fill="black"/>
<path opacity="0.1" d="M788.014 660.419C785.472 660.515 771.022 660.419 771.022 660.419C770.811 660.199 770.613 659.966 770.428 659.722C774.106 658.467 782.091 656.585 788.014 660.419Z" fill="black"/>
<path opacity="0.1" d="M732.347 405.008C730.12 426.321 730.853 468.615 731.316 487.401C727.997 489.344 724.756 491.226 721.977 492.803C719.723 493.995 717.232 494.677 714.683 494.798C713.757 489.117 726.581 430.765 732.347 405.008Z" fill="black"/>
<path opacity="0.1" d="M735.073 392.914C735.012 393.219 733.955 397.855 732.347 405.008C732.976 398.9 733.85 394.518 735.073 392.914Z" fill="black"/>
<path opacity="0.1" d="M770.542 390.614C770.542 390.614 782.921 468.162 746.264 477.746C746.255 477.711 771.625 473.869 770.542 390.614Z" fill="black"/>
<path opacity="0.1" d="M788.888 495.931C786.734 496.007 784.577 495.94 782.432 495.73L772.543 389.699C778.85 393.812 786.398 469.059 788.888 495.931Z" fill="black"/>
<path opacity="0.1" d="M744.543 260.482C745.199 260.43 745.859 260.498 746.491 260.682C747.418 261.143 748.253 261.769 748.955 262.53C750.094 263.479 751.456 264.125 752.914 264.407C754.371 264.689 755.877 264.598 757.289 264.142C758.285 263.697 759.342 263.404 760.425 263.27C762.094 263.27 763.536 264.49 764.4 265.884C765.265 267.278 765.711 268.934 766.453 270.424C767.196 271.914 768.384 273.325 770.018 273.691C770.801 273.722 771.572 273.899 772.289 274.214C772.729 274.57 773.067 275.036 773.268 275.565C774.631 278.501 775.714 281.969 778.623 283.406C779.693 283.901 780.859 284.154 782.039 284.147C783.238 284.235 784.44 284.019 785.533 283.52C786.609 282.921 787.497 282.037 788.102 280.967C789.919 277.969 790.129 274.258 789.7 270.781C789.167 266.395 787.601 262.197 785.131 258.53C782.529 254.821 778.987 251.867 774.866 249.971C770.745 248.074 766.193 247.302 761.675 247.734C760.098 247.911 758.536 248.203 757.001 248.606C751.445 250.087 745.993 252.858 742.621 257.502C741.806 258.661 740.909 259.762 739.939 260.796C741.468 260.648 743.005 260.517 744.543 260.482Z" fill="black"/>
<path d="M744.543 259.611C745.199 259.559 745.859 259.627 746.491 259.811C747.418 260.272 748.253 260.898 748.955 261.658C750.094 262.608 751.456 263.254 752.914 263.536C754.371 263.818 755.877 263.726 757.289 263.27C758.285 262.826 759.342 262.532 760.425 262.399C762.094 262.399 763.536 263.619 764.4 265.013C765.265 266.407 765.711 268.062 766.453 269.552C767.196 271.042 768.384 272.454 770.018 272.82C770.801 272.85 771.572 273.028 772.289 273.343C772.729 273.699 773.067 274.165 773.268 274.693C774.631 277.63 775.714 281.097 778.623 282.535C779.693 283.03 780.859 283.283 782.039 283.276C783.238 283.364 784.44 283.148 785.533 282.648C786.609 282.049 787.497 281.166 788.102 280.095C789.919 277.098 790.129 273.386 789.7 269.91C789.167 265.524 787.601 261.326 785.131 257.659C782.529 253.95 778.987 250.996 774.866 249.099C770.745 247.203 766.193 246.431 761.675 246.863C760.098 247.04 758.536 247.331 757.001 247.734C751.445 249.216 745.993 251.987 742.621 256.631C741.806 257.79 740.909 258.891 739.939 259.924C741.468 259.776 743.005 259.645 744.543 259.611Z" fill="#3F3D56"/>
<path opacity="0.1" d="M722.266 308.37C722.266 308.37 723.288 316.508 719.793 318.538C716.299 320.568 722.266 308.37 722.266 308.37Z" fill="black"/>
<path opacity="0.1" d="M796.375 371.401C796.375 371.401 804.674 359.203 805.845 362.688C807.016 366.173 796.375 371.401 796.375 371.401Z" fill="black"/>
<path opacity="0.1" d="M796.96 375.462C796.96 375.462 805.146 365.441 805.932 369.362C806.719 373.283 796.96 375.462 796.96 375.462Z" fill="black"/>
<path opacity="0.1" d="M772.918 363.533C769.949 363.575 767.052 362.624 764.689 360.832H763.972C761.521 363.066 758.302 364.273 754.983 364.204C753.257 364.244 751.541 363.934 749.939 363.293C748.336 362.652 746.881 361.693 745.661 360.475H744.709C742.194 362.518 739.035 363.607 735.791 363.548C732.548 363.489 729.431 362.286 726.992 360.153L723.576 360.092C723.576 360.092 727.577 370.722 725.184 377.352L783.568 378.389C783.116 372.689 783.256 366.957 783.987 361.285V361.207L780.781 361.146C778.474 362.741 775.725 363.576 772.918 363.533Z" fill="black"/>
<path opacity="0.1" d="M772.918 365.276C769.949 365.318 767.052 364.367 764.689 362.575H763.972C761.521 364.808 758.302 366.016 754.983 365.947C753.257 365.987 751.541 365.677 749.939 365.036C748.336 364.395 746.881 363.436 745.661 362.218H744.709C742.194 364.261 739.035 365.349 735.791 365.29C732.548 365.231 729.431 364.028 726.992 361.895L723.576 361.834C723.576 361.834 727.577 372.464 725.184 379.095L783.568 380.132C783.116 374.431 783.256 368.7 783.987 363.028V362.95L780.781 362.889C778.474 364.484 775.725 365.319 772.918 365.276Z" fill="black"/>
<path d="M772.918 364.405C769.949 364.447 767.052 363.496 764.689 361.704H763.972C761.521 363.937 758.302 365.144 754.983 365.076C753.257 365.115 751.541 364.806 749.939 364.165C748.336 363.523 746.881 362.565 745.661 361.346H744.709C742.194 363.389 739.035 364.478 735.791 364.419C732.548 364.36 729.431 363.157 726.992 361.024L723.576 360.963C723.576 360.963 727.577 371.593 725.184 378.224L783.568 379.261C783.116 373.56 783.256 367.828 783.987 362.157V362.078L780.781 362.017C778.474 363.613 775.725 364.447 772.918 364.405V364.405Z" fill="#3F3D56"/>
<path opacity="0.1" d="M770.324 306.305C770.324 306.305 782.615 307.089 782.694 308.832C782.773 310.574 770.324 306.305 770.324 306.305Z" fill="black"/>
<path opacity="0.1" d="M740.463 298.872C740.463 298.872 728.171 299.657 728.093 301.399C728.014 303.142 740.463 298.872 740.463 298.872Z" fill="black"/>
<path opacity="0.1" d="M787.438 334.501C787.316 334.414 787.193 334.344 787.071 334.266C790.216 337.089 789.692 343.258 785.83 348.346C781.969 353.435 776.107 355.552 772.543 353.269C772.656 353.365 772.752 353.47 772.875 353.565C776.369 356.232 782.484 354.14 786.52 348.878C790.557 343.615 790.95 337.176 787.438 334.501Z" fill="black"/>
<path opacity="0.1" d="M719.916 347.693C716.806 342.099 717.207 335.921 720.728 333.577C720.597 333.638 720.457 333.69 720.326 333.76C716.465 335.904 715.958 342.325 719.156 348.111C722.353 353.896 728.119 356.824 731.98 354.715C732.108 354.642 732.23 354.561 732.347 354.471C728.495 356.214 723.026 353.286 719.916 347.693Z" fill="black"/>
<path opacity="0.1" d="M724.074 300.519L722.947 302.262L720.073 300.737L721.584 298.419C722.584 298.891 723.442 299.615 724.074 300.519V300.519Z" fill="black"/>
<path d="M705.815 365.006C705.815 365.006 708.375 352.999 704.942 349.183C701.508 345.366 702.609 325.361 707.851 325.796C713.093 326.232 720.955 342.055 719.645 345.401C718.334 348.747 713.381 365.877 713.381 365.877L705.815 365.006Z" fill="#FBBEBE"/>
<path opacity="0.1" d="M788.014 278.379C787.41 279.449 786.521 280.333 785.446 280.932C784.353 281.431 783.151 281.647 781.951 281.559C780.772 281.566 779.606 281.313 778.536 280.819C775.626 279.372 774.543 275.904 773.18 272.977C773.008 272.449 772.701 271.974 772.289 271.6C771.582 271.279 770.82 271.093 770.044 271.051C768.41 270.685 767.231 269.265 766.48 267.784C765.728 266.302 765.283 264.664 764.427 263.244C763.57 261.824 762.12 260.578 760.452 260.63C759.366 260.774 758.308 261.082 757.315 261.545C755.902 261.997 754.397 262.086 752.939 261.803C751.482 261.519 750.121 260.873 748.981 259.924C748.28 259.164 747.445 258.538 746.517 258.077C745.886 257.893 745.225 257.825 744.569 257.877C743.565 257.877 742.569 257.973 741.564 258.051C741.066 258.702 740.533 259.324 739.965 259.916C741.494 259.785 743.032 259.654 744.569 259.619C745.225 259.567 745.886 259.635 746.517 259.82C747.445 260.281 748.28 260.907 748.981 261.667C750.121 262.616 751.482 263.262 752.939 263.545C754.397 263.829 755.902 263.74 757.315 263.288C758.308 262.825 759.366 262.516 760.452 262.373C762.12 262.373 763.562 263.593 764.427 264.987C765.292 266.381 765.737 268.036 766.48 269.526C767.222 271.016 768.41 272.428 770.044 272.794C770.82 272.836 771.582 273.022 772.289 273.343C772.729 273.699 773.067 274.165 773.268 274.693C774.631 277.63 775.714 281.097 778.623 282.535C779.693 283.03 780.859 283.283 782.039 283.276C783.238 283.364 784.44 283.148 785.533 282.648C786.609 282.049 787.497 281.166 788.102 280.095C789.458 277.632 790.065 274.829 789.849 272.027C789.783 274.264 789.152 276.449 788.014 278.379V278.379Z" fill="black"/>
<path d="M709.686 374.529C714.028 374.529 717.548 372.15 717.548 369.214C717.548 366.279 714.028 363.899 709.686 363.899C705.343 363.899 701.823 366.279 701.823 369.214C701.823 372.15 705.343 374.529 709.686 374.529Z" fill="#575A89"/>
<path d="M453.4 665.072C602.248 665.072 722.912 544.725 722.912 396.269C722.912 247.813 602.248 127.466 453.4 127.466C304.553 127.466 183.888 247.813 183.888 396.269C183.888 544.725 304.553 665.072 453.4 665.072Z" fill="#F50057"/>
<path d="M594.813 531.35C594.813 573.783 527.929 534.975 456.222 534.975C384.515 534.975 311.987 572.18 311.987 529.747C311.987 505.55 335.103 471.9 368.266 447.459C393.251 429.039 423.933 415.848 454.754 415.848C486.449 415.848 517.498 430.129 542.265 449.733C573.523 474.453 594.813 507.668 594.813 531.35Z" fill="#444053"/>
<path d="M542.256 449.716C504.14 443.991 435.203 437.012 368.266 447.442C393.252 429.022 423.933 415.83 454.754 415.83C486.441 415.83 517.489 430.111 542.256 449.716Z" fill="#F6F8FB"/>
<path opacity="0.05" d="M311.987 206.521C311.987 206.521 230.802 258.286 231.466 339.258C232.13 420.23 311.987 206.521 311.987 206.521Z" fill="black"/>
<path d="M722.807 60.3217C722.807 60.3217 649.249 55.9041 657.924 107.312C657.924 107.312 656.176 116.391 664.458 120.521C664.458 120.521 664.589 116.714 671.998 118.003C674.638 118.444 677.321 118.572 679.991 118.387C683.6 118.142 687.029 116.728 689.758 114.361V114.361C689.758 114.361 710.437 105.848 718.483 72.1368C718.483 72.1368 724.432 64.7829 724.196 62.9008L711.782 68.181C711.782 68.181 716.019 77.1121 712.656 84.5358C712.656 84.5358 712.254 68.5121 709.869 68.852C709.389 68.9304 703.422 71.9452 703.422 71.9452C703.422 71.9452 710.716 87.507 705.169 98.808C705.169 98.808 707.257 79.6389 701.098 73.0692L692.362 78.1577C692.362 78.1577 700.888 94.2249 695.105 107.338C695.105 107.338 696.59 87.2282 690.527 79.395L682.603 85.5552C682.603 85.5552 690.614 101.396 685.731 112.27C685.731 112.27 685.093 88.8575 680.891 87.0887C680.891 87.0887 673.963 93.188 672.906 95.6887C672.906 95.6887 678.393 107.181 674.994 113.246C674.994 113.246 672.906 97.6492 671.194 97.562C671.194 97.562 664.292 107.896 663.567 114.988C663.567 114.988 663.873 104.445 669.517 96.5774C669.517 96.5774 662.842 97.7189 658.954 102.041C658.954 102.041 660.029 94.7302 671.185 94.0942C671.185 94.0942 676.89 86.2523 678.419 85.7818C678.419 85.7818 667.28 84.8494 660.527 87.8381C660.527 87.8381 666.468 80.9459 680.454 84.074L688.317 77.7133C688.317 77.7133 673.657 75.7093 667.437 77.9224C667.437 77.9224 674.592 71.8232 690.422 76.2669L698.94 71.1871C698.94 71.1871 686.439 68.5034 678.987 69.4445C678.987 69.4445 686.849 65.2185 701.43 69.8017L707.545 67.0745C707.545 67.0745 698.381 65.2795 695.699 65.0007C693.017 64.7219 692.877 63.9725 692.877 63.9725C698.697 63.0288 704.665 63.7197 710.114 65.9679C710.114 65.9679 723.026 61.132 722.807 60.3217Z" fill="#F50057"/>
<path d="M647.361 37.4669C647.361 37.4669 614.164 35.4628 618.043 58.6923C618.043 58.6923 617.265 62.7962 620.996 64.6608C620.996 64.6608 621.048 62.9182 624.403 63.5281C625.595 63.7238 626.805 63.7823 628.011 63.7024C629.643 63.5862 631.193 62.9475 632.431 61.8813V61.8813C632.431 61.8813 641.77 58.0301 645.405 42.7994C645.405 42.7994 648.095 39.4796 648.025 38.6257L642.417 41.0131C642.417 41.0131 644.339 45.0474 642.827 48.402C642.827 48.402 642.644 41.1613 641.569 41.3355C641.351 41.3355 638.652 42.7296 638.652 42.7296C638.652 42.7296 641.954 49.7612 639.464 54.8672C639.464 54.8672 640.407 46.2062 637.629 43.235L633.681 45.5353C633.681 45.5353 637.533 52.8021 634.921 58.7271C634.921 58.7271 635.585 49.6392 632.851 46.1017L629.269 48.8812C629.269 48.8812 632.886 56.0347 630.684 60.949C630.684 60.949 630.396 50.3711 628.491 49.5695C628.491 49.5695 625.364 52.3229 624.883 53.4556C624.883 53.4556 627.364 58.6836 625.827 61.3934C625.827 61.3934 624.883 54.3444 624.079 54.3182C624.079 54.3182 620.961 58.9798 620.637 62.1601C620.788 59.2005 621.712 56.3316 623.319 53.839C621.522 54.1782 619.864 55.0355 618.549 56.3049C618.549 56.3049 619.03 53.0025 624.088 52.715C624.088 52.715 626.665 49.1774 627.356 48.9596C627.356 48.9596 622.323 48.5414 619.275 49.8919C619.275 49.8919 621.957 46.7726 628.282 48.1493L631.776 45.2826C631.776 45.2826 625.154 44.4113 622.341 45.3698C622.341 45.3698 625.573 42.6164 632.728 44.6291L636.572 42.3288C636.572 42.3288 630.929 41.1177 627.557 41.5534C627.557 41.5534 631.112 39.6452 637.699 41.7189L640.451 40.4816C640.451 40.4816 636.31 39.6713 635.105 39.5493C633.899 39.4273 633.82 39.0875 633.82 39.0875C636.443 38.6524 639.135 38.9541 641.596 39.9588C641.596 39.9588 647.458 37.8328 647.361 37.4669Z" fill="#F50057"/>
<path opacity="0.1" d="M937.473 636.074C950.467 636.074 961 634.299 961 632.11C961 629.92 950.467 628.145 937.473 628.145C924.48 628.145 913.947 629.92 913.947 632.11C913.947 634.299 924.48 636.074 937.473 636.074Z" fill="#F50057"/>
<path opacity="0.1" d="M40.8592 702.025C53.8526 702.025 64.3858 700.25 64.3858 698.06C64.3858 695.871 53.8526 694.096 40.8592 694.096C27.8659 694.096 17.3326 695.871 17.3326 698.06C17.3326 700.25 27.8659 702.025 40.8592 702.025Z" fill="#F50057"/>
<path opacity="0.1" d="M177.432 707C190.426 707 200.959 705.225 200.959 703.036C200.959 700.846 190.426 699.071 177.432 699.071C164.439 699.071 153.906 700.846 153.906 703.036C153.906 705.225 164.439 707 177.432 707Z" fill="#F50057"/>
<path d="M885.982 680.521C905.383 680.521 921.11 677.868 921.11 674.596C921.11 671.323 905.383 668.671 885.982 668.671C866.581 668.671 850.854 671.323 850.854 674.596C850.854 677.868 866.581 680.521 885.982 680.521Z" fill="#F50057"/>
<path d="M900.502 664.915C902.105 663.61 903.275 661.851 903.857 659.87C904.285 657.875 903.429 655.47 901.515 654.738C899.366 653.919 897.069 655.409 895.33 656.908C893.591 658.406 891.591 660.114 889.311 659.8C890.483 658.741 891.361 657.397 891.857 655.899C892.353 654.401 892.451 652.8 892.141 651.253C892.042 650.612 891.77 650.01 891.355 649.51C890.158 648.238 888 648.778 886.568 649.78C882.025 652.969 880.758 659.121 880.732 664.662C880.277 662.667 880.662 660.585 880.653 658.563C880.644 656.542 880.077 654.207 878.347 653.135C877.273 652.563 876.069 652.281 874.852 652.316C872.808 652.237 870.537 652.438 869.139 653.928C867.392 655.784 867.855 658.886 869.366 660.898C870.877 662.911 873.166 664.218 875.272 665.621C876.966 666.626 878.411 667.999 879.5 669.638C879.627 669.868 879.733 670.111 879.814 670.361H892.613C895.477 668.909 898.131 667.077 900.502 664.915V664.915Z" fill="#F50057"/>
<path d="M51.8406 591.855C51.8406 591.855 56.6368 598.111 49.6216 607.539C42.6065 616.966 36.8231 624.965 39.1382 630.855C39.1382 630.855 49.7177 613.307 58.3578 613.054C66.9979 612.801 61.3107 602.406 51.8406 591.855Z" fill="#F50057"/>
<path opacity="0.1" d="M51.8407 591.855C52.2572 592.459 52.5865 593.119 52.8191 593.815C61.2233 603.661 65.6963 612.854 57.624 613.08C50.0934 613.298 41.0252 626.716 38.9023 630.106C38.9766 630.369 39.064 630.627 39.1644 630.881C39.1644 630.881 49.744 613.333 58.3841 613.08C67.0242 612.827 61.3107 602.406 51.8407 591.855Z" fill="black"/>
<path d="M60.7603 599.827C60.7603 602.032 60.507 603.818 60.2012 603.818C59.8954 603.818 59.6508 602.075 59.6508 599.827C59.6508 597.579 59.9566 598.66 60.2711 598.66C60.5856 598.66 60.7603 597.623 60.7603 599.827Z" fill="#FFD037"/>
<path d="M63.783 602.459C61.8436 603.513 60.1575 604.149 60.009 603.879C59.8605 603.609 61.3194 602.546 63.2589 601.492C65.1983 600.437 64.4295 601.204 64.578 601.492C64.7265 601.779 65.7574 601.404 63.783 602.459Z" fill="#FFD037"/>
<path d="M26.4882 591.855C26.4882 591.855 21.692 598.111 28.6984 607.539C35.7049 616.966 41.497 624.965 39.1819 630.855C39.1819 630.855 28.5936 613.307 19.9622 613.054C11.3309 612.801 17.0094 602.406 26.4882 591.855Z" fill="#F50057"/>
<path opacity="0.1" d="M26.4882 591.855C26.0678 592.457 25.7382 593.118 25.5097 593.815C17.1055 603.661 12.6238 612.854 20.7048 613.08C28.2267 613.298 37.3036 626.716 39.4177 630.106C39.3465 630.368 39.2619 630.627 39.1644 630.881C39.1644 630.881 28.5761 613.333 19.9447 613.08C11.3134 612.827 17.0094 602.406 26.4882 591.855Z" fill="black"/>
<path d="M17.5685 599.827C17.5685 602.032 17.8131 603.818 18.1189 603.818C18.4246 603.818 18.6692 602.075 18.6692 599.827C18.6692 597.579 18.3635 598.66 18.0577 598.66C17.7519 598.66 17.5685 597.623 17.5685 599.827Z" fill="#FFD037"/>
<path d="M14.5021 602.459C16.4416 603.513 18.1364 604.149 18.2849 603.879C18.4334 603.609 16.9745 602.546 15.035 601.492C13.0956 600.437 13.8556 601.204 13.7159 601.492C13.5761 601.779 12.5627 601.404 14.5021 602.459Z" fill="#FFD037"/>
<path d="M19.0974 630.062C19.0974 630.062 32.5162 629.653 36.5698 626.777C40.6234 623.902 57.2134 620.478 58.2181 625.035C59.2227 629.592 78.3812 647.95 63.2327 648.072C48.0841 648.194 28.0345 645.711 23.9984 643.263C19.9622 640.814 19.0974 630.062 19.0974 630.062Z" fill="#A8A8A8"/>
<path opacity="0.2" d="M63.486 646.513C48.3374 646.635 28.2878 644.152 24.2517 641.703C21.1766 639.838 19.9535 633.138 19.5429 630.045H19.0974C19.0974 630.045 19.971 640.841 23.9809 643.289C27.9908 645.737 48.0666 648.221 63.2152 648.099C67.5833 648.099 69.0947 646.504 69.016 644.213C68.4045 645.615 66.7446 646.487 63.486 646.513Z" fill="black"/>
<path d="M357.582 361.024C362.71 360.736 386.848 358.924 402.18 350.202C404.642 348.757 407.424 347.94 410.278 347.823C415.153 347.684 420.762 349.714 417.171 361.076C411.353 379.661 377.57 400.573 356.603 399.414C336.44 398.299 312.52 390.196 296.725 361.703C295.212 358.962 294.466 355.865 294.567 352.738C294.751 346.987 296.848 339.781 307.672 347.815C322.296 358.663 350.042 360.719 355.607 361.024C356.265 361.059 356.924 361.059 357.582 361.024V361.024Z" fill="#444053"/>
<path d="M551.525 361.024C556.653 360.736 580.792 358.924 596.124 350.202C598.586 348.757 601.368 347.94 604.222 347.823C609.097 347.684 614.706 349.714 611.115 361.076C605.297 379.661 571.514 400.573 550.547 399.414C530.384 398.299 506.464 390.196 490.669 361.703C489.156 358.962 488.41 355.865 488.511 352.738C488.695 346.987 490.791 339.781 501.615 347.815C516.24 358.663 543.986 360.719 549.551 361.024C550.209 361.059 550.868 361.059 551.525 361.024V361.024Z" fill="#444053"/>
</g>
<defs>
<linearGradient id="paint0_linear" x1="779.392" y1="660.454" x2="779.392" y2="229.986" gradientUnits="userSpaceOnUse">
<stop stop-color="#808080" stop-opacity="0.25"/>
<stop offset="0.54" stop-color="#808080" stop-opacity="0.12"/>
<stop offset="1" stop-color="#808080" stop-opacity="0.1"/>
</linearGradient>
<clipPath id="clip0">
<rect width="961" height="707" fill="white"/>
</clipPath>
</defs>
</svg>
