<svg width="163" height="133" viewBox="0 0 163 133" fill="none" xmlns="http://www.w3.org/2000/svg">
<path d="M69.8572 124.383C100.411 124.383 125.179 96.539 125.179 62.1916C125.179 27.8441 100.411 0 69.8572 0C39.3036 0 14.535 27.8441 14.535 62.1916C14.535 96.539 39.3036 124.383 69.8572 124.383Z" fill="#F2F2F2"/>
<path d="M21.9509 133C34.074 133 43.9017 131.232 43.9017 129.052C43.9017 126.871 34.074 125.104 21.9509 125.104C9.82774 125.104 0 126.871 0 129.052C0 131.232 9.82774 133 21.9509 133Z" fill="#F2F2F2"/>
<path d="M129.035 128.987C147.794 128.987 163 126.251 163 122.877C163 119.503 147.794 116.768 129.035 116.768C110.277 116.768 95.071 119.503 95.071 122.877C95.071 126.251 110.277 128.987 129.035 128.987Z" fill="#F2F2F2"/>
<path d="M121.489 64.1565C121.489 64.1565 121.778 65.2401 120.14 66.2153C118.501 67.1905 118.019 70.8746 119.947 71.9581C121.875 73.0417 122.453 74.4503 121.489 75.4255C120.525 76.4007 118.79 79.0013 121.104 79.6514C123.417 80.3016 123.706 81.6019 123.031 82.1436C122.357 82.6854 124.574 81.1684 124.574 81.1684C124.574 81.1684 124.959 83.769 126.983 83.1188C129.007 82.4687 134.694 70.1161 131.803 68.3824C128.911 66.6487 121.489 64.1565 121.489 64.1565Z" fill="#2F2E41"/>
<path d="M124.983 74.6194C124.983 74.6194 125.983 78.5533 124.233 78.8343C123.147 79.0245 122.118 79.5065 121.233 80.2393L124.483 85.0162H130.482L134.231 80.8013C134.231 80.8013 129.232 76.5863 130.232 74.0574C131.232 71.5284 124.983 74.6194 124.983 74.6194Z" fill="#FFB9B9"/>
<path opacity="0.1" d="M124.983 74.6194C124.983 74.6194 125.983 78.5533 124.233 78.8343C123.147 79.0245 122.118 79.5065 121.233 80.2393L124.483 85.0162H130.482L134.231 80.8013C134.231 80.8013 129.232 76.5863 130.232 74.0574C131.232 71.5284 124.983 74.6194 124.983 74.6194Z" fill="black"/>
<path d="M126.483 123.513L132.232 125.761L136.231 126.042L135.981 122.108L127.732 119.365L126.483 123.513Z" fill="#FFB9B9"/>
<path d="M133.856 122.67C133.856 122.67 133.856 126.603 134.356 126.603C134.856 126.603 141.605 125.761 143.605 126.603C145.604 127.446 148.604 124.356 147.104 122.67C145.604 120.984 143.158 118.455 141.632 119.017C140.105 119.579 133.856 120.984 133.856 120.984V122.67Z" fill="#575A89"/>
<path d="M115.484 119.017C115.484 119.017 112.485 125.76 114.485 126.322C116.484 126.884 118.734 126.041 118.984 125.76C119.234 125.479 122.733 124.356 123.233 124.917C123.733 125.479 123.733 122.67 123.733 122.67L115.484 119.017Z" fill="#575A89"/>
<path d="M117.984 109.744C117.984 109.744 113.235 117.05 116.734 119.017C120.234 120.984 136.981 120.984 138.231 119.017C139.48 117.05 139.98 110.868 138.231 110.306C136.481 109.744 117.984 109.744 117.984 109.744Z" fill="#2F2E41"/>
<path opacity="0.2" d="M117.984 109.744C117.984 109.744 113.235 117.05 116.734 119.017C120.234 120.984 136.981 120.984 138.231 119.017C139.48 117.05 139.98 110.868 138.231 110.306C136.481 109.744 117.984 109.744 117.984 109.744Z" fill="black"/>
<path d="M126.982 76.5864C130.158 76.5864 132.731 73.6928 132.731 70.1235C132.731 66.5541 130.158 63.6606 126.982 63.6606C123.807 63.6606 121.233 66.5541 121.233 70.1235C121.233 73.6928 123.807 76.5864 126.982 76.5864Z" fill="#FFB9B9"/>
<path d="M117.984 80.2393L122.983 79.1153C122.983 79.1153 124.233 83.6112 128.232 82.7682C132.231 81.9252 133.231 79.1153 133.231 79.1153C133.231 79.1153 136.231 80.5203 136.481 80.5203C136.731 80.5203 139.98 81.9252 139.98 82.7682C139.98 83.6112 136.231 92.0411 136.231 92.0411L136.731 107.215L118.234 106.653L119.484 91.7601L117.984 80.2393Z" fill="#00BF6B"/>
<path d="M115.234 87.5452C115.234 87.5452 113.735 102.438 114.735 103.562C115.734 104.686 119.734 107.777 119.734 107.777V104.405L117.734 100.19L119.734 90.3551L115.234 87.5452Z" fill="#FFB9B9"/>
<path d="M141.105 87.1237C141.105 87.1237 140.23 102.438 140.23 103C140.23 103.562 137.981 105.529 137.231 105.529C136.481 105.529 135.981 104.124 135.981 104.124L137.731 101.876L136.481 90.3551L141.105 87.1237Z" fill="#FFB9B9"/>
<path d="M138.73 108.62C138.73 108.62 149.978 101.595 150.228 108.62C150.478 115.645 144.479 118.455 144.479 118.455C144.479 118.455 128.982 123.679 128.357 121.769C127.732 119.86 126.482 116.769 127.482 116.488C128.482 116.207 129.732 115.645 130.232 116.207C130.732 116.769 136.981 111.992 136.981 111.992L138.73 108.62Z" fill="#2F2E41"/>
<path opacity="0.2" d="M143.98 107.777C143.98 107.777 141.73 108.901 140.98 109.744C140.23 110.587 136.981 111.992 136.981 111.992" stroke="black" stroke-width="2" stroke-miterlimit="10"/>
<path d="M119.484 80.8013L117.984 80.2393C117.984 80.2393 112.485 86.7022 114.235 88.3882C115.984 90.0742 116.984 90.6361 117.484 91.1981C117.984 91.7601 120.483 92.0411 120.483 92.0411L119.484 80.8013Z" fill="#00BF6B"/>
<path d="M137.731 82.2063L139.98 82.7683C139.98 82.7683 141.73 86.9832 142.23 87.5452C142.73 88.1072 141.48 87.8262 140.73 88.9502C139.98 90.0741 139.23 92.0411 137.731 92.0411C136.231 92.0411 134.231 89.2312 134.231 89.2312L137.731 82.2063Z" fill="#00BF6B"/>
<path d="M118.484 111.149C118.484 111.149 108.985 103.562 105.736 109.182C102.487 114.802 119.734 122.389 122.233 123.513C124.733 124.637 126.982 125.76 126.982 125.76C126.982 125.76 129.232 119.579 129.232 118.455C129.232 117.331 127.482 117.331 126.982 117.331C126.483 117.331 124.233 116.769 123.733 115.926C123.233 115.083 118.484 111.149 118.484 111.149Z" fill="#2F2E41"/>
<path opacity="0.2" d="M113.235 109.182C113.235 109.182 115.734 111.43 117.984 111.992C120.234 112.554 120.983 113.959 120.983 113.959" stroke="black" stroke-width="2" stroke-miterlimit="10"/>
<path d="M116.76 98.6165L116.959 110.514C116.966 110.907 117.11 111.281 117.361 111.555C117.612 111.828 117.949 111.98 118.299 111.975L137.994 111.726C138.329 111.722 138.651 111.575 138.894 111.314C139.136 111.054 139.282 110.7 139.302 110.323L139.899 98.6742C139.91 98.4717 139.883 98.269 139.821 98.0784C139.76 97.8879 139.664 97.7135 139.54 97.566C139.416 97.4185 139.267 97.301 139.101 97.2207C138.936 97.1404 138.757 97.099 138.577 97.099H118.084C117.908 97.099 117.734 97.1385 117.571 97.2151C117.409 97.2917 117.262 97.4039 117.139 97.5452C117.015 97.6865 116.918 97.854 116.853 98.0379C116.788 98.2219 116.756 98.4186 116.76 98.6165Z" fill="#575A89"/>
<path d="M127.29 62.0048C127.29 62.0048 127.61 63.2052 125.795 64.2855C123.979 65.3659 123.446 69.4471 125.581 70.6475C127.717 71.8478 128.357 73.4083 127.29 74.4887C126.222 75.569 124.3 78.4499 126.862 79.1701C129.425 79.8903 129.745 81.3308 128.998 81.9309C128.251 82.5311 130.706 80.8506 130.706 80.8506C130.706 80.8506 131.134 83.7315 133.376 83.0113C135.618 82.2911 137.856 69.1991 135.356 65.8272C133.032 62.6919 127.29 62.0048 127.29 62.0048Z" fill="#2F2E41"/>
<path d="M126.607 60.7693C126.608 59.0106 131.288 60.2743 133.295 62.7297C134.684 64.43 136.795 66.9881 135.026 68.7913C133.258 70.5945 138.058 72.9583 139.345 73.675C140.632 74.3917 143.174 76.5834 140.879 78.0536C138.584 79.5239 138.621 81.0081 139.485 81.3595C140.349 81.7109 137.581 80.837 137.581 80.837C137.581 80.837 137.86 83.7407 135.528 83.7268C133.196 83.7129 126.506 69.3053 128.104 65.3006C129.59 61.5769 126.607 60.7693 126.607 60.7693Z" fill="#2F2E41"/>
<path d="M127.621 60.3839C121.363 59.9602 120.734 65.2563 120.734 65.2563C120.778 68.3212 125.107 66.8278 126.31 67.2847C127.76 66.1115 130.557 63.8916 132.557 62.3075C131.105 61.1582 129.394 60.4915 127.621 60.3839Z" fill="#2F2E41"/>
<path d="M125.838 94.1792C125.838 94.1792 120.224 64.6008 85.0847 43.144" stroke="#3F3D56" stroke-width="2" stroke-miterlimit="10"/>
<path d="M86.5326 42.4988L86.6029 42.8231L85.1815 43.2106L85.6293 44.7761L85.3466 44.878L84.8015 42.9712L86.5326 42.4988Z" fill="#3F3D56"/>
<path d="M10.1557 124.402C10.1557 128.148 8.17477 129.456 5.73089 129.456C5.67428 129.456 5.61775 129.455 5.56132 129.454C5.44809 129.451 5.33593 129.445 5.22513 129.437C3.01958 129.261 1.30603 127.886 1.30603 124.402C1.30603 120.796 5.40468 116.246 5.71256 115.91L5.7131 115.909C5.72496 115.896 5.73089 115.89 5.73089 115.89C5.73089 115.89 10.1557 120.655 10.1557 124.402Z" fill="#00BF6B"/>
<path d="M5.56966 128.883L7.18803 126.341L5.56561 129.162L5.5613 129.454C5.44807 129.451 5.33592 129.445 5.22512 129.437L5.39955 125.689L5.3982 125.659L5.40116 125.654L5.41761 125.3L3.79114 122.472L5.42273 125.035L5.42651 125.11L5.55833 122.278L4.16588 119.355L5.57532 121.781L5.71254 115.91L5.71308 115.89V115.909L5.69017 120.539L7.07643 118.703L5.68451 120.938L5.64784 123.473L6.94217 121.04L5.64245 123.846L5.62196 125.256L7.50104 121.869L5.61495 125.748L5.56966 128.883Z" fill="#3F3D56"/>
<path d="M31.2612 123.431L32.2077 122.641C32.2077 122.641 32.8342 126.575 32.1351 127.165C31.436 127.754 28.8142 128.736 28.8142 129.915C28.8142 131.094 22.8715 132.666 22.6967 130.898C22.5219 129.129 23.221 128.147 23.221 128.147C23.221 128.147 26.0176 125.003 26.3672 124.414C26.7168 123.824 27.5907 122.645 27.5907 122.645L31.2612 123.431Z" fill="#2F2E41"/>
<path d="M17.2783 74.5054C17.2783 74.5054 17.3045 74.6783 17.35 74.9947C17.3919 75.2757 17.4496 75.6726 17.5195 76.1618C18.2536 81.1979 20.3948 96.0229 20.2497 96.5122C20.0749 97.1017 18.8514 99.263 20.2497 99.8525C20.3843 99.9095 20.5293 100.094 20.6849 100.385C20.9851 101.011 21.2327 101.668 21.4242 102.346C22.258 105.065 23.1494 109.418 23.665 112.432C23.8905 113.756 24.0443 114.821 24.0897 115.379C24.1055 115.508 24.1073 115.639 24.095 115.768C23.9202 116.554 25.1437 119.305 25.668 120.091C26.1924 120.877 27.0663 121.663 26.8915 122.449C26.7167 123.235 31.2612 125.396 31.7855 124.021C32.3099 122.645 32.3099 121.859 32.4846 121.466C32.6594 121.073 32.8342 118.322 31.9603 117.93C31.0864 117.537 31.6107 110.659 30.7368 109.284C30.4449 108.826 29.9992 107.276 29.5325 105.411C29.349 104.68 29.1637 103.902 28.9819 103.122C28.2444 99.9252 27.5907 96.7087 27.5907 96.7087L27.7654 73.7195L18.1522 72.3441L17.9058 72.9551L17.4147 74.1675L17.2783 74.5054Z" fill="#2F2E41"/>
<path d="M16.754 112.231C16.754 112.231 15.3557 110.659 14.6566 112.231C13.9574 113.803 13.2583 119.894 12.0348 121.27C10.8113 122.645 9.23824 129.522 10.9861 129.915C12.734 130.308 14.6566 129.326 14.8314 128.147C15.0062 126.968 18.6766 120.877 18.6766 120.287C18.6766 119.698 16.2296 117.537 16.2296 117.537L16.754 112.231Z" fill="#2F2E41"/>
<path d="M38.2526 63.6985C38.2526 63.6985 35.9804 86.6878 35.456 88.8491C34.9317 91.0105 32.1351 99.2631 31.2612 100.638C30.3872 102.014 24.7941 113.214 24.095 113.803C23.3958 114.393 21.9975 115.965 21.9975 115.965C21.9975 115.965 19.3758 118.912 19.0262 119.501C18.6766 120.091 15.7053 118.322 15.5305 117.144C15.3557 115.965 15.7053 114 15.8801 113.214C16.0548 112.428 15.5305 111.249 16.0548 110.659C16.5792 110.07 19.201 107.123 19.201 105.747C19.201 104.372 23.7454 96.3157 25.4933 94.5473C27.2411 92.7789 26.8915 89.8316 26.8915 89.8316V77.8458L17.2783 74.5054C17.2783 74.5054 17.8027 65.074 19.0262 65.074C20.2497 65.074 36.3299 61.9301 38.2526 63.6985Z" fill="#2F2E41"/>
<path d="M24.095 30.8849C27.2805 30.8849 29.8629 27.9818 29.8629 24.4008C29.8629 20.8197 27.2805 17.9166 24.095 17.9166C20.9095 17.9166 18.3271 20.8197 18.3271 24.4008C18.3271 27.9818 20.9095 30.8849 24.095 30.8849Z" fill="#9F616A"/>
<path d="M26.0176 29.5095C26.0176 29.5095 26.7168 32.4569 27.5907 33.2428C28.4646 34.0288 25.3185 37.3691 25.3185 37.3691L19.3758 37.7621L18.3271 34.0288C18.3271 34.0288 20.2497 29.706 19.7254 26.9552C19.201 24.2043 26.0176 29.5095 26.0176 29.5095Z" fill="#9F616A"/>
<path d="M28.4646 32.8498C28.4646 32.8498 26.8915 33.0463 26.5419 33.6357C26.1924 34.2252 23.7454 35.9936 21.8227 35.6006C19.9001 35.2077 18.6766 34.6182 18.327 34.8147C17.9775 35.0112 17.2783 39.1374 17.2783 39.1374L19.201 45.4251L18.8514 62.7161L18.327 67.4318C18.327 67.4318 17.2783 65.8599 21.4732 66.8424C25.668 67.8248 31.0864 66.0564 32.8342 65.8599C34.5821 65.6634 37.5534 65.074 37.7282 63.895C37.903 62.7161 37.2039 58.3933 37.2039 58.3933L34.4073 45.2286L32.6594 38.155L28.4646 32.8498Z" fill="#00BF6B"/>
<path d="M26.8113 31.963C26.8113 31.963 28.2898 31.0814 28.8142 31.8674C29.3385 32.6534 35.9804 33.8323 35.9804 34.4218C35.9804 35.0112 37.3787 50.9268 37.0291 52.3023C36.6795 53.6777 37.7282 55.2496 37.7282 55.2496L38.9517 61.1443C38.9517 61.1443 42.2727 72.3441 40.8744 72.7371C39.4761 73.1301 38.2526 72.7371 37.7282 72.7371C37.2039 72.7371 37.3787 65.2705 35.9804 63.3056C34.5821 61.3407 32.6595 56.4285 32.3099 55.4461C31.9603 54.4636 27.5907 40.9059 27.7655 39.334C27.9403 37.7621 26.8113 31.963 26.8113 31.963Z" fill="#D0CDE1"/>
<path d="M19.5506 32.8498C19.5506 32.8498 18.1523 32.8498 17.9775 33.2428C17.8027 33.6358 16.0549 36.1901 15.3557 36.7796C14.6566 37.369 12.2096 39.9234 12.2096 40.5129C12.2096 41.1023 17.2784 45.4251 17.2784 45.4251C17.2784 45.4251 19.3758 57.0179 18.3271 60.9477C17.2784 64.8775 15.7053 74.3089 16.4044 74.8984C17.1036 75.4879 18.6766 75.6844 18.6766 74.8984C18.6766 74.1125 19.7254 65.6634 20.5993 63.895C21.4732 62.1266 24.095 50.9268 23.0463 47.7829C21.9976 44.6391 19.5506 32.8498 19.5506 32.8498Z" fill="#D0CDE1"/>
<path d="M42.6222 52.3022C42.6222 52.3022 42.797 58.3934 40.8744 61.5372C38.9517 64.681 37.7282 68.2178 37.7282 68.2178C37.7282 68.2178 34.5821 67.2354 34.0577 66.0565C33.5334 64.8775 30.2125 65.86 30.2125 65.467C30.2125 65.074 34.2325 63.1091 34.5821 62.7161C34.9317 62.3232 36.1552 62.3232 36.8543 61.5372C37.5534 60.7513 37.7282 58.9829 37.7282 58.9829L38.4274 53.8742L42.6222 52.3022Z" fill="#9F616A"/>
<path d="M28.0676 20.4028C28.5114 20.3575 28.969 20.3076 29.3612 20.0699C30.2399 19.5371 30.4729 18.0201 29.804 17.1869C29.6196 16.9749 29.4133 16.7885 29.1895 16.6315L27.8609 15.6149C27.2733 15.1652 26.6718 14.7083 25.9864 14.4963C25.3666 14.3046 24.7119 14.3243 24.0702 14.3691C22.8245 14.4562 21.5712 14.6359 20.3996 15.1194C19.2279 15.6029 18.135 16.4118 17.4254 17.566C16.3005 19.3957 16.2851 21.8635 16.9046 23.9759C17.5242 26.0882 18.7011 27.9277 19.8607 29.7298L20.4625 26.4294C20.5161 26.1354 20.5854 25.8132 20.8028 25.6392C21.3434 25.2068 22.0046 26.0947 22.668 26.0889C23.0943 26.0852 23.4522 25.6911 23.6137 25.2476C23.7753 24.8041 23.7859 24.313 23.8233 23.8356C23.9024 22.8245 24.2168 21.4176 25.0686 20.86C25.8623 20.3404 27.1755 20.4939 28.0676 20.4028Z" fill="#2F2E41"/>
<path opacity="0.1" d="M27.7441 74.664C27.7441 74.664 27.1537 93.8596 26.8042 94.4491C26.4546 95.0386 26.8042 74.6037 26.8042 74.6037L27.7441 74.664Z" fill="black"/>
<path d="M34.5821 34.4217H35.9804C35.9804 34.4217 41.9231 43.4602 41.2239 44.0497C40.5248 44.6391 41.2239 46.211 41.2239 46.211L42.6222 49.1584C42.6222 49.1584 44.3701 50.9268 43.8457 51.3197C43.3214 51.7127 42.6222 53.2846 42.6222 53.2846C42.6222 53.2846 39.1265 52.6952 38.0778 55.053L35.8109 51.8358L34.5821 34.4217Z" fill="#D0CDE1"/>
<path d="M35.0763 37.329L30.2782 39.5563L33.9705 49.608L38.7686 47.3806L35.0763 37.329Z" fill="#2F2E41"/>
<path d="M34.514 43.2243C35.044 42.9783 35.3106 42.3351 35.1096 41.7878C34.9085 41.2405 34.3159 40.9962 33.7859 41.2423C33.2559 41.4883 32.9893 42.1314 33.1903 42.6788C33.3914 43.2261 33.984 43.4703 34.514 43.2243Z" fill="#00BF6B"/>
<path d="M31.0864 50.1409C31.0864 50.1409 18.5018 61.9302 16.4044 58.1969C14.307 54.4636 18.6766 51.3198 18.6766 51.3198C18.6766 51.3198 22.5219 51.5163 26.8915 48.3725L31.2612 46.2111C31.2612 46.2111 35.2503 39.8087 36.6097 42.2467C37.9691 44.6846 34.2893 48.9277 31.0864 50.1409Z" fill="#9F616A"/>
<path d="M14.1322 39.7269L12.2096 40.5129V46.4076L11.5104 47.5865C11.5104 47.5865 11.6852 49.9444 12.2096 50.5338C12.7339 51.1233 13.7826 50.9268 13.4331 52.3022C13.223 53.1989 13.1637 54.1319 13.2583 55.0531C13.2583 55.0531 16.4044 59.5723 16.5792 58.9828C16.754 58.3934 19.201 51.1233 19.5506 51.1233C19.9001 51.1233 16.0549 39.7269 16.0549 39.7269H14.1322Z" fill="#D0CDE1"/>
<path d="M37.1165 69.495C37.1165 69.495 38.9237 67.5301 38.0201 67.4318C37.1165 67.3336 33.9704 65.3687 33.446 66.3511C32.9216 67.3336 37.1165 69.495 37.1165 69.495Z" fill="#2F2E41"/>
<path d="M71.4886 32.0129C72.8811 32.0129 74.01 31.341 74.01 30.5123C74.01 29.6835 72.8811 29.0117 71.4886 29.0117C70.0961 29.0117 68.9672 29.6835 68.9672 30.5123C68.9672 31.341 70.0961 32.0129 71.4886 32.0129Z" fill="#57B894"/>
<path d="M81.1292 35.5143C75.4438 33.1004 69.7583 33.1004 64.0728 35.5143V27.6778C69.6344 25.7912 75.5676 25.7912 81.1292 27.6778V35.5143Z" stroke="#3F3D56" stroke-width="2" stroke-miterlimit="10"/>
<path d="M78.7561 33.8936C74.6527 32.1514 70.5493 32.1514 66.4459 33.8936V28.2377C70.4599 26.8761 74.7421 26.8761 78.7561 28.2377V33.8936Z" stroke="#3F3D56" stroke-width="2" stroke-miterlimit="10"/>
<path d="M72.3786 31.3459C73.7711 31.3459 74.8999 30.6741 74.8999 29.8453C74.8999 29.0166 73.7711 28.3447 72.3786 28.3447C70.986 28.3447 69.8572 29.0166 69.8572 29.8453C69.8572 30.6741 70.986 31.3459 72.3786 31.3459Z" stroke="#3F3D56" stroke-width="2" stroke-miterlimit="10"/>
<path d="M73.3426 41.4106C74.707 41.0975 75.6935 40.1855 75.5461 39.3735C75.3987 38.5614 74.1731 38.1569 72.8087 38.47C71.4443 38.783 70.4578 39.6951 70.6052 40.5071C70.7526 41.3191 71.9782 41.7236 73.3426 41.4106Z" fill="#57B894"/>
<path d="M83.4113 42.674C77.4113 41.587 71.8407 42.8651 66.6994 46.5084L65.3054 38.8302C70.4191 35.7314 76.2324 34.3976 82.0173 34.9958L83.4113 42.674Z" stroke="#3F3D56" stroke-width="2" stroke-miterlimit="10"/>
<path d="M80.7978 41.6196C76.4674 40.835 72.4468 41.7575 68.7362 44.387L67.7301 38.8454C71.4208 36.6088 75.6166 35.6462 79.7917 36.078L80.7978 41.6196Z" stroke="#3F3D56" stroke-width="2" stroke-miterlimit="10"/>
<path d="M74.0959 40.5571C75.4603 40.244 76.4468 39.332 76.2994 38.5199C76.152 37.7079 74.9264 37.3034 73.562 37.6165C72.1976 37.9295 71.2111 38.8416 71.3585 39.6536C71.5059 40.4656 72.7315 40.8701 74.0959 40.5571Z" stroke="#3F3D56" stroke-width="2" stroke-miterlimit="10"/>
<path d="M75.068 49.464C75.1192 48.6372 74.0346 47.8789 72.6454 47.7702C71.2562 47.6616 70.0886 48.2437 70.0374 49.0705C69.9863 49.8972 71.0709 50.6555 72.4601 50.7642C73.8492 50.8729 75.0169 50.2908 75.068 49.464Z" fill="#57B894"/>
<path d="M81.8612 55.0095C76.3385 52.1577 70.6668 51.7141 64.8459 53.6785L65.3299 45.8609C70.9946 44.4128 76.9134 44.8758 82.3451 47.192L81.8612 55.0095Z" stroke="#3F3D56" stroke-width="2" stroke-miterlimit="10"/>
<path d="M79.5939 53.2076C75.608 51.1494 71.5145 50.8292 67.3134 52.247L67.6626 46.6047C71.7511 45.5596 76.0229 45.8938 79.9432 47.5654L79.5939 53.2076Z" stroke="#3F3D56" stroke-width="2" stroke-miterlimit="10"/>
<path d="M75.997 48.8682C76.0482 48.0414 74.9636 47.2831 73.5744 47.1744C72.1852 47.0657 71.0176 47.6479 70.9664 48.4746C70.9153 49.3014 71.9999 50.0597 73.3891 50.1684C74.7782 50.2771 75.9459 49.6949 75.997 48.8682Z" stroke="#3F3D56" stroke-width="2" stroke-miterlimit="10"/>
<path d="M61.5398 35.6962C61.5398 35.6962 50.6391 34.0197 42.8546 39.1482" stroke="#3F3D56" stroke-width="2" stroke-miterlimit="10"/>
<path d="M43.1168 37.4248L43.3999 37.5255L42.9573 39.0926L44.3803 39.4743L44.311 39.7989L42.5782 39.3336L43.1168 37.4248Z" fill="#3F3D56"/>
</svg>
