<svg width="275" height="179" viewBox="0 0 275 179" fill="none" xmlns="http://www.w3.org/2000/svg">
<path d="M275 176.977H0V179H275V176.977Z" fill="#85848B"/>
<path d="M217.871 141.253C217.871 142.809 208.861 147.346 198.158 147.346C187.455 147.346 179.115 142.809 179.115 141.253C179.115 139.696 187.79 140.198 198.504 140.198C209.217 140.198 217.871 139.694 217.871 141.253Z" fill="#504F60"/>
<path opacity="0.2" d="M217.871 141.253C217.871 142.809 208.861 147.346 198.158 147.346C187.455 147.346 179.115 142.809 179.115 141.253" fill="black"/>
<path d="M110.083 112.696C111.82 112.92 113.623 113.062 115.287 112.519C115.549 112.437 115.837 112.255 115.811 111.991C115.792 111.896 115.752 111.805 115.693 111.728C115.066 110.781 114.539 109.77 114.121 108.713C114.104 108.657 114.07 108.609 114.024 108.575C113.97 108.556 113.91 108.556 113.856 108.575C113.089 108.779 112.426 109.277 111.663 109.491C111.275 109.598 110.869 109.629 110.468 109.58C110.123 109.541 109.651 109.253 109.337 109.29C109.515 110.443 109.95 111.519 110.083 112.696Z" fill="#6C63FF"/>
<path d="M142.937 109.776C144.082 108.984 145.269 108.153 145.945 106.932C145.993 106.859 146.021 106.774 146.026 106.687C146.014 106.601 145.981 106.519 145.929 106.449C145.285 105.419 144.456 104.518 143.484 103.793C142.977 104.154 142.519 104.579 142.122 105.059C141.834 105.365 141.037 105.851 141.029 106.317C141.029 106.581 141.333 106.887 141.475 107.109C141.666 107.394 141.847 107.684 142.02 107.979C142.119 108.124 143.028 109.718 142.937 109.776Z" fill="#6C63FF"/>
<path d="M116.893 116.228C116.913 116.499 116.839 116.77 116.683 116.993C116.561 117.117 116.41 117.207 116.243 117.256C113.814 118.132 111.003 117.04 108.579 117.903C108.082 118.079 107.61 118.335 107.11 118.504C106.513 118.685 105.897 118.795 105.275 118.831C104.419 118.913 103.557 118.966 102.697 118.99C102.044 119.036 101.388 118.978 100.753 118.818C100.436 118.736 100.139 118.588 99.8819 118.383C99.6251 118.178 99.4139 117.921 99.2623 117.628C99.1306 117.366 99.1043 117.063 99.189 116.782C99.227 116.685 99.281 116.596 99.3488 116.518C99.513 116.332 99.7059 116.175 99.92 116.051L100.813 115.471C101.232 115.172 101.688 114.929 102.168 114.748C102.522 114.632 102.896 114.582 103.255 114.484C104.51 114.115 105.469 113.112 106.36 112.15L107.576 110.844C107.69 110.7 107.834 110.584 107.998 110.504C108.166 110.447 108.346 110.43 108.522 110.454C109.703 110.538 110.843 110.923 111.836 111.572C112.09 111.764 112.364 111.926 112.654 112.057C113.366 112.337 114.281 112.126 114.938 111.772C115.25 111.604 115.182 111.509 115.313 111.208C115.444 110.907 115.764 110.715 116.041 110.989C116.125 111.084 116.185 111.198 116.214 111.321C116.476 112.192 116.377 113.128 116.377 114.041C116.369 114.184 116.387 114.327 116.429 114.463C116.496 114.601 116.576 114.731 116.668 114.853C116.686 114.886 116.703 114.919 116.717 114.954C116.878 115.358 116.938 115.795 116.893 116.228Z" fill="#514E7F"/>
<path d="M116.893 116.228C116.913 116.499 116.839 116.77 116.683 116.993C116.561 117.117 116.41 117.207 116.243 117.256C113.814 118.132 111.003 117.04 108.579 117.903C108.082 118.079 107.61 118.335 107.11 118.504C106.513 118.685 105.897 118.795 105.275 118.831C104.419 118.913 103.557 118.966 102.697 118.99C102.044 119.036 101.388 118.978 100.753 118.818C100.436 118.736 100.139 118.588 99.8819 118.383C99.6251 118.178 99.4139 117.921 99.2623 117.628C99.1306 117.366 99.1043 117.063 99.189 116.782C99.227 116.685 99.281 116.596 99.3488 116.518C99.4903 116.816 99.5925 117.212 99.6815 117.354C99.8019 117.565 99.9656 117.748 100.162 117.89C100.358 118.033 100.582 118.131 100.819 118.18C101.173 118.202 101.529 118.156 101.867 118.045C104.068 117.497 106.407 117.489 108.522 116.658C109.248 116.37 109.939 115.988 110.702 115.814C111.464 115.639 112.274 115.687 113.06 115.621C114.302 115.521 115.504 115.144 116.728 114.946C116.886 115.353 116.943 115.793 116.893 116.228Z" fill="#464353"/>
<path d="M148.499 109.615C148.384 110.543 147.8 111.342 147.158 112.02C146.516 112.698 145.79 113.308 145.279 114.088C144.65 115.057 144.367 116.257 143.55 117.074C143.236 117.372 142.883 117.625 142.502 117.826C142.074 118.08 141.622 118.29 141.152 118.451C139.931 118.844 138.616 118.755 137.34 118.66C136.926 118.656 136.516 118.576 136.13 118.425C135.954 118.335 135.786 118.231 135.627 118.114C135.307 117.915 135.038 117.644 134.841 117.322C134.744 117.147 134.717 116.942 134.765 116.747C134.838 116.533 134.963 116.341 135.129 116.188C135.416 115.888 135.724 115.608 136.051 115.352C136.5 115.061 136.904 114.705 137.251 114.297C137.464 113.974 137.621 113.617 137.715 113.242C137.9 112.584 138.014 111.907 138.053 111.224C138.051 110.77 138.098 110.317 138.192 109.873C138.386 109.177 138.899 108.554 138.841 107.834C138.818 107.731 138.827 107.623 138.868 107.526C138.929 107.449 139.014 107.396 139.109 107.375C139.509 107.215 139.931 107.116 140.361 107.082C140.577 107.067 140.793 107.101 140.994 107.18C141.195 107.26 141.376 107.383 141.524 107.541C141.703 107.758 141.821 108.069 142.083 108.153C142.212 108.189 142.349 108.194 142.481 108.169C143.125 108.103 143.807 108.021 144.315 107.602C144.55 107.39 144.739 107.131 144.869 106.842C145 106.553 145.07 106.239 145.075 105.922C145.075 105.682 144.967 105.431 145.337 105.394C145.614 105.357 145.835 105.658 145.976 105.843C146.487 106.531 147.011 107.251 147.202 108.09C147.277 108.061 147.356 108.046 147.435 108.045C147.599 108.044 147.76 108.082 147.906 108.157C148.051 108.232 148.177 108.341 148.271 108.475C148.48 108.815 148.561 109.22 148.499 109.615Z" fill="#514E7F"/>
<path d="M148.499 109.615C148.384 110.543 147.8 111.342 147.158 112.02C146.516 112.698 145.79 113.308 145.279 114.088C144.65 115.057 144.367 116.257 143.55 117.074C143.236 117.372 142.883 117.625 142.502 117.826C142.074 118.08 141.622 118.29 141.152 118.451C139.931 118.844 138.616 118.755 137.34 118.66C136.926 118.656 136.516 118.576 136.13 118.425C135.954 118.335 135.786 118.231 135.627 118.114C135.307 117.915 135.038 117.644 134.841 117.322C135.086 117.204 135.354 117.139 135.627 117.133C136.193 117.164 136.607 117.702 137.149 117.868C137.922 118.103 138.692 117.555 139.476 117.367C139.986 117.246 140.524 117.278 141.029 117.103C141.451 116.94 141.84 116.702 142.179 116.402C142.645 116.067 143.059 115.665 143.408 115.21C143.699 114.754 143.94 114.268 144.129 113.761C144.543 112.79 145.03 111.851 145.586 110.955C145.668 110.813 145.767 110.682 145.882 110.564C146.005 110.451 146.144 110.372 146.283 110.272C146.807 109.873 147.024 109.216 147.207 108.573C147.257 108.377 147.326 108.187 147.414 108.006C147.578 108.004 147.739 108.043 147.885 108.117C148.03 108.192 148.156 108.301 148.25 108.436C148.476 108.784 148.564 109.204 148.499 109.615Z" fill="#464353"/>
<path d="M93.5584 27.3727C94.2105 27.8647 94.7472 28.4951 95.1304 29.2192C95.4972 29.9419 97.6117 35.5499 97.4885 36.365C98.1776 35.666 100.895 35.5526 101.592 34.8535C101.882 34.5607 103.452 33.0994 103.688 32.7591C103.923 32.4188 105.674 31.704 105.865 31.3452C106.58 30.0553 100.792 25.1675 101.534 23.8934C101.575 23.8348 101.596 23.7645 101.594 23.6929C101.577 23.6328 101.544 23.5788 101.497 23.5373C101.023 23.0493 100.394 22.7459 99.823 22.3846C99.2518 22.0232 98.7016 21.5193 98.547 20.8546C98.0023 21.107 97.5023 21.4474 97.0667 21.8623C96.0047 22.7785 94.961 23.7131 93.9357 24.6663C93.5348 25.0408 92.7592 25.5394 92.5732 26.0749C92.3531 26.6499 93.1758 27.0588 93.5584 27.3727Z" fill="#A1616A"/>
<path d="M102.928 25.2967C102.04 25.8975 101.21 26.5811 100.449 27.3384C99.7313 28.0532 99.0501 28.8815 98.8772 29.8813C98.8038 30.2743 98.8143 30.6726 98.754 31.0709C98.492 32.7987 97.009 34.0648 96.354 35.6818C96.1643 36.1809 96.0247 36.6979 95.9374 37.225C95.7534 38.2241 95.6526 39.2371 95.6361 40.2532C95.6204 41.2371 96.5794 41.915 96.9304 42.833C97.2815 43.7509 97.3759 44.6953 97.554 45.637C97.8894 47.4149 98.5051 49.1294 99.1261 50.8335C100.418 54.4262 104.605 64.3576 105.896 67.9529C109.855 66.9532 120.393 64.6557 123.899 62.548C125.068 61.8464 115.79 53.9303 117.04 53.3842C117.111 53.3731 117.179 53.3453 117.238 53.3032C117.297 53.261 117.345 53.2057 117.379 53.1414C117.413 53.0772 117.432 53.0059 117.434 52.9332C117.436 52.8604 117.421 52.7882 117.391 52.7222C116.141 47.2197 112.232 42.6984 110.458 37.341C109.842 35.4814 108.737 33.8934 107.898 32.126C107.138 30.5249 106.732 28.7549 105.823 27.2329C105.652 26.9193 105.427 26.6381 105.16 26.402C104.933 26.2269 104.688 26.0774 104.429 25.9562C103.91 25.7029 103.428 25.5526 102.928 25.2967Z" fill="#514E7F"/>
<path d="M93.768 26.7475C97.1902 26.7475 99.9645 23.9545 99.9645 20.5091C99.9645 17.0637 97.1902 14.2706 93.768 14.2706C90.3458 14.2706 87.5715 17.0637 87.5715 20.5091C87.5715 23.9545 90.3458 26.7475 93.768 26.7475Z" fill="#A1616A"/>
<path d="M100.072 23.4397C100.381 23.1529 100.769 22.9671 101.185 22.9069C101.6 22.8466 102.025 22.9146 102.401 23.102C102.82 23.321 103.187 23.7641 103.093 24.2284L106.166 24.2759C106.655 24.2624 107.144 24.3076 107.623 24.4104C108.105 24.516 108.535 24.7875 108.839 25.178C108.875 25.2281 108.917 25.2888 108.98 25.2967C109.031 25.2975 109.081 25.2808 109.122 25.2492C109.595 25.0105 110.127 24.9187 110.652 24.9855C112.313 25.0936 113.848 25.9298 115.151 26.9744C115.385 27.1369 115.568 27.3653 115.675 27.6312C115.782 27.982 115.654 28.4225 115.937 28.6731C115.937 31.5747 116.927 34.2864 117.587 37.1142C117.705 37.618 118.185 38.0638 118.517 38.4594C118.929 38.8981 119.264 39.4027 119.51 39.9525C120.071 41.4191 119.298 43.1442 119.843 44.6161C120.074 45.2387 120.519 45.7504 120.891 46.2911C121.382 46.9155 121.692 47.664 121.787 48.4542C121.811 48.8076 121.766 49.1637 121.787 49.5093C121.822 49.9846 121.91 50.4544 122.049 50.91C122.273 51.7611 122.507 52.6114 122.751 53.4607C123.15 54.8324 123.669 56.3122 124.889 57.0429C121.942 57.5467 118.834 58.04 116.026 57.0086C115.634 56.8741 115.262 56.6868 114.92 56.452C113.906 55.724 113.416 54.4789 112.979 53.3025C112.491 51.9836 111.996 50.6409 111.896 49.2376C111.897 48.7913 111.835 48.3471 111.71 47.9187C111.425 47.1537 110.662 46.6921 109.971 46.2674C109.19 45.8365 108.482 45.2826 107.875 44.6267C107.573 44.2963 107.342 43.9072 107.196 43.4834C107.05 43.0597 106.992 42.6102 107.026 42.163C107.078 41.7277 107.248 41.3083 107.264 40.8704C107.28 40.4325 107.086 39.9314 106.669 39.8153C104.523 39.1611 103.499 36.6024 103.022 34.3972C102.816 33.2575 102.724 32.0999 102.747 30.9417L102.718 28.6916C102.422 28.4204 102.184 28.0913 102.018 27.7244C101.852 27.3575 101.763 26.9605 101.754 26.5576C101.782 26.3225 101.778 26.0845 101.741 25.8507C101.637 25.5648 101.469 25.3073 101.248 25.0989C100.775 24.6094 100.378 24.0498 100.072 23.4397Z" fill="#464353"/>
<path d="M93.4719 30.5724C93.4012 31.2687 93.5584 31.9836 93.4038 32.6668C93.3435 32.9306 93.2387 33.1944 93.1628 33.4397C92.9305 34.423 93.031 35.4563 93.4483 36.3756C93.8652 37.2858 94.3642 38.1556 94.9392 38.9738C95.1337 39.2532 95.2938 39.5552 95.416 39.8733C95.5151 40.2074 95.5767 40.5516 95.5994 40.8994C95.7512 42.2963 95.9945 43.6815 96.3278 45.0461C96.6213 46.2278 99.9541 56.3307 100.73 57.2671C100.87 57.4744 101.084 57.6205 101.327 57.676C101.502 57.6826 101.677 57.6464 101.835 57.5705L103.407 56.9638C103.541 56.9226 103.665 56.8544 103.772 56.7633C103.919 56.59 103.999 56.3689 103.997 56.1408C104.11 54.8535 100.769 44.6794 100.344 43.4634C99.0606 39.7915 97.3523 36.2516 96.5165 32.4505C96.2833 31.3954 96.1602 29.7705 95.3925 28.929C95.0754 28.5808 95.1829 28.7285 94.8029 28.9105C94.611 28.9944 94.4253 29.0923 94.2475 29.2033C94.0251 29.359 93.8401 29.5627 93.7059 29.7995C93.5717 30.0364 93.4918 30.3004 93.4719 30.5724Z" fill="#464353"/>
<path d="M98.2431 37.5389C98.665 39.7836 99.0999 42.0231 99.5322 44.2679L105.684 42.6457C105.734 41.9968 105.391 41.3953 105.16 40.7992C104.599 39.3827 104.586 37.8053 104.133 36.3492C103.79 35.2413 103.192 34.2231 102.87 33.1073C102.684 32.4584 102.59 31.7884 102.406 31.1316C102.21 30.4866 101.968 29.8563 101.683 29.2455C101.338 28.3597 100.888 27.5192 100.342 26.7422C99.5558 27.0377 98.7174 27.3806 98.2693 28.0955C98.0395 28.4982 97.9084 28.9504 97.8868 29.4144C97.7794 30.8045 98.2798 32.2025 98.1147 33.5848C97.9447 34.9011 97.9881 36.2365 98.2431 37.5389Z" fill="#6C63FF"/>
<path d="M105.786 67.399C106.132 68.7179 105.632 70.1054 105.223 71.4111C104.608 73.3779 104.188 75.4014 103.971 77.4517C103.944 77.9735 103.84 78.4884 103.661 78.9791C103.468 79.4196 103.137 79.7915 102.912 80.2109C102.294 81.3135 102.31 82.6588 102.443 83.9197C102.532 84.7506 102.666 85.5789 102.831 86.3966C103.033 87.3963 103.282 88.4409 102.991 89.4169C103.478 89.3088 103.808 89.9445 103.777 90.443C103.745 90.9416 103.585 91.4982 103.824 91.9281C104.427 92.1497 104.432 92.9832 104.413 93.6295C104.423 94.7501 104.564 95.8656 104.833 96.9532C105.744 101.367 106.712 105.769 107.736 110.158C109.95 110.849 112.536 111.569 114.648 110.612C115.041 110.435 115.434 110.153 115.523 109.726C115.546 109.495 115.517 109.263 115.439 109.045L114.438 105.378C114.194 104.492 113.951 103.577 114.079 102.667C114.176 101.989 114.469 101.258 114.139 100.659C114.027 100.454 113.848 100.293 113.717 100.097C113.193 99.3246 113.468 98.2905 113.51 97.3541C113.527 97.1439 113.513 96.9324 113.468 96.7263C113.397 96.4856 113.296 96.2545 113.17 96.0378C112.343 94.4211 111.945 92.6163 112.017 90.7991C112.048 90.5672 112.017 90.3311 111.925 90.1159C111.862 90.0271 111.805 89.9336 111.755 89.8363C111.716 89.667 111.735 89.4893 111.81 89.3325C111.51 89.1031 111.239 88.8373 111.003 88.5412C111.148 88.4502 111.271 88.3272 111.362 88.1814C111.454 88.0356 111.511 87.8709 111.529 87.6997C111.548 87.5284 111.528 87.3552 111.47 87.1929C111.413 87.0307 111.319 86.8838 111.197 86.7633C111.304 86.7416 111.403 86.6905 111.482 86.6157C111.562 86.541 111.62 86.4454 111.649 86.3396C111.678 86.2338 111.677 86.122 111.647 86.0166C111.617 85.9112 111.558 85.8163 111.477 85.7424C111.349 85.6527 111.179 85.6132 111.087 85.4786C110.945 85.2834 111.061 85.0117 111.176 84.8034L111.786 83.6928C112.242 82.8672 112.344 81.8464 112.834 81.055C113.537 79.9023 113.995 78.6177 114.448 77.3462L116.212 72.4478L117.399 73.4845C117.794 73.7885 118.125 74.1687 118.373 74.6029C118.542 75.032 118.649 75.4833 118.69 75.9429C119.125 78.6018 120.786 80.9073 121.402 83.5267C121.538 84.1096 121.63 84.7216 121.963 85.2201C122.082 85.3732 122.189 85.5355 122.282 85.7055C122.369 85.9648 122.414 86.2364 122.416 86.51C122.471 87.0458 122.64 87.5634 122.911 88.0277C123.182 88.4919 123.55 88.892 123.988 89.2006C124.572 89.6042 125.298 89.8812 125.615 90.5195C125.679 90.7172 125.767 90.906 125.877 91.0814C126.16 91.4243 126.771 91.4639 126.891 91.8938C126.959 92.1339 126.834 92.4214 126.967 92.6324C127.043 92.7301 127.144 92.8056 127.258 92.8514L128.964 93.7087C130.871 94.6688 131.846 96.874 133.253 98.4805C133.739 99.0037 134.169 99.5766 134.537 100.19C135.145 101.284 135.425 102.659 136.452 103.355C136.728 103.499 136.979 103.687 137.196 103.912C137.518 104.339 137.4 104.938 137.429 105.476C137.458 106.014 137.867 106.655 138.375 106.492C138.197 107.143 138.197 107.831 138.375 108.483C140.607 108.368 142.735 107.5 144.417 106.019C144.915 105.582 145.394 105.022 145.4 104.358C145.407 104.243 145.382 104.128 145.326 104.028C145.226 103.898 145.093 103.797 144.941 103.735C143.345 102.865 142.866 100.847 142.059 99.2085C141.354 97.763 140.311 96.5179 139.439 95.1753C137.542 92.2869 136.248 88.7917 133.379 86.8846C132.747 86.4652 132.014 86.0933 131.696 85.3995C131.521 85.0118 131.5 84.5686 131.361 84.1676C131.222 83.7667 130.89 83.3763 130.465 83.3763C130.701 82.796 130.654 82.089 130.669 81.4612C130.686 81.1826 130.654 80.9033 130.575 80.6356C130.466 80.3476 130.325 80.0733 130.153 79.8179C129.405 78.5419 129.03 77.0786 129.074 75.5974C129.095 74.835 129.228 74.049 129 73.3209C128.885 72.9543 128.683 72.6193 128.545 72.2658C128.335 71.6253 128.225 70.9563 128.217 70.2821L128.06 67.7472C128.036 66.903 127.927 66.0633 127.735 65.2413C127.211 63.2734 126.687 55.0302 124.892 54.1017C123.097 53.1732 120.013 59.5172 117.993 59.6412C117.1 59.6786 116.217 59.8502 115.373 60.1503C114.029 60.6567 112.903 61.6011 111.805 62.5243L108.089 65.666C107.303 66.3175 106.654 66.94 105.786 67.399Z" fill="#464353"/>
<path d="M87.954 13.5821C88.7715 12.4584 90.1758 11.8623 91.5592 11.8122C92.9427 11.7621 94.3051 12.1999 95.5444 12.8198C95.9102 13.0292 96.3012 13.1906 96.7077 13.2999C97.3628 13.4344 98.0912 13.2551 98.6833 13.5637C99.4693 13.9831 99.6213 15.0514 99.5532 15.9377C99.485 16.824 99.32 17.8079 99.789 18.5755C99.9553 18.7945 100.107 19.0245 100.242 19.264C100.444 19.7204 100.326 20.2479 100.206 20.7306C99.899 20.4669 99.7261 20.0686 99.4536 19.7626C99.1811 19.4566 98.7069 19.2508 98.3689 19.4803C98.0309 19.7098 98.0361 20.1266 98.0178 20.5012C97.9994 20.8757 97.9051 21.3242 97.554 21.4455C97.4074 21.4791 97.2541 21.4676 97.114 21.4126C96.9738 21.3576 96.8533 21.2616 96.768 21.1369C96.168 20.3983 96.409 19.2192 95.8143 18.4753C95.4763 18.0533 94.913 17.8475 94.6012 17.4044C94.3549 17.0562 94.292 16.613 94.0772 16.2384C93.8623 15.8639 93.3619 15.5895 93.0291 15.848C92.9156 15.9573 92.8208 16.0847 92.7488 16.2252C92.5413 16.5245 92.2396 16.7445 91.8925 16.8498C91.5455 16.9551 91.1733 16.9395 90.8361 16.8056C90.5785 16.6463 90.2997 16.5247 90.0081 16.4442C89.8173 16.4346 89.6276 16.4789 89.4605 16.5721C89.2933 16.6653 89.1554 16.8038 89.0623 16.9718C88.8743 17.3074 88.7835 17.6894 88.8003 18.0744C88.8003 18.6019 88.8946 19.1638 88.5959 19.5858C88.4823 19.7447 88.3401 19.8807 88.1767 19.9868C87.7391 20.269 87.1287 20.459 86.7252 20.1371C86.5884 20.0089 86.4867 19.8474 86.4298 19.6682C86.3729 19.4889 86.3627 19.298 86.4003 19.1137C86.4788 18.7465 86.5821 18.3852 86.7094 18.0322C86.94 17.2144 86.6387 16.2938 86.8902 15.5236C87.1537 14.8299 87.5117 14.1765 87.954 13.5821Z" fill="#464353"/>
<path d="M91.2737 32.192C91.2343 32.3842 91.2544 32.584 91.3313 32.7644C91.4092 32.8872 91.5152 32.9895 91.6405 33.0625C92.5216 33.6151 93.5237 33.942 94.5593 34.0147C94.7002 34.0172 94.8385 34.0533 94.9627 34.1202C95.209 34.2838 95.2248 34.6478 95.1331 34.938C95.0108 35.2117 94.9474 35.5083 94.947 35.8084C95.023 36.3598 95.6728 36.5998 96.2204 36.6816C96.9881 36.7792 97.8291 36.729 98.437 36.2463C98.8488 35.8682 99.1627 35.3947 99.3514 34.8667C100.855 31.3875 101.382 27.5415 102.904 24.0728C103.02 23.8463 103.097 23.602 103.132 23.35C103.148 23.2239 103.131 23.0957 103.081 22.9788C103.031 22.8619 102.951 22.7606 102.849 22.6853C102.566 22.5085 102.126 22.6088 101.935 22.3318C101.841 22.192 101.851 22.0021 101.767 21.8544C101.592 21.5405 101.13 21.5906 100.816 21.4086C100.57 21.2767 100.399 21.005 100.124 20.9522C99.9893 20.9445 99.8543 20.9687 99.7301 21.0227C99.606 21.0767 99.496 21.1592 99.4091 21.2635C98.5156 22.1023 98.0466 23.292 97.5488 24.4157C96.7886 26.1382 95.8987 27.7996 94.8868 29.3854C95.0047 29.2007 94.3208 27.8027 94.0536 27.742C93.5846 27.647 92.9846 28.4753 92.7304 28.7839C91.9329 29.7574 91.4276 30.9396 91.2737 32.192Z" fill="#6C63FF"/>
<path opacity="0.1" d="M100.792 21.6539C100.604 21.657 100.419 21.7028 100.251 21.7877C100.083 21.8726 99.9355 21.9946 99.8204 22.1445C99.5401 22.5112 99.485 22.9965 99.4143 23.4634C99.1758 24.9426 98.6515 26.3604 97.8711 27.6365" fill="black"/>
<path opacity="0.1" d="M102.129 22.7064C101.869 22.7122 101.615 22.786 101.392 22.9206C101.169 23.0552 100.985 23.2459 100.858 23.474C100.685 23.8889 100.577 24.3286 100.538 24.7771C100.314 25.7714 99.8804 26.7059 99.2676 27.5178" fill="black"/>
<path d="M164.398 74.2758V70.9996C164.397 68.5879 163.445 66.2752 161.751 64.57C160.057 62.8649 157.759 61.9071 155.364 61.9071H26.8507C24.4552 61.9071 22.1577 62.8649 20.4636 64.57C18.7695 66.2752 17.8173 68.5879 17.8167 70.9996V77.0402L164.398 74.2758Z" fill="#33323D"/>
<path d="M62.6019 58.0664C62.6019 58.0664 62.2351 80.9785 66.2701 88.5174C70.305 96.0563 72.0343 128.852 72.0343 128.852C72.0343 128.852 114.333 133.258 143.809 123.577C173.285 113.896 236.005 109.937 236.005 109.937L225.436 38.2168C225.436 38.2168 173.22 34.8456 143.516 49.1083C113.812 63.371 62.6019 58.0664 62.6019 58.0664Z" fill="#8DD070"/>
<path opacity="0.1" d="M62.6019 58.0664C62.6019 58.0664 62.2351 80.9785 66.2701 88.5174C70.305 96.0563 72.0343 128.852 72.0343 128.852C72.0343 128.852 114.333 133.258 143.809 123.577C173.285 113.896 236.005 109.937 236.005 109.937L225.436 38.2168C225.436 38.2168 173.22 34.8456 143.516 49.1083C113.812 63.371 62.6019 58.0664 62.6019 58.0664Z" fill="black"/>
<path d="M71.9635 66.4362C71.9635 66.4362 70.6404 85.3415 73.9601 91.3821C77.2797 97.4227 77.4343 124.389 77.4343 124.389C77.4343 124.389 115.502 126.167 142.58 116.887C169.659 107.607 226.562 101.588 226.562 101.588L220.096 42.9358C220.096 42.9358 173.013 42.4478 145.533 55.5103C118.054 68.5728 71.9635 66.4362 71.9635 66.4362Z" fill="#8DD070"/>
<path opacity="0.1" d="M145.115 106.149C150.531 105.469 153.749 95.4377 152.302 83.7423C150.855 72.047 145.292 63.1166 139.875 63.7958C134.459 64.475 131.241 74.5066 132.688 86.202C134.135 97.8973 139.699 106.828 145.115 106.149Z" fill="black"/>
<path opacity="0.2" d="M196.808 3.27881C196.808 3.27881 146.081 16.2041 122.159 38.9554C98.2379 61.7066 47.8796 72.4794 47.8796 72.4794C47.8796 72.4794 54.5137 94.3971 60.65 100.327C66.7862 106.257 78.4247 136.94 78.4247 136.94C78.4247 136.94 120.024 128.061 145.124 109.733C170.225 91.4058 228.724 68.2589 228.724 68.2589L196.808 3.27881Z" fill="black"/>
<path d="M47.1172 69.198C47.1172 69.198 53.7486 91.1183 59.8797 97.0481C66.0107 102.978 77.6544 133.658 77.6544 133.658C77.6544 133.658 119.259 124.782 144.362 106.455C169.465 88.127 227.959 64.988 227.959 64.988L196.043 0C196.043 0 145.318 12.9253 121.397 35.6766C97.4754 58.4278 47.1172 69.198 47.1172 69.198Z" fill="#8DD070"/>
<path opacity="0.1" d="M47.1172 69.198C47.1172 69.198 53.7486 91.1183 59.8797 97.0481C66.0107 102.978 77.6544 133.658 77.6544 133.658C77.6544 133.658 119.259 124.782 144.362 106.455C169.465 88.127 227.959 64.988 227.959 64.988L196.043 0C196.043 0 145.318 12.9253 121.397 35.6766C97.4754 58.4278 47.1172 69.198 47.1172 69.198Z" fill="black"/>
<path d="M58.5696 74.2732C58.5696 74.2732 63.0736 92.6773 68.0753 97.399C73.0771 102.121 81.4378 127.734 81.4378 127.734C81.4378 127.734 118.208 117.663 141.152 100.464C164.097 83.2655 216.425 59.9814 216.425 59.9814L192.396 6.13821C192.396 6.13821 147.438 20.2163 125.264 41.1395C103.09 62.0627 58.5696 74.2732 58.5696 74.2732Z" fill="#8DD070"/>
<path opacity="0.1" d="M140.304 89.4693C145.252 87.1495 145.257 76.6078 140.315 65.9237C135.374 55.2395 127.356 48.4589 122.408 50.7786C117.46 53.0984 117.455 63.6401 122.397 74.3242C127.339 85.0083 135.356 91.789 140.304 89.4693Z" fill="black"/>
<path opacity="0.1" d="M167.867 77.4913V168.496C167.867 169.53 167.665 170.553 167.272 171.508C166.879 172.463 166.303 173.33 165.577 174.061C164.851 174.792 163.989 175.371 163.04 175.767C162.092 176.162 161.075 176.365 160.049 176.365H25.6376C23.5652 176.364 21.5779 175.535 20.1128 174.059C18.6476 172.584 17.8245 170.583 17.8245 168.496V68.317C21.6761 69.7572 21.6761 69.7572 25.6376 69.6359H160.049C162.119 69.6359 164.106 70.463 165.571 71.9357C167.037 73.4084 167.863 75.4065 167.867 77.4913Z" fill="black"/>
<path d="M167.867 78.6493V169.654C167.866 171.741 167.042 173.743 165.576 175.218C164.11 176.694 162.122 177.523 160.049 177.523H25.6376C23.5652 177.522 21.5779 176.693 20.1128 175.217C18.6476 173.742 17.8245 171.741 17.8245 169.654V69.4723C21.6761 70.9099 21.6761 70.9099 25.6376 70.7912H160.049C162.12 70.7912 164.107 71.6187 165.572 73.092C167.038 74.5653 167.863 76.564 167.867 78.6493Z" fill="#504F60"/>
<path opacity="0.1" d="M167.484 112.295V141.398H139.449C135.65 141.346 132.023 139.791 129.354 137.067C126.685 134.344 125.189 130.672 125.189 126.846C125.189 123.021 126.685 119.349 129.354 116.625C132.023 113.902 135.65 112.346 139.449 112.295H167.484Z" fill="black"/>
<path d="M167.867 111.519V140.628H139.832C136.032 140.576 132.406 139.02 129.737 136.297C127.068 133.574 125.571 129.902 125.571 126.076C125.571 122.25 127.068 118.578 129.737 115.855C132.406 113.132 136.032 111.576 139.832 111.524L167.867 111.519Z" fill="#33323D"/>
<path opacity="0.1" d="M141.176 132.522C144.289 132.522 146.812 129.981 146.812 126.848C146.812 123.714 144.289 121.174 141.176 121.174C138.063 121.174 135.54 123.714 135.54 126.848C135.54 129.981 138.063 132.522 141.176 132.522Z" fill="black"/>
<path d="M141.559 131.751C144.671 131.751 147.194 129.211 147.194 126.077C147.194 122.944 144.671 120.403 141.559 120.403C138.446 120.403 135.923 122.944 135.923 126.077C135.923 129.211 138.446 131.751 141.559 131.751Z" fill="#6C63FF"/>
<path d="M216.53 111.269C216.753 113.698 214.926 116.056 215.458 118.436C215.574 118.945 215.791 119.425 215.87 119.939C216.09 121.353 215.254 122.69 214.455 123.872L207.59 134.012C207.315 134.458 206.986 134.867 206.61 135.231C205.3 136.407 203.33 136.286 201.606 136.637C200.394 136.884 199.25 137.394 198.252 138.13C198.21 138.165 198.184 138.216 198.178 138.271C198.172 138.326 198.187 138.381 198.221 138.425C198.506 138.816 198.883 139.128 199.319 139.334C199.755 139.54 200.235 139.633 200.715 139.604C200.896 139.844 200.715 140.195 200.453 140.366C200.084 140.63 199.578 140.694 199.505 141.321C199.478 141.54 199.523 141.762 199.63 141.954C199.907 142.381 200.337 142.683 200.83 142.796C203.207 143.527 205.774 142.242 207.553 140.493C209.333 138.744 210.609 136.536 212.354 134.756C213.32 133.772 214.418 132.928 215.414 131.973C217.4 130.068 218.943 127.752 220.434 125.434C220.882 124.735 221.333 124.017 221.521 123.207C221.71 122.398 221.621 121.58 221.833 120.796C222.111 119.768 222.857 118.95 223.478 118.087C224.697 116.399 225.509 114.334 225.349 112.255C225.189 110.177 223.908 108.122 221.959 107.415C221.355 107.171 220.688 107.13 220.059 107.299C219.26 107.547 218.671 108.211 218.126 108.847L216.816 110.364C216.489 110.697 216.231 111.091 216.056 111.525C215.972 111.742 215.952 111.98 215.998 112.208C216.045 112.437 216.156 112.647 216.318 112.814" fill="#FBBEBE"/>
<path opacity="0.05" d="M216.53 111.269C216.753 113.698 214.926 116.056 215.458 118.436C215.574 118.945 215.791 119.425 215.87 119.939C216.09 121.353 215.254 122.69 214.455 123.872L207.59 134.012C207.315 134.458 206.986 134.867 206.61 135.231C205.3 136.407 203.33 136.286 201.606 136.637C200.394 136.884 199.25 137.394 198.252 138.13C198.21 138.165 198.184 138.216 198.178 138.271C198.172 138.326 198.187 138.381 198.221 138.425C198.506 138.816 198.883 139.128 199.319 139.334C199.755 139.54 200.235 139.633 200.715 139.604C200.896 139.844 200.715 140.195 200.453 140.366C200.084 140.63 199.578 140.694 199.505 141.321C199.478 141.54 199.523 141.762 199.63 141.954C199.907 142.381 200.337 142.683 200.83 142.796C203.207 143.527 205.774 142.242 207.553 140.493C209.333 138.744 210.609 136.536 212.354 134.756C213.32 133.772 214.418 132.928 215.414 131.973C217.4 130.068 218.943 127.752 220.434 125.434C220.882 124.735 221.333 124.017 221.521 123.207C221.71 122.398 221.621 121.58 221.833 120.796C222.111 119.768 222.857 118.95 223.478 118.087C224.697 116.399 225.509 114.334 225.349 112.255C225.189 110.177 223.908 108.122 221.959 107.415C221.355 107.171 220.688 107.13 220.059 107.299C219.26 107.547 218.671 108.211 218.126 108.847L216.816 110.364C216.489 110.697 216.231 111.091 216.056 111.525C215.972 111.742 215.952 111.98 215.998 112.208C216.045 112.437 216.156 112.647 216.318 112.814" fill="black"/>
<path d="M221.726 173.811C220.227 174.732 218.359 174.787 216.616 174.574C216.336 174.539 216.003 174.518 215.83 174.737C215.568 175.054 215.878 175.529 216.197 175.774C217.225 176.551 218.432 177.051 219.706 177.227C220.842 177.39 221.99 177.466 223.138 177.457C226.282 177.512 229.426 177.565 232.52 177.111C232.704 177.097 232.882 177.045 233.044 176.958C233.244 176.817 233.383 176.605 233.432 176.365C233.644 175.552 233.236 174.682 232.617 174.117C231.999 173.553 231.205 173.239 230.43 172.936L227.705 171.867C227.065 171.617 226.041 170.952 225.347 171.005C224.042 171.1 222.808 173.173 221.726 173.811Z" fill="#3F3D56"/>
<path opacity="0.05" d="M221.726 173.811C220.227 174.732 218.359 174.787 216.616 174.574C216.336 174.539 216.003 174.518 215.83 174.737C215.568 175.054 215.878 175.529 216.197 175.774C217.225 176.551 218.432 177.051 219.706 177.227C220.842 177.39 221.99 177.466 223.138 177.457C226.282 177.512 229.426 177.565 232.52 177.111C232.704 177.097 232.882 177.045 233.044 176.958C233.244 176.817 233.383 176.605 233.432 176.365C233.644 175.552 233.236 174.682 232.617 174.117C231.999 173.553 231.205 173.239 230.43 172.936L227.705 171.867C227.065 171.617 226.041 170.952 225.347 171.005C224.042 171.1 222.808 173.173 221.726 173.811Z" fill="black"/>
<path d="M223.636 137.394C222.501 138.913 221.327 140.667 221.608 142.548C221.76 143.561 222.323 144.455 222.737 145.391C223.298 146.663 223.591 148.029 223.879 149.39C224.304 151.379 224.731 153.374 224.99 155.394C225.286 157.676 223.895 164.278 223.767 166.576C223.735 167.13 223.67 167.729 223.287 168.127C223.138 168.285 222.939 168.412 222.871 168.618C222.831 168.816 222.863 169.022 222.962 169.198C223.602 170.649 224.909 171.73 226.368 172.347C227.828 172.965 231.347 174.03 232.937 174.086C233.147 174.109 233.359 174.081 233.555 174.004C233.767 173.874 233.933 173.681 234.032 173.453C235.172 171.258 234.077 163.455 234.092 160.978C234.108 158.913 234.593 156.861 234.504 154.798C234.43 153.141 233.98 151.522 233.83 149.871C233.568 147.164 234.061 144.445 234.556 141.77C234.933 139.718 235.313 137.665 235.798 135.639C236.094 134.402 236.437 133.155 237.108 132.081C237.632 131.229 238.368 130.517 238.979 129.707C240.673 127.47 241.426 124.653 241.075 121.862C241.038 121.598 237.145 122.857 236.802 123.007C235.401 123.604 234.113 124.438 232.992 125.473C232.091 126.339 231.381 127.494 230.592 128.462C229.476 129.832 228.374 131.211 227.285 132.601C226.044 134.189 224.827 135.786 223.636 137.394Z" fill="#464353"/>
<path opacity="0.05" d="M223.636 137.301C222.501 138.821 221.327 140.577 221.608 142.456C221.76 143.471 222.323 144.365 222.737 145.302C223.298 146.571 223.591 147.94 223.879 149.298C224.304 151.29 224.731 153.284 224.99 155.302C225.286 157.586 223.895 164.186 223.767 166.484C223.735 167.037 223.67 167.639 223.287 168.037C223.138 168.193 222.939 168.319 222.871 168.525C222.83 168.723 222.863 168.93 222.962 169.106C223.602 170.559 224.909 171.638 226.368 172.271C227.828 172.904 231.347 173.455 232.937 173.508C233.147 173.531 233.359 173.503 233.555 173.426C233.767 173.298 233.934 173.106 234.032 172.878C235.172 170.683 234.077 163.381 234.092 160.902C234.108 158.834 234.593 156.784 234.504 154.719C234.43 153.062 233.98 151.443 233.83 149.794C233.568 147.085 234.061 144.365 234.556 141.691C234.934 139.641 235.313 137.589 235.798 135.56C236.094 134.323 236.437 133.076 237.108 132.002C237.632 131.15 238.368 130.438 238.979 129.628C240.674 127.392 241.427 124.574 241.075 121.783C241.038 121.519 237.145 122.777 236.802 122.928C235.402 123.527 234.113 124.362 232.992 125.397C232.091 126.259 231.381 127.415 230.592 128.383C229.476 129.753 228.374 131.133 227.285 132.524C226.044 134.1 224.827 135.692 223.636 137.301Z" fill="black"/>
<path d="M211.012 103.93C214.524 103.93 217.371 101.064 217.371 97.5282C217.371 93.9925 214.524 91.1262 211.012 91.1262C207.5 91.1262 204.653 93.9925 204.653 97.5282C204.653 101.064 207.5 103.93 211.012 103.93Z" fill="#FBBEBE"/>
<path d="M216.74 97.2591C217.327 98.2026 218.097 99.0172 219.004 99.6544C219.911 100.292 220.937 100.738 222.019 100.968L221.54 102.722C220.712 105.734 219.781 108.921 217.471 111.01C217.733 109.989 217.397 108.9 216.826 108.014C216.255 107.127 215.453 106.431 214.667 105.742L211.007 102.551C210.901 102.464 210.812 102.359 210.745 102.239C210.654 102.014 210.654 101.763 210.745 101.538C211.211 100.076 212.542 99.1637 213.627 98.1771C214.171 97.667 214.657 97.0972 215.076 96.4784C215.807 95.4285 216.26 96.4836 216.74 97.2591Z" fill="#FBBEBE"/>
<path d="M202.636 91.0919L202.491 89.8891C203.495 90.1528 204.449 89.2929 205.091 88.404C205.733 87.515 206.327 86.4678 207.305 86.0959C208.491 85.6474 209.749 86.3597 210.884 86.9611C212.154 87.6706 213.548 88.1274 214.989 88.3064C215.219 88.3141 215.447 88.3513 215.668 88.4172C216.407 88.6809 216.758 89.6147 216.865 90.4615C216.973 91.3082 216.944 92.2077 217.308 92.9621C217.57 93.5345 218.057 93.9592 218.356 94.5237C219.142 96.0378 218.382 98.1085 219.202 99.5936L217.164 97.7128C216.978 97.5414 216.716 97.362 216.509 97.5071C216.347 97.6232 216.333 97.8738 216.268 98.0742C216.071 98.6598 215.343 98.8339 214.816 98.6018C214.29 98.3697 213.905 97.8658 213.506 97.4069C212.605 96.3359 211.531 95.3942 210.273 94.9379C209.722 94.7304 209.133 94.6433 208.546 94.6824C207.959 94.7215 207.386 94.8859 206.867 95.1647C205.916 95.7055 205.219 96.9663 204.053 97.0112C202.455 97.0719 201.789 94.0753 201.05 92.8909C201.321 92.6861 201.511 92.392 201.588 92.0602C201.664 91.7284 201.623 91.38 201.47 91.0761C201.577 91.0312 202.612 90.9073 202.636 91.0919Z" fill="#464353"/>
<path d="M123.983 53.6639C123.472 54.1214 123 54.6208 122.571 55.1569C122.139 55.7004 121.909 56.3787 121.921 57.0746C121.923 57.2764 121.987 57.4726 122.104 57.6364C122.164 57.7148 122.247 57.7725 122.341 57.8013C122.435 57.8302 122.535 57.8288 122.628 57.7973C122.734 57.7433 122.824 57.6635 122.89 57.5652C123.167 57.2302 123.461 56.9097 123.771 56.605C123.883 56.4916 124.033 56.3729 124.185 56.4151C124.253 56.4395 124.314 56.4802 124.363 56.5338C124.539 56.6872 124.667 56.8888 124.732 57.1141C124.824 57.5177 124.591 57.9213 124.326 58.2379C124.062 58.5544 123.75 58.8577 123.642 59.256C123.602 59.3612 123.602 59.4779 123.642 59.5831C123.693 59.6592 123.764 59.7195 123.847 59.7572C124.222 59.9652 124.638 60.0877 125.065 60.1159C125.493 60.1442 125.921 60.0776 126.32 59.9208C126.844 59.7071 127.31 59.3405 127.85 59.1505C128.084 59.0861 128.31 58.9978 128.526 58.8868C128.681 58.7833 128.813 58.6501 128.916 58.4948C129.019 58.3395 129.09 58.1652 129.126 57.982C129.194 57.6159 129.208 57.2415 129.166 56.8715C129.1 55.4385 128.795 54.0268 128.264 52.6958C128.233 52.6099 128.181 52.5336 128.112 52.4742C128.033 52.4258 127.943 52.4011 127.85 52.403C127.179 52.3318 126.079 51.9862 125.432 52.2368C125.206 52.3618 125.01 52.5367 124.861 52.7486C124.74 52.8831 123.983 53.4871 123.983 53.6639Z" fill="#A1616A"/>
<path d="M123.771 53.0677C123.771 52.4241 122.985 50.8704 124.234 50.7675C124.234 50.0791 123.268 49.6517 123.448 48.9211C123.506 48.6784 123.71 48.4805 123.734 48.2326C123.813 47.5283 122.55 47.1458 122.759 46.4705C122.838 46.2067 123.116 46.0537 123.176 45.7926C123.317 45.1833 122.235 44.9116 122.214 44.2864C122.214 44.0754 122.332 43.8775 122.322 43.6665C122.322 43.4027 122.094 43.2023 121.968 42.9728C121.641 42.3845 121.8 41.4745 121.203 41.1711C121.599 41.2054 121.727 40.6145 121.565 40.2532C121.402 39.8918 121.069 39.5779 121.067 39.1769C121.086 39.0316 121.086 38.8843 121.067 38.7391C120.957 38.3539 120.331 38.3223 120.226 37.9477C120.212 37.8039 120.208 37.6594 120.213 37.5151C120.171 37.217 119.867 37.0271 119.581 36.9427C119.285 36.892 118.999 36.7893 118.738 36.6393C118.554 36.4995 118.342 36.2674 118.145 36.3756C118.072 36.4204 118.035 36.5048 117.98 36.5681C117.744 36.8451 117.294 36.7238 116.998 36.5206C116.123 35.9219 115.688 34.8483 115.502 33.8011C115.316 32.7538 115.321 31.6723 115.088 30.6357C115.017 30.3126 114.922 29.9952 114.805 29.686C114.705 29.4223 114.386 29.0081 114.365 28.7417C114.317 28.135 115.565 28.5491 116.039 28.6098C116.499 28.6551 116.954 28.7434 117.399 28.8736C117.873 29.0539 118.337 29.2591 118.79 29.4882C120.682 30.3297 122.966 30.4326 124.486 31.8464C124.986 32.3107 125.408 32.92 126.058 33.131C126.356 33.1886 126.65 33.2652 126.938 33.3605C127.659 33.7008 127.772 34.6636 128.165 35.36C128.288 35.5439 128.396 35.738 128.487 35.9403C128.563 36.1789 128.598 36.4285 128.592 36.6789L128.647 38.5069C128.736 41.5694 128.825 44.6399 128.5 47.6839C128.395 48.6889 128.238 49.723 128.534 50.6884C128.613 50.9522 128.723 51.2001 128.796 51.4665C128.861 51.7789 128.894 52.0971 128.896 52.4162L128.938 53.6005C128.952 53.6926 128.932 53.7869 128.88 53.8643C128.836 53.9001 128.785 53.9256 128.73 53.9388C128.675 53.9521 128.618 53.9528 128.563 53.9408C126.925 53.7931 125.269 52.8646 123.724 53.4264" fill="#464353"/>
<path d="M198.501 144.073C209.203 144.073 217.879 142.81 217.879 141.253C217.879 139.695 209.203 138.433 198.501 138.433C187.799 138.433 179.123 139.695 179.123 141.253C179.123 142.81 187.799 144.073 198.501 144.073Z" fill="#504F60"/>
<path d="M215.173 141.39C214.832 139.921 214.62 138.631 214.62 138.631C214.62 138.631 214.698 137.032 213.986 135.832V135.431V132.477C214.189 131.94 214.437 131.422 214.727 130.928C215.251 130 214.727 126.597 214.727 126.597C214.727 126.597 212.77 121.799 213.244 118.755C213.719 115.711 209.225 105.239 209.225 105.239C209.253 104.229 209.394 103.225 209.647 102.247C209.695 102.042 209.714 101.83 209.705 101.619C209.705 101.593 209.705 101.569 209.705 101.543C209.705 101.517 209.705 101.559 209.705 101.567C209.636 99.5593 208.059 95.7978 208.059 95.7978L208.271 88.6282C208.271 88.6282 209.278 84.4077 207.637 78.7232C207.064 76.7422 206.697 75.1568 206.464 73.9329C206.437 73.7957 206.411 73.6691 206.39 73.5346C209.767 73.007 212.348 72.585 212.348 72.585C212.348 72.585 210.388 64.3312 209.065 62.8857C207.742 61.4402 206.684 56.9005 206.684 56.9005C206.684 56.9005 205.995 51.0735 207.108 49.3695C208.222 47.6655 208.379 44.7269 208.379 44.7269C208.379 44.7269 210.918 42.8804 211.237 42.0442C211.557 41.2081 212.084 39.3616 212.084 38.3829C212.084 37.4043 211.767 36.5365 211.871 36.0089C211.976 35.4813 211.13 33.532 211.554 32.6035C211.664 32.3183 211.721 32.0152 211.722 31.7093C211.723 31.7005 211.723 31.6916 211.722 31.6829C211.726 30.8703 211.651 30.0594 211.499 29.2614C210.765 28.637 209.908 28.1759 208.984 27.9082L208.929 27.6866L208.785 27.1063C208.705 27.0527 208.621 27.0034 208.536 26.9585V26.7475L208.512 25.9087L208.911 24.0253C209.697 20.7491 205.35 20.2611 205.35 20.2611C205.086 19.7586 204.648 19.3716 204.119 19.1743C203.246 18.8657 203.974 24.1018 204.381 24.45C204.687 24.7138 205.636 26.3439 206.094 27.1511L206.167 27.283C206.096 27.348 206.029 27.4185 205.968 27.494L206.133 28.6309L206.16 28.805C205.872 29.1652 205.638 29.566 205.465 29.9947C205.465 29.9947 206.251 30.8704 206.102 31.8412C205.953 32.8119 206.346 34.0437 206.364 34.1097C206.317 34.0543 205.759 33.4476 205.201 33.5953C204.643 33.743 203.084 34.2152 203.084 34.2152C203.084 34.2152 201.92 34.4209 202.036 34.6794C202.151 34.938 201.25 36.0722 201.25 36.0722L198.121 33.0862C198.09 32.9965 198.056 32.9068 198.029 32.8224C197.902 32.3919 197.814 31.9504 197.767 31.5035C198.108 31.4219 198.443 31.3153 198.768 31.1843C199.097 31.0707 199.394 30.8789 199.633 30.6251C199.95 30.2479 200.01 29.7362 200.139 29.2666C200.385 28.3487 200.925 27.5336 201.299 26.6605C201.934 25.1851 202.138 23.5584 201.889 21.9704C201.841 21.4811 201.676 21.0105 201.409 20.5988C200.898 19.8918 199.971 19.6043 199.298 19.0398C198.624 18.4753 198.189 17.6127 197.403 17.1933C196.693 16.8108 195.831 16.8557 195.029 16.9876C193.464 17.2475 191.959 17.7985 190.594 18.6125C190.138 18.8763 189.635 19.2007 189.111 19.1031C188.66 19.0213 188.325 18.66 188.042 18.3118C188.045 18.2973 188.049 18.2832 188.055 18.2696C188.042 18.2567 188.031 18.2426 188.021 18.2274C187.689 18.9682 187.523 19.7731 187.533 20.5856C187.533 20.7122 187.533 20.8493 187.549 20.9628V21.0947C187.549 21.1316 187.549 21.1685 187.549 21.2028C187.549 21.259 187.541 21.315 187.525 21.369C187.459 21.5304 187.359 21.6753 187.232 21.7937C187.136 21.9037 187.048 22.021 186.97 22.1445C186.97 22.1023 186.996 22.0601 187.012 22.0153C186.812 22.309 186.699 22.6539 186.687 23.0097C186.672 23.2687 186.757 23.5236 186.923 23.7219C187.08 23.8753 187.251 24.0131 187.434 24.1334C187.372 24.4817 187.34 24.8347 187.339 25.1886C187.345 26.2375 187.62 27.2671 188.137 28.1779C188.654 29.0887 189.395 29.8499 190.29 30.3877C190.326 30.4748 190.36 30.5644 190.394 30.6515C190.795 31.7066 191.097 32.9464 190.963 34.0807C190.963 34.1624 190.939 34.2468 190.926 34.3286C190.913 34.4104 190.848 34.4157 190.814 34.4605C190.814 34.4605 185.644 34.5133 184.429 33.4054C183.213 32.2975 181.358 36.1144 181.358 36.1144C181.358 36.1144 179.505 36.4758 179.133 36.1144C178.761 35.753 176.594 36.0643 176.594 36.0643C175.707 35.2695 174.551 34.845 173.364 34.8773C172.644 34.3268 171.85 33.8826 171.006 33.5584L170.948 33.5373C170.575 33.4005 170.177 33.35 169.782 33.3896C169.782 33.3896 167.241 31.2793 166.499 30.1398C165.758 29.0002 162.228 24.7929 162.213 24.7744V24.5713L162.173 23.9593C162.069 23.9759 161.963 23.9847 161.856 23.9857C161.838 23.925 161.812 23.8538 161.786 23.7721C161.582 23.1751 161.332 22.5956 161.036 22.039C161.036 22.039 161.036 21.2661 161.259 21.0709C161.482 20.8757 161.167 18.0401 161.167 18.0401C161.167 18.0401 158.877 12.651 156.826 16.6737C156.826 16.6737 152.948 19.2772 156.202 22.3107C156.202 22.3107 157.512 22.9438 157.685 23.445C157.806 23.7694 158.246 24.6795 158.542 25.2914L158.676 25.5552L158.639 25.5869L158.686 26.0933L158.707 26.2885C158.094 26.6394 157.677 26.9876 157.78 27.2487C157.96 27.6956 158.084 28.1635 158.149 28.6415C158.149 28.6415 162.65 34.3181 163.232 36.7422C163.232 36.7422 175.303 43.9646 179.272 44.479L178.57 48.0796C178.468 49.0566 178.415 50.0383 178.413 51.0208C178.465 51.7936 177.936 55.3019 177.936 55.3019C177.936 55.3019 177.247 60.4615 176.665 61.1843C176.084 61.9071 176.188 65.0012 176.188 65.0012C176.051 66.4825 175.788 67.9492 175.402 69.3853C174.821 71.3452 175.242 73.772 175.242 73.772C175.242 73.772 173.233 78.4145 178.049 75.2676C178.049 75.2676 180.407 75.1199 183.137 75.0249C183.137 75.1146 183.137 75.207 183.137 75.2887C183.137 75.6422 183.137 76.0247 183.118 76.4256C183.082 79.0845 183.066 82.7564 183.187 85.5208C183.399 90.4219 184.882 100.121 184.882 100.121V105.004C184.786 105.462 184.739 105.929 184.74 106.397C184.709 108.114 185.163 109.806 186.05 111.274L186.422 114.524C186.422 114.524 187.292 116.666 187.308 117.953C187.305 118.057 187.292 118.16 187.271 118.261C187.237 118.425 187.223 118.593 187.229 118.76C187.18 120.237 188.063 123.772 188.063 123.772C188.063 123.772 188.115 127.33 188.644 127.539C189.098 127.715 188.039 129.588 187.725 130.126C187.716 130.093 187.71 130.06 187.706 130.026L187.641 130.132C187.532 130.42 187.476 130.725 187.476 131.034C187.446 131.277 187.485 131.523 187.589 131.745C187.693 131.966 187.857 132.153 188.063 132.284C189.069 132.904 189.608 133.418 188.754 133.624C188.44 133.673 188.129 133.739 187.822 133.822C187.822 133.782 187.79 133.74 187.777 133.703C187.657 133.751 187.556 133.839 187.492 133.952C187.429 134.065 187.406 134.198 187.429 134.326C187.437 134.744 187.544 135.155 187.74 135.523C188.587 137.433 189.174 138.161 189.174 138.161L189.58 138.116C189.52 138.273 189.44 138.421 189.344 138.557C189.189 138.778 188.984 138.959 188.746 139.084C188.525 139.218 188.277 139.304 188.021 139.335C187.734 139.344 187.452 139.415 187.194 139.541C186.936 139.667 186.707 139.847 186.522 140.068C185.998 140.757 185.663 141.693 186.705 142.516L190.491 143.835C190.491 143.835 197.005 144.687 196.659 143.215C196.313 141.743 196.104 140.456 196.104 140.456C196.132 139.557 195.952 138.664 195.58 137.847C195.511 137.714 195.434 137.585 195.349 137.462L195.58 137.438C195.58 137.438 196.057 134.186 196.691 133.569C196.837 133.426 196.871 133.305 196.837 133.231C196.903 133.054 196.735 132.952 196.523 132.891L196.476 133.02C196.268 132.975 196.057 132.951 195.844 132.949C195.844 132.949 195.632 131.247 196.321 130.628C196.377 130.557 196.417 130.476 196.44 130.388C196.463 130.301 196.468 130.21 196.455 130.121C196.46 129.888 196.435 129.655 196.381 129.427C196.375 129.442 196.367 129.456 196.358 129.47C196.012 127.924 194.838 125.468 194.838 125.468C194.838 125.468 194.786 123.922 195.21 123.302C195.635 122.682 195.155 114.893 195.155 114.893C195.155 114.893 195.315 111.129 194.838 109.375C194.361 107.621 195.42 105.555 195.42 105.555C195.42 105.555 195.42 105.516 195.42 105.444V105.418L195.36 104.824C195.358 104.837 195.358 104.849 195.36 104.861C195.252 103.864 195.05 102.057 194.901 101.224C194.689 100.037 194.956 94.3655 194.956 94.3655L195.907 91.9387L197.602 96.1196L199.402 101.691C199.402 101.691 200.293 102.867 200.314 104.065C200.314 104.123 200.314 104.181 200.314 104.239C200.3 104.362 200.293 104.486 200.293 104.611C200.261 105.315 200.453 106.01 200.841 106.597C200.841 106.597 201.318 109.235 202.059 109.897C202.801 110.559 202.801 111.857 202.801 111.857C202.801 111.857 203.699 115.676 204.111 116.341C204.467 116.906 204.485 118.451 204.483 118.934C204.483 119.021 204.483 119.071 204.483 119.071C204.483 119.071 204.608 120.438 204.603 121.583C204.603 121.725 204.603 121.862 204.603 121.991C204.604 121.982 204.604 121.972 204.603 121.962C204.603 122.275 204.566 122.587 204.493 122.891L204.477 122.944C204.477 122.878 204.478 122.814 204.496 122.751C204.312 123.529 204.224 124.326 204.234 125.125C204.21 126.497 204.417 128.122 205.243 129.082C206.673 130.733 207.572 130.527 207.572 130.527C207.572 130.527 206.885 132.59 206.036 133.004C206.004 133.02 205.974 133.039 205.947 133.062C205.947 133.02 205.932 132.981 205.926 132.941C205.832 133.044 205.76 133.166 205.714 133.298C205.669 133.431 205.652 133.572 205.664 133.711C205.604 134.619 206.173 136.085 206.712 136.768C206.913 136.966 207.159 137.111 207.428 137.191C207.385 137.221 207.34 137.248 207.294 137.272C207.2 137.324 207.103 137.371 207.003 137.412C206.865 137.471 206.72 137.509 206.571 137.526C206.284 137.533 206.001 137.603 205.743 137.729C205.484 137.856 205.256 138.036 205.072 138.259C204.548 138.945 204.213 139.881 205.256 140.704L209.042 142.023C209.042 142.023 215.513 142.859 215.173 141.39Z" fill="url(#paint0_linear)"/>
<path d="M190.305 143.827L186.637 142.508C185.626 141.685 185.948 140.749 186.459 140.06C186.635 139.841 186.855 139.662 187.106 139.535C187.356 139.409 187.631 139.338 187.911 139.327C188.159 139.295 188.398 139.21 188.61 139.077C188.843 138.949 189.042 138.769 189.192 138.549C189.459 138.121 189.604 137.627 189.608 137.122C189.608 137.122 193.633 135.935 194.733 137.122C194.93 137.337 195.094 137.579 195.221 137.842C195.586 138.661 195.765 139.553 195.745 140.451C195.745 140.451 195.949 141.738 196.282 143.21C196.615 144.682 190.305 143.827 190.305 143.827Z" fill="#2D293D"/>
<path d="M208.237 142.007L204.569 140.688C203.558 139.865 203.88 138.929 204.391 138.243C204.566 138.023 204.785 137.843 205.036 137.716C205.286 137.59 205.56 137.519 205.84 137.51C205.985 137.495 206.126 137.456 206.259 137.396C206.356 137.355 206.451 137.308 206.542 137.256C207.567 136.689 207.54 135.297 207.54 135.297C207.54 135.297 211.562 134.11 212.665 135.297C212.813 135.457 212.942 135.634 213.05 135.824C213.74 137.024 213.664 138.625 213.664 138.625C213.664 138.625 213.868 139.915 214.188 141.385C214.507 142.854 208.237 142.007 208.237 142.007Z" fill="#2D293D"/>
<path opacity="0.1" d="M194.736 137.119C194.932 137.334 195.097 137.577 195.223 137.839L189.197 138.544C189.465 138.116 189.609 137.622 189.614 137.117C189.614 137.117 193.636 135.932 194.736 137.119Z" fill="black"/>
<path opacity="0.1" d="M213.056 135.829V136.966C212.118 138.52 207.582 138.18 206.264 137.402C206.361 137.36 206.456 137.314 206.547 137.262C207.572 136.695 207.546 135.302 207.546 135.302C207.546 135.302 211.568 134.115 212.671 135.302C212.818 135.463 212.947 135.64 213.056 135.829Z" fill="black"/>
<path d="M213.771 130.928C213.491 131.424 213.251 131.942 213.056 132.477V136.552C212.029 138.254 206.702 137.686 205.981 136.758C205.261 135.829 204.509 133.413 205.319 132.994C206.128 132.574 206.804 130.517 206.804 130.517C206.804 130.517 205.932 130.723 204.548 129.071C203.165 127.42 203.576 123.759 203.833 122.883C204.09 122.007 203.833 119.066 203.833 119.066C203.833 119.066 203.885 117.001 203.477 116.331C203.068 115.661 202.195 111.846 202.195 111.846C202.195 111.846 202.195 110.556 201.477 109.886C200.76 109.216 200.298 106.584 200.298 106.584C199.879 105.926 199.698 105.142 199.788 104.365C199.939 103.076 198.915 101.683 198.915 101.683L197.173 96.1091L195.532 91.9307L194.61 94.3549C194.61 94.3549 194.348 100.029 194.56 101.213C194.773 102.398 195.084 105.547 195.084 105.547C195.084 105.547 194.06 107.61 194.521 109.364C194.982 111.118 194.815 114.888 194.815 114.888C194.815 114.888 195.276 122.675 194.864 123.294C194.453 123.914 194.505 125.463 194.505 125.463C194.505 125.463 196.601 130 195.941 130.62C195.281 131.24 195.48 132.941 195.48 132.941C195.48 132.941 196.913 132.941 196.3 133.561C195.687 134.181 195.223 137.431 195.223 137.431L189.027 138.161C189.027 138.161 188.461 137.441 187.641 135.523C186.821 133.606 187.793 133.822 188.618 133.614C189.443 133.405 188.922 132.893 187.947 132.274C186.973 131.654 187.539 130.261 187.539 130.261C187.539 130.261 189.024 127.734 188.511 127.528C187.997 127.322 187.947 123.761 187.947 123.761C187.947 123.761 186.923 119.541 187.18 118.396C187.436 117.251 186.36 114.529 186.36 114.529L186.001 111.279C184.904 109.435 184.504 107.255 184.874 105.138V100.126C184.874 100.126 183.438 90.4298 183.234 85.5288C183.103 82.3897 183.139 78.1059 183.181 75.4338C183.208 73.9355 183.234 72.9411 183.234 72.9411L205.368 70.6198C205.368 70.6198 205.347 71.6485 205.769 73.9302C205.997 75.1542 206.351 76.7395 206.906 78.7205C208.494 84.3945 207.522 88.6229 207.522 88.6229L207.315 95.7952C207.315 95.7952 209.262 100.591 208.853 102.242C208.606 103.222 208.467 104.227 208.439 105.239C208.439 105.239 212.794 115.711 212.333 118.755C211.871 121.799 213.766 126.597 213.766 126.597C213.766 126.597 214.285 130 213.771 130.928Z" fill="#464353"/>
<path opacity="0.05" d="M201.116 104.054L207.855 103.149C207.855 103.149 204.037 107.072 201.116 104.054Z" fill="black"/>
<path opacity="0.1" d="M206.88 96.5206C206.88 96.5206 207.111 98.921 205.651 99.8231C205.651 99.8231 208.264 99.4116 206.88 96.5206Z" fill="black"/>
<path opacity="0.1" d="M206.466 88.8867C206.466 88.8867 200.833 93.5557 198.784 93.1679C196.735 92.7801 206.466 88.8867 206.466 88.8867Z" fill="black"/>
<path opacity="0.1" d="M192.763 106.244C192.763 106.244 188.484 107.222 188.356 108.953C188.228 110.683 192.763 106.244 192.763 106.244Z" fill="black"/>
<path opacity="0.05" d="M193.704 127.758C193.704 127.758 187.659 128.892 189.375 129.665C191.091 130.438 193.911 131.058 193.911 131.058C193.911 131.058 195.863 131.16 193.704 127.758Z" fill="black"/>
<g opacity="0.05">
<path opacity="0.05" d="M188.154 130.894C188.002 130.798 187.874 130.67 187.778 130.517C187.682 130.365 187.622 130.192 187.601 130.013L187.539 130.121C187.539 130.121 186.975 131.514 187.95 132.131C188.06 132.202 188.167 132.274 188.264 132.342C188.445 132.308 188.639 132.282 188.825 132.234C189.65 132.028 189.129 131.514 188.154 130.894Z" fill="black"/>
<path opacity="0.05" d="M195.941 130.48C196.109 130.327 196.104 129.931 196.001 129.425C195.739 129.823 195.663 130.446 195.658 130.918C195.722 130.754 195.818 130.605 195.941 130.48Z" fill="black"/>
<path opacity="0.05" d="M195.011 104.817C194.788 105.427 194.651 106.065 194.602 106.713C194.719 106.265 194.876 105.829 195.071 105.41L195.011 104.817Z" fill="black"/>
<path opacity="0.05" d="M208.856 102.11C208.896 101.925 208.914 101.735 208.911 101.546C208.835 101.931 208.782 102.287 208.743 102.601C208.777 102.44 208.814 102.287 208.856 102.11Z" fill="black"/>
<path opacity="0.05" d="M194.867 123.157C194.951 123.031 194.998 122.603 195.019 122.01C194.829 122.469 194.729 122.961 194.723 123.458C194.759 123.352 194.807 123.251 194.867 123.157Z" fill="black"/>
<path opacity="0.05" d="M196.125 132.886C195.807 133.92 195.571 134.979 195.42 136.051L189.223 136.771C189.223 136.771 188.657 136.051 187.837 134.133C187.771 133.985 187.713 133.834 187.662 133.68C187.29 133.851 187.138 134.239 187.63 135.37C188.45 137.28 189.019 138.008 189.019 138.008L195.215 137.285C195.215 137.285 195.677 134.036 196.29 133.416C196.604 133.118 196.41 132.962 196.125 132.886Z" fill="black"/>
<path opacity="0.05" d="M187.95 123.622C187.95 123.622 188 127.18 188.513 127.386C188.775 126.797 188.946 126.238 188.715 126.146C188.191 125.94 188.152 122.379 188.152 122.379C188.152 122.379 187.127 118.159 187.384 117.014C187.641 115.869 186.564 113.147 186.564 113.147L186.205 109.897C185.109 108.053 184.709 105.873 185.078 103.756V98.7442C185.078 98.7442 183.643 89.0476 183.438 84.1465C183.307 81.0075 183.344 76.7237 183.386 74.0516C183.386 73.5689 183.401 73.1415 183.409 72.7802L183.234 72.7986C183.234 72.7986 183.205 73.7904 183.181 75.2914C183.139 77.9635 183.1 82.2473 183.234 85.3837C183.438 90.2848 184.871 99.984 184.871 99.984V104.996C184.504 107.112 184.904 109.291 186.001 111.134L186.357 114.384C186.357 114.384 187.434 117.117 187.177 118.254C186.92 119.39 187.95 123.622 187.95 123.622Z" fill="black"/>
<path opacity="0.05" d="M206.191 135.381C205.688 134.647 205.352 133.81 205.209 132.93C204.577 133.505 205.303 135.737 205.995 136.623C206.71 137.552 212.039 138.119 213.069 136.415V135.434C211.672 136.813 206.867 136.259 206.191 135.381Z" fill="black"/>
<path opacity="0.05" d="M213.978 129.551C213.697 130.047 213.457 130.565 213.26 131.1V131.83C213.378 131.567 213.543 131.213 213.784 130.796C213.946 130.39 214.023 129.955 214.009 129.517C214.009 129.517 213.986 129.541 213.978 129.551Z" fill="black"/>
<path opacity="0.05" d="M206.505 130.366C206.7 129.969 206.869 129.559 207.011 129.14C207.011 129.14 206.139 129.346 204.755 127.694C203.749 126.494 203.691 124.226 203.836 122.743C203.574 123.622 203.167 127.283 204.551 128.934C205.455 130.013 206.139 130.298 206.505 130.366Z" fill="black"/>
<path opacity="0.05" d="M203.833 118.926C203.923 119.943 203.957 120.963 203.935 121.983C203.961 121.822 203.996 121.663 204.04 121.506C204.302 120.628 204.04 117.689 204.04 117.689C204.04 117.689 204.092 115.624 203.681 114.954C203.27 114.284 202.413 110.464 202.413 110.464C202.413 110.464 202.413 109.174 201.695 108.504C200.977 107.834 200.516 105.202 200.516 105.202C200.092 104.545 199.907 103.761 199.992 102.983C200.146 101.693 199.122 100.301 199.122 100.301L197.38 94.7295L195.739 90.5512L194.815 92.978C194.815 92.978 194.815 93.284 194.783 93.7693L195.532 91.7989L197.173 95.9693L198.915 101.54C198.915 101.54 199.939 102.933 199.785 104.223C199.7 105.001 199.885 105.785 200.309 106.441C200.309 106.441 200.77 109.079 201.488 109.744C202.206 110.409 202.203 111.704 202.203 111.704C202.203 111.704 203.076 115.521 203.484 116.188C203.893 116.856 203.833 118.926 203.833 118.926Z" fill="black"/>
</g>
<path d="M208.135 24.0174L207.75 25.9008L207.774 26.7396L207.789 27.3569L205.651 27.5784L205.413 27.1326C204.97 26.3255 204.05 24.6847 203.754 24.4315C203.359 24.0991 202.654 18.8604 203.492 19.1717C204.008 19.3724 204.432 19.7587 204.682 20.2558C204.682 20.2558 208.892 20.7412 208.135 24.0174Z" fill="#FFCDD3"/>
<path opacity="0.1" d="M207.789 27.3569L205.651 27.5784L205.413 27.1326C205.7 26.803 206.093 26.584 206.523 26.5128C206.953 26.4416 207.394 26.5227 207.771 26.7422L207.789 27.3569Z" fill="black"/>
<path d="M208.329 28.3777L205.51 29.0345L205.45 28.6125L205.29 27.4756C205.29 27.4756 206.406 25.9773 208.02 27.101L208.161 27.6787L208.329 28.3777Z" fill="#6C63FF"/>
<path d="M162.661 24.2231L159.65 25.848L159.388 25.2782C159.103 24.6742 158.676 23.7641 158.558 23.4318C158.38 22.9306 157.125 22.2975 157.125 22.2975C153.98 19.2667 157.727 16.6605 157.727 16.6605C159.713 12.6378 161.919 18.0269 161.919 18.0269C161.919 18.0269 162.228 20.8678 162.011 21.0577C161.794 21.2477 161.794 22.0258 161.794 22.0258C162.08 22.5833 162.323 23.1628 162.519 23.7589C162.611 24.0464 162.661 24.2231 162.661 24.2231Z" fill="#FFCDD3"/>
<path opacity="0.1" d="M162.661 24.2231L159.65 25.848L159.388 25.2782C159.813 24.9195 161.319 23.6956 161.814 23.7457C162.051 23.7754 162.29 23.7816 162.527 23.7641C162.611 24.0464 162.661 24.2231 162.661 24.2231Z" fill="black"/>
<path d="M162.967 25.1384L159.585 26.8161L159.517 26.0854L159.469 25.579C159.469 25.579 161.429 23.8881 162.008 23.9541C162.301 23.9968 162.599 23.9968 162.891 23.9541L162.931 24.566L162.967 25.1384Z" fill="#6C63FF"/>
<path d="M199.937 36.5286C199.937 36.5286 185.191 38.2036 187.947 37.3015C189.865 36.671 190.628 35.455 190.788 34.0833C190.919 32.9411 190.625 31.7093 190.24 30.6541C189.893 29.7181 189.454 28.8194 188.93 27.9715C188.93 27.9715 200.196 21.7304 197.946 27.4043C197.599 28.2625 197.383 29.1689 197.306 30.0923C197.239 31.0099 197.337 31.9323 197.597 32.8145C198.022 34.246 198.832 35.5313 199.937 36.5286Z" fill="#FFCDD3"/>
<path opacity="0.1" d="M197.938 27.3964C197.591 28.2546 197.375 29.161 197.298 30.0844C196.237 30.9839 195.074 30.9232 193.578 30.9232C192.43 30.9232 191.157 31.2028 190.24 30.6462C189.893 29.7102 189.454 28.8115 188.93 27.9636C188.93 27.9636 200.194 21.7225 197.938 27.3964Z" fill="black"/>
<path d="M193.379 31.3189C196.746 31.3189 199.476 28.5707 199.476 25.1806C199.476 21.7906 196.746 19.0424 193.379 19.0424C190.012 19.0424 187.282 21.7906 187.282 25.1806C187.282 28.5707 190.012 31.3189 193.379 31.3189Z" fill="#FFCDD3"/>
<path opacity="0.1" d="M199.937 36.5286C199.937 36.5286 185.191 38.2036 187.947 37.3014C189.865 36.671 190.628 35.455 190.788 34.0833C191.521 33.292 192.996 32.7037 193.932 32.3977C194.796 32.105 195.73 32.0893 196.604 32.3529C196.948 32.4571 197.275 32.6099 197.576 32.8066C198.006 34.2433 198.823 35.5318 199.937 36.5286Z" fill="black"/>
<path opacity="0.1" d="M208.329 28.3777L205.51 29.0345L205.45 28.6125C205.751 28.195 206.174 27.8814 206.659 27.7143C207.144 27.5472 207.669 27.5348 208.161 27.6787L208.329 28.3777Z" fill="black"/>
<path opacity="0.1" d="M162.967 25.1384L159.585 26.8161L159.517 26.0854C160.612 25.4924 161.751 24.9836 162.923 24.5634L162.967 25.1384Z" fill="black"/>
<path opacity="0.1" d="M205.769 73.9355C200.055 74.8535 191.932 76.0247 190.643 75.629C189.572 75.3019 186.155 75.3362 183.181 75.4391C183.208 73.9408 183.234 72.9463 183.234 72.9463L205.368 70.6251C205.368 70.6251 205.347 71.6538 205.769 73.9355Z" fill="black"/>
<path d="M211.465 72.585C211.465 72.585 192.661 75.8348 190.643 75.2228C188.626 74.6108 178.263 75.2729 178.263 75.2729C173.6 78.4198 175.546 73.7773 175.546 73.7773C175.546 73.7773 175.138 71.3531 175.701 69.3932C176.079 67.9543 176.338 66.4861 176.474 65.0039C176.474 65.0039 176.372 61.9071 176.935 61.1843C177.498 60.4615 178.167 55.3046 178.167 55.3046C178.167 55.3046 178.677 51.7963 178.628 51.0234C178.578 50.2505 178.78 48.0822 178.78 48.0822L179.448 44.4711C175.604 43.9567 163.921 36.7343 163.921 36.7343C163.358 34.3102 159.003 28.6362 159.003 28.6362C158.94 28.1591 158.819 27.6914 158.644 27.2434C158.338 26.4178 162.949 24.7665 162.949 24.7665C162.949 24.7665 166.381 28.987 167.099 30.1319C167.817 31.2767 170.275 33.3816 170.275 33.3816C170.657 33.3421 171.042 33.3927 171.401 33.5294L171.462 33.5478C172.285 33.8734 173.058 34.3176 173.754 34.8667C174.91 34.8392 176.031 35.2648 176.88 36.0538C176.88 36.0538 178.976 35.7425 179.34 36.1039C179.705 36.4653 181.491 36.1039 181.491 36.1039C181.491 36.1039 183.284 32.287 184.463 33.3948C185.642 34.5027 190.643 34.45 190.643 34.45C191.309 33.5584 192.931 32.92 193.945 32.6035C194.81 32.3119 195.743 32.2963 196.617 32.5586C196.994 32.6719 197.349 32.8505 197.665 33.0862L200.707 36.0775C200.707 36.0775 201.577 34.9406 201.475 34.6847C201.373 34.4289 202.499 34.2205 202.499 34.2205C202.499 34.2205 203.985 33.7562 204.548 33.6006C205.112 33.445 205.628 34.0596 205.675 34.115C205.657 34.049 205.271 32.7961 205.413 31.8464C205.554 30.8968 204.797 30 204.797 30C206.589 25.5631 210.637 29.2772 210.637 29.2772C210.637 29.2772 211.098 31.7014 210.69 32.6299C210.281 33.5584 211.098 35.5183 210.996 36.0353C210.894 36.5523 211.203 37.4281 211.203 38.4093C211.203 39.3906 210.679 41.245 210.383 42.0706C210.087 42.8963 207.616 44.7533 207.616 44.7533C207.616 44.7533 207.462 47.6945 206.385 49.3959C205.308 51.0973 205.984 56.9163 205.984 56.9163C205.984 56.9163 207.009 61.456 208.29 62.9015C209.571 64.347 211.465 72.585 211.465 72.585Z" fill="#3F3D56"/>
<path opacity="0.1" d="M184.054 38.6415C184.054 38.6415 183.491 36.9401 182.977 36.795C182.467 36.6062 181.971 36.3823 181.491 36.125L181.822 35.4893C181.822 35.4893 183.745 36.0168 184.054 36.5892C184.363 37.1616 184.054 38.6415 184.054 38.6415Z" fill="black"/>
<path opacity="0.1" d="M173.754 34.8773C173.652 35.4049 169.09 35.8559 169.09 35.8559L171.396 33.5294L171.454 33.5505C172.281 33.8777 173.056 34.3247 173.754 34.8773Z" fill="black"/>
<path d="M160.559 28.2089C160.785 28.2089 160.968 28.0246 160.968 27.7974C160.968 27.5701 160.785 27.3859 160.559 27.3859C160.334 27.3859 160.151 27.5701 160.151 27.7974C160.151 28.0246 160.334 28.2089 160.559 28.2089Z" fill="#575988"/>
<path d="M161.083 29.0345C161.309 29.0345 161.492 28.8503 161.492 28.623C161.492 28.3957 161.309 28.2115 161.083 28.2115C160.858 28.2115 160.675 28.3957 160.675 28.623C160.675 28.8503 160.858 29.0345 161.083 29.0345Z" fill="#575988"/>
<path d="M161.597 29.7968C161.823 29.7968 162.006 29.6126 162.006 29.3853C162.006 29.1581 161.823 28.9738 161.597 28.9738C161.371 28.9738 161.188 29.1581 161.188 29.3853C161.188 29.6126 161.371 29.7968 161.597 29.7968Z" fill="#575988"/>
<path d="M162.134 30.6198C162.36 30.6198 162.543 30.4356 162.543 30.2083C162.543 29.9811 162.36 29.7968 162.134 29.7968C161.908 29.7968 161.725 29.9811 161.725 30.2083C161.725 30.4356 161.908 30.6198 162.134 30.6198Z" fill="#575988"/>
<path d="M210.433 30.4985C210.617 30.4985 210.766 30.3485 210.766 30.1635C210.766 29.9785 210.617 29.8285 210.433 29.8285C210.249 29.8285 210.1 29.9785 210.1 30.1635C210.1 30.3485 210.249 30.4985 210.433 30.4985Z" fill="#575988"/>
<path d="M210.485 31.2608C210.669 31.2608 210.818 31.1108 210.818 30.9258C210.818 30.7408 210.669 30.5908 210.485 30.5908C210.302 30.5908 210.153 30.7408 210.153 30.9258C210.153 31.1108 210.302 31.2608 210.485 31.2608Z" fill="#575988"/>
<path d="M210.53 32.0205C210.714 32.0205 210.863 31.8705 210.863 31.6855C210.863 31.5005 210.714 31.3505 210.53 31.3505C210.346 31.3505 210.197 31.5005 210.197 31.6855C210.197 31.8705 210.346 32.0205 210.53 32.0205Z" fill="#575988"/>
<path opacity="0.1" d="M184.072 52.6219C184.022 52.5613 195.574 67.246 204.54 58.7601C204.548 58.7628 190.381 60.6963 184.072 52.6219Z" fill="black"/>
<path opacity="0.1" d="M177.443 60.2558C177.443 60.2558 184.355 60.4457 185.078 62.4478V64.5317C184.882 64.6416 184.66 64.6993 184.435 64.6993C184.21 64.6993 183.989 64.6416 183.792 64.5317C183.095 64.1518 178.916 62.0152 177.443 63.044V60.2558Z" fill="black"/>
<path d="M177.572 60.2558C177.572 60.2558 184.182 60.4378 184.874 62.3476V64.3312C184.686 64.4365 184.474 64.4918 184.258 64.4918C184.043 64.4918 183.831 64.4365 183.643 64.3312C182.977 63.9725 178.981 61.9334 177.572 62.9147V60.2558Z" fill="#3F3D56"/>
<path opacity="0.1" d="M181.216 45.1463C181.922 46.7919 182.822 48.3462 183.897 49.7757C185.065 51.3558 186.481 52.734 188.089 53.8564C188.089 53.8564 181.332 46.1012 181.216 45.1463Z" fill="black"/>
<path opacity="0.1" d="M178.955 37.0614C178.955 37.0614 180.108 42.0733 183.079 43.7747L178.955 37.0614Z" fill="black"/>
<path opacity="0.1" d="M177.187 37.5679C177.158 37.4755 176.162 41.5246 181.017 43.7747C181.017 43.7747 178.955 43.0704 177.187 37.5679Z" fill="black"/>
<path opacity="0.1" d="M207.367 34.2073C207.291 34.2073 209.762 35.79 210.436 36.5286C210.436 36.5286 208.827 34.1018 207.367 34.2073Z" fill="black"/>
<path d="M191.731 30.7438C191.732 30.8777 191.76 31.01 191.814 31.1322C191.869 31.2545 191.948 31.3641 192.046 31.4541C192.145 31.5441 192.261 31.6125 192.387 31.6551C192.513 31.6976 192.646 31.7134 192.779 31.7013C194.636 31.8174 196.573 31.8992 198.281 31.1738C198.601 31.0586 198.889 30.8667 199.119 30.6146C199.423 30.2374 199.484 29.7256 199.607 29.2561C199.848 28.3381 200.361 27.523 200.731 26.6499C201.356 25.1748 201.565 23.5548 201.336 21.9678C201.288 21.4813 201.128 21.0127 200.87 20.5988C200.377 19.8892 199.478 19.6017 198.826 19.0372C198.174 18.4727 197.754 17.6101 196.992 17.1907C196.305 16.8056 195.464 16.853 194.691 16.9849C193.171 17.2448 191.714 17.7955 190.4 18.6072C189.957 18.871 189.472 19.1954 188.964 19.0978C188.519 19.0134 188.194 18.6362 187.916 18.2827C187.559 19.1269 187.409 20.0452 187.478 20.9601C187.498 21.0944 187.493 21.231 187.465 21.3637C187.401 21.5242 187.304 21.6689 187.18 21.7884C186.721 22.316 186.436 23.1733 186.889 23.7167C187.085 23.9514 187.389 24.0807 187.581 24.3207C187.924 24.7507 187.808 25.3758 187.801 25.9245C187.782 26.1161 187.83 26.3083 187.937 26.4679C188.036 26.5609 188.157 26.6266 188.289 26.6585C188.421 26.6904 188.559 26.6874 188.689 26.6499C188.948 26.5712 189.221 26.5452 189.491 26.5734C189.775 26.6664 190.02 26.852 190.188 27.101C191.034 28.2115 191.369 29.4196 191.731 30.7438Z" fill="#2D293D"/>
<g opacity="0.1">
<path opacity="0.1" d="M199.337 30.1477C199.107 30.3998 198.819 30.5917 198.498 30.7069C196.78 31.427 194.846 31.3452 192.996 31.2344C192.798 31.2364 192.601 31.1922 192.422 31.1052C192.139 30.939 192.032 30.5908 191.946 30.2743C191.584 28.9554 191.251 27.7446 190.392 26.6446C190.226 26.3909 189.981 26.2005 189.695 26.1039C189.425 26.0783 189.153 26.1042 188.893 26.1804C188.763 26.2182 188.626 26.2216 188.494 26.1902C188.362 26.1587 188.241 26.0936 188.141 26.001C188.034 25.8414 187.986 25.6492 188.005 25.4576C188.005 24.9037 188.128 24.2838 187.785 23.8538C187.594 23.6138 187.29 23.4845 187.093 23.2471C186.965 23.0721 186.886 22.8654 186.866 22.6489C186.845 22.4325 186.883 22.2144 186.975 22.0179C186.648 22.5455 186.509 23.2076 186.889 23.6613C187.085 23.896 187.389 24.0253 187.581 24.2653C187.924 24.6979 187.808 25.3205 187.801 25.8691C187.78 26.0604 187.828 26.2528 187.934 26.4125C188.034 26.506 188.155 26.5719 188.288 26.6038C188.42 26.6357 188.558 26.6325 188.689 26.5945C188.948 26.5158 189.221 26.4898 189.491 26.518C189.775 26.611 190.02 26.7966 190.188 27.0456C191.044 28.1456 191.38 29.3537 191.741 30.6779C191.784 31.0037 191.945 31.3019 192.195 31.5141C192.374 31.6012 192.572 31.6446 192.771 31.6407C194.629 31.7567 196.565 31.8411 198.273 31.1131C198.594 30.9987 198.882 30.8067 199.112 30.5539C199.227 30.4053 199.316 30.2374 199.374 30.058C199.376 30.0923 199.358 30.1213 199.337 30.1477Z" fill="black"/>
<path opacity="0.1" d="M187.478 21.2028C187.561 21.1128 187.624 21.0069 187.664 20.8915C187.688 20.7581 187.688 20.6214 187.664 20.488C187.613 19.7359 187.71 18.9811 187.95 18.2669L187.916 18.2273C187.557 19.0702 187.407 19.988 187.478 20.9021C187.486 21.0022 187.486 21.1027 187.478 21.2028Z" fill="black"/>
</g>
<path opacity="0.1" d="M190.643 34.4631C190.643 34.4631 198.26 35.4813 198.944 34.3286L190.643 34.4631Z" fill="black"/>
<path opacity="0.1" d="M205.45 31.2898C205.45 31.2898 209.684 31.2898 210.614 32.8936L205.45 31.2898Z" fill="black"/>
<path d="M229.138 173.772C227.882 174.902 226.25 175.516 224.566 175.492C224.136 175.492 223.541 175.573 223.539 176.006C223.549 176.133 223.592 176.255 223.664 176.36C224.196 177.252 225.036 177.916 226.023 178.224C226.94 178.504 227.919 178.457 228.876 178.407L231.666 178.261C232.19 178.232 232.714 178.206 233.238 178.14C233.762 178.074 234.333 177.966 234.881 177.876C236.227 177.684 237.587 177.62 238.945 177.686C239.306 177.7 239.731 177.686 239.946 177.423C240.161 177.159 240.051 176.655 239.969 176.259C239.802 175.444 239.969 174.59 239.815 173.772C239.553 172.337 238.319 171.237 236.967 170.717C235.709 170.237 233.482 169.686 232.292 170.488C231.037 171.329 230.27 172.735 229.138 173.772Z" fill="#3F3D56"/>
<path d="M231.91 125.695C232.156 126.874 233.291 127.776 233.322 128.979C233.351 129.944 232.667 130.754 232.175 131.58C231.71 132.435 231.319 133.328 231.003 134.249C230.076 136.648 228.925 138.954 227.566 141.134C226.911 142.189 226.177 143.316 226.327 144.542C226.431 145.116 226.632 145.667 226.921 146.172L228.886 150.103C229.317 150.887 229.654 151.721 229.89 152.585C230.06 153.331 230.076 154.104 230.175 154.864C230.485 157.275 231.609 159.702 230.943 162.039C230.885 162.239 230.681 162.482 230.521 162.342C231.171 163.563 231.692 164.793 231.643 166.178C231.616 166.903 231.396 167.66 231.661 168.335C231.774 168.618 231.97 168.881 231.968 169.185C231.968 169.385 231.876 169.572 231.855 169.768C231.8 170.324 232.308 170.788 232.835 170.965C233.361 171.142 233.935 171.129 234.467 171.29C235.489 171.598 236.22 172.485 237.087 173.099C237.977 173.716 239.026 174.06 240.106 174.088C240.26 174.105 240.415 174.074 240.551 173.999C240.628 173.931 240.69 173.847 240.732 173.754C240.775 173.66 240.797 173.558 240.797 173.455C240.845 172.963 240.771 172.466 240.583 172.009C240.395 171.551 240.098 171.148 239.718 170.833C239.551 170.728 239.414 170.583 239.317 170.411C239.268 170.259 239.255 170.097 239.28 169.939C239.438 167.777 239.4 165.605 239.165 163.45C239.059 162.767 239.025 162.075 239.063 161.385C239.118 160.81 239.291 160.24 239.228 159.667C239.165 159.095 238.874 158.573 238.704 158.021C238.4 157.04 238.484 155.985 238.442 154.959C238.389 153.176 237.983 151.424 237.58 149.683C237.42 149 237.244 148.285 236.765 147.779C236.356 147.349 235.696 146.937 235.851 146.365C235.936 146.154 236.064 145.963 236.225 145.803C236.415 145.563 236.554 145.287 236.634 144.991C236.715 144.696 236.734 144.387 236.692 144.083C236.864 144.127 237.046 144.11 237.207 144.034C237.368 143.958 237.498 143.828 237.575 143.666C240.766 142.15 243.339 139.116 244.486 135.753C244.554 135.503 244.658 135.265 244.796 135.046C245.092 134.629 245.605 134.45 246.061 134.22C247.492 133.495 248.479 132.136 249.386 130.807C249.91 130.037 250.434 129.24 250.67 128.333C250.794 127.746 250.853 127.147 250.845 126.547L250.927 123.447C250.944 123.243 250.925 123.038 250.869 122.841C250.791 122.657 250.678 122.49 250.536 122.35C249.665 121.422 248.52 120.801 247.272 120.578C246.433 120.427 245.576 120.456 244.727 120.385C243.082 120.248 241.458 119.733 239.812 119.857C237.226 120.05 234.923 121.854 233.705 124.16C233.278 124.972 232.827 125.679 231.91 125.695Z" fill="#464353"/>
<path d="M217.552 105.542C217.587 106.02 217.522 106.501 217.363 106.953C217.161 107.386 216.656 107.723 216.213 107.547C216.347 107.243 215.993 106.898 215.663 106.935C215.5 106.972 215.349 107.049 215.223 107.159C215.097 107.268 214.998 107.407 214.937 107.562C214.718 108.006 214.645 108.507 214.727 108.995C214.832 109.602 215.181 110.184 215.089 110.794C215.016 111.3 214.646 111.804 214.843 112.274C214.97 112.488 215.13 112.681 215.317 112.846C215.576 113.167 215.702 113.576 215.671 113.988C215.639 114.4 215.451 114.785 215.147 115.062L220.104 115.162C219.923 115.996 220.295 116.848 220.719 117.589C221.908 119.627 223.55 121.36 225.516 122.652C227.481 123.944 229.717 124.759 232.049 125.035C231.923 125.11 231.815 125.211 231.732 125.332C231.65 125.454 231.595 125.592 231.572 125.737C231.55 125.882 231.559 126.03 231.6 126.171C231.641 126.312 231.713 126.443 231.81 126.552C232.214 126.956 232.898 126.906 233.403 126.645C233.909 126.383 234.305 125.951 234.766 125.616C235.58 125.035 236.573 124.766 237.567 124.856C238.188 124.917 238.79 125.12 239.414 125.151C241.248 125.249 242.82 123.92 244.586 123.376C245.872 122.978 247.332 122.978 248.411 122.168C248.878 121.82 249.26 121.248 249.124 120.683C249.011 120.359 248.833 120.061 248.6 119.81C247.979 119 247.612 118.027 247.167 117.106C246.284 115.283 245.069 113.644 243.585 112.274C242.465 111.288 241.278 110.382 240.032 109.562C239.731 109.338 239.41 109.143 239.073 108.979C238.638 108.786 238.156 108.694 237.763 108.451C237.182 108.082 236.846 107.431 236.398 106.906C235.416 105.75 233.906 105.22 232.696 104.313C231.884 103.703 231.166 102.901 230.196 102.609C229.725 102.464 229.224 102.453 228.753 102.311C227.681 101.983 226.9 101.026 225.85 100.638C225.019 100.332 224.102 100.411 223.23 100.303C222.246 100.181 221.307 99.8208 220.492 99.2533C220.229 99.038 219.935 98.8654 219.619 98.7416C218.291 98.3354 218.183 100.825 218.047 101.688C217.871 102.97 217.552 104.244 217.552 105.542Z" fill="#6C63FF"/>
<path d="M218.846 113.893C219.069 116.325 217.245 118.681 217.777 121.063C217.89 121.569 218.107 122.052 218.186 122.566C218.409 123.978 217.57 125.315 216.771 126.497L209.906 136.639C209.631 137.084 209.302 137.494 208.926 137.858C207.616 139.032 205.646 138.913 203.922 139.261C202.711 139.512 201.567 140.021 200.568 140.754C200.523 140.789 200.494 140.841 200.486 140.897C200.478 140.954 200.493 141.012 200.526 141.058C200.811 141.448 201.188 141.76 201.623 141.966C202.059 142.172 202.538 142.265 203.018 142.237C203.199 142.474 203.018 142.828 202.769 142.999C202.402 143.263 201.894 143.323 201.821 143.954C201.796 144.173 201.84 144.394 201.946 144.587C202.224 145.012 202.654 145.313 203.146 145.426C205.523 146.159 208.091 144.872 209.87 143.123C211.649 141.374 212.925 139.166 214.67 137.388C215.637 136.402 216.734 135.56 217.73 134.605C219.716 132.698 221.262 130.385 222.75 128.066C223.198 127.367 223.651 126.65 223.837 125.84C224.023 125.03 223.937 124.21 224.149 123.426C224.427 122.4 225.174 121.58 225.795 120.72C227.013 119.032 227.828 116.966 227.665 114.885C227.503 112.804 226.224 110.752 224.275 110.045C223.67 109.803 223.005 109.762 222.375 109.929C221.576 110.177 220.987 110.841 220.442 111.48L219.132 112.994C218.813 113.329 218.563 113.724 218.395 114.157C218.311 114.375 218.291 114.613 218.337 114.842C218.384 115.071 218.495 115.282 218.657 115.45" fill="#FBBEBE"/>
<path d="M222.326 103.917C221.424 103.97 220.431 104.059 219.795 104.708C219.528 105.006 219.312 105.347 219.155 105.716C218.537 106.985 217.934 108.312 217.89 109.725C217.853 110.854 218.178 111.96 218.348 113.076C218.49 114.004 218.131 114.951 218.063 115.89C219.181 115.545 220.659 115.075 221.673 114.492C222.365 114.094 223.033 113.64 223.788 113.387C224.864 113.025 226.67 113.651 227.694 114.152C227.749 113.429 227.209 112.168 227.267 111.443C227.275 111.137 227.329 110.835 227.427 110.546C227.58 110.24 227.762 109.949 227.969 109.678C228.359 109.04 228.539 108.293 228.482 107.546C228.425 106.799 228.134 106.089 227.652 105.518C226.743 104.489 225.32 104.104 223.963 103.935C223.108 103.836 222.247 103.806 221.388 103.846" fill="#6C63FF"/>
<defs>
<linearGradient id="paint0_linear" x1="185.036" y1="144.073" x2="185.036" y2="15.1728" gradientUnits="userSpaceOnUse">
<stop stop-color="#808080" stop-opacity="0.25"/>
<stop offset="0.54" stop-color="#808080" stop-opacity="0.12"/>
<stop offset="1" stop-color="#808080" stop-opacity="0.1"/>
</linearGradient>
</defs>
</svg>
